<svg xmlns="http://www.w3.org/2000/svg" width="25" height="24" fill="none"><path fill="#fff" fill-rule="evenodd" d="M8.23 16.678a1.78 1.78 0 0 0-1.789 1.777 1.78 1.78 0 0 0 1.789 1.777c.993 0 1.798-.796 1.798-1.777 0-.982-.805-1.777-1.798-1.777Zm8.988 0a1.78 1.78 0 0 0-1.788 1.777 1.78 1.78 0 0 0 1.788 1.777c.994 0 1.798-.796 1.798-1.777 0-.982-.804-1.777-1.797-1.777ZM4.635 2.461h-.91a.888.888 0 0 0 0 1.776h.215c.424 0 .811.244.995.627L6.972 9.11a4 4 0 0 1-.114 3.68l-.206.368a1.77 1.77 0 0 0-.22.854c0 .981.806 1.777 1.798 1.777h9.898a.889.889 0 0 0 0-1.777H8.61a.223.223 0 0 1-.217-.169.22.22 0 0 1 .006-.105.433.433 0 0 1 .042-.105l.12-.216a2.303 2.303 0 0 1 2.012-1.182h5.343c.676 0 1.266-.369 1.573-.914l3.212-5.766a.864.864 0 0 0 .114-.428.894.894 0 0 0-.9-.89H7.465a1.34 1.34 0 0 1-1.206-.759 1.796 1.796 0 0 0-1.624-1.017Z" clip-rule="evenodd"/></svg>