<svg width="44" height="32" viewBox="0 0 44 32" fill="none" xmlns="http://www.w3.org/2000/svg">
<path d="M18.2448 12.2H21.5488V22H18.2448V12.2ZM15.1928 22H11.8888V12.2H15.1928V22ZM18.4688 18.388H14.9688V15.672H18.4688V18.388ZM23.1408 22V12.2H27.9708C29.0628 12.2 30.0241 12.4007 30.8548 12.802C31.6854 13.194 32.3341 13.754 32.8008 14.482C33.2674 15.21 33.5008 16.078 33.5008 17.086C33.5008 18.1033 33.2674 18.9807 32.8008 19.718C32.3341 20.446 31.6854 21.0107 30.8548 21.412C30.0241 21.804 29.0628 22 27.9708 22H23.1408ZM26.4448 19.424H27.8308C28.2974 19.424 28.7034 19.3353 29.0488 19.158C29.4034 18.9807 29.6788 18.7193 29.8748 18.374C30.0708 18.0193 30.1688 17.59 30.1688 17.086C30.1688 16.5913 30.0708 16.1713 29.8748 15.826C29.6788 15.4807 29.4034 15.2193 29.0488 15.042C28.7034 14.8647 28.2974 14.776 27.8308 14.776H26.4448V19.424Z" fill="#828282"/>
<path d="M4 23.2222V28.2778C4 28.4693 4.07294 28.653 4.20277 28.7885C4.33261 28.9239 4.5087 29 4.69231 29H9.53846M4 8.77778V3.72222C4 3.53068 4.07294 3.34698 4.20277 3.21153C4.33261 3.07609 4.5087 3 4.69231 3H9.53846M34.4615 3H39.3077C39.4913 3 39.6674 3.07609 39.7972 3.21153C39.9271 3.34698 40 3.53068 40 3.72222V8.77778M40 23.2222V28.2778C40 28.4693 39.9271 28.653 39.7972 28.7885C39.6674 28.9239 39.4913 29 39.3077 29H34.4615" stroke="#828282" stroke-width="3" stroke-linecap="round" stroke-linejoin="round"/>
</svg>
