<svg xmlns="http://www.w3.org/2000/svg" width="33" height="31" fill="none"><path fill="#333" d="M.411 30.008a.564.564 0 0 1 0-.834l8.324-7.785c-.347-.648-.24-1.448.327-2.005l6.276-6.098c.42-.54.6-1.217.495-1.881-.114-.714-.544-1.335-1.191-1.752-.53-.342-.274-1.011.288-1.08.766-.092 1.473-.442 1.932-1.022.46-.58.63-1.318.483-2.026-.119-.569.582-.908 1.02-.573.597.458 1.375.661 2.139.555a2.801 2.801 0 0 0 1.873-1.114c.321-.438 1.095-.301 1.154.27.016.16.05.317.097.47L27.914.916A2.649 2.649 0 0 1 31.53.873c.908.85 1.09 2.316-.047 3.38L27.38 7.902a2.442 2.442 0 0 0-.57 1.974c.114.714.554 1.344 1.19 1.752.463.296.34 1.015-.288 1.079-.767.077-1.472.442-1.932 1.023a2.428 2.428 0 0 0-.483 2.026c.115.53-.541.932-1.02.572a2.906 2.906 0 0 0-2.138-.554 2.776 2.776 0 0 0-1.874 1.113c-.29.406-1.076.34-1.153-.27a2.562 2.562 0 0 0-.361-1.042l-7.015 6.31a1.98 1.98 0 0 1-2.097.327l-8.335 7.796a.662.662 0 0 1-.893 0Zm15.605-15.675-6.04 5.864a.56.56 0 0 0 .011.823c.244.228.63.232.88.01l7.013-6.309a2.892 2.892 0 0 0-1.864-.388Zm.24-4.876c.852.99 1.137 2.452.589 3.696 1.273.119 2.64.964 3.21 2.224a4.225 4.225 0 0 1 3.953-.55c.152-1.296 1.096-2.507 2.378-3.003-.9-1.088-1.103-2.466-.588-3.696-1.581-.134-2.811-1.268-3.211-2.225-.96.698-2.385 1.101-3.952.55-.143 1.191-.94 2.425-2.379 3.004Zm8.033-3.262a2.856 2.856 0 0 0 2.331.753l3.992-3.55c1.215-1.136-.569-2.804-1.783-1.668l-4.54 4.465ZM9.33 12.064c0-.993.864-1.8 1.925-1.8s1.925.807 1.925 1.8c0 .992-.864 1.8-1.925 1.8-1.197 0-1.925-.939-1.925-1.8Zm1.925-.62c-.365 0-.662.278-.662.62 0 .341.297.62.662.62.365 0 .663-.279.663-.62 0-.342-.298-.62-.663-.62Zm-.274-6.6c0-.993.864-1.8 1.925-1.8s1.925.807 1.925 1.8-.864 1.8-1.925 1.8c-1.197 0-1.925-.938-1.925-1.8Zm1.925-.62c-.365 0-.663.278-.663.62 0 .342.298.62.663.62.365 0 .663-.278.663-.62 0-.342-.298-.62-.663-.62Zm7.936 15.769c0-.993.864-1.8 1.925-1.8s1.925.807 1.925 1.8c0 .992-.864 1.8-1.925 1.8-1.197 0-1.925-.938-1.925-1.8Zm1.925-.62c-.365 0-.663.278-.663.62 0 .341.298.62.663.62.365 0 .663-.279.663-.62 0-.342-.298-.62-.663-.62Zm7.864 6.92L25.437 18.2a.57.57 0 0 1 .216-.81.657.657 0 0 1 .866.203l5.193 8.092a.57.57 0 0 1-.216.81.658.658 0 0 1-.866-.203ZM16.124 3.687l-1.677-2.613a.57.57 0 0 1 .216-.81.656.656 0 0 1 .866.203l1.677 2.612a.57.57 0 0 1-.217.81.655.655 0 0 1-.865-.202Zm13.364 8.86c.077-.317.427-.508.765-.429l1.537.36c.338.078.544.399.46.715-.085.316-.428.508-.766.43l-1.537-.36a.59.59 0 0 1-.46-.715ZM22.902 2.288l.443-1.658c.085-.317.427-.509.765-.43.339.08.544.4.46.716l-.443 1.658c-.085.316-.428.512-.765.43-.276-.068-.557-.336-.46-.716ZM16.07 27.864l.458-1.713c.085-.315.426-.503.765-.429.347.076.548.424.46.716l-.458 1.712c-.084.316-.429.513-.765.43-.304-.075-.552-.379-.46-.716Zm1.835-6.866.612-2.29c.084-.316.426-.503.765-.43.336.072.544.4.46.716l-.613 2.29c-.085.316-.429.514-.765.43-.285-.071-.56-.348-.46-.716Zm.555 2.72c0 .326-.283.59-.631.59-.349 0-.632-.264-.632-.59 0-.326.283-.59.631-.59.35 0 .632.264.632.59ZM2.14 6.158c.088-.315.428-.508.766-.43l1.83.429c.334.082.542.398.46.716-.081.315-.427.508-.765.429L2.6 6.874c-.323-.098-.555-.372-.46-.716Zm5.83 1.215c0 .326-.283.59-.632.59-.348 0-.63-.264-.63-.59 0-.326.282-.59.63-.59.349 0 .631.264.631.59Zm1.511.5c.074-.318.428-.508.765-.43l2.45.573a.595.595 0 0 1 .459.716c-.08.317-.428.509-.766.43L9.94 8.589a.592.592 0 0 1-.459-.716Z"/><path stroke="#333" stroke-linecap="round" stroke-linejoin="round" stroke-width="1.5" d="M18.787 10.633h5.005M21.29 12.973v-4.68M19.521 12.287l3.537-3.308M23.058 12.287l-3.537-3.308"/></svg>