<svg xmlns="http://www.w3.org/2000/svg" width="29" height="35" fill="none"><path fill="#333" d="M3.842 11.392c-.024.163-.04.326-.04.49a3.33 3.33 0 0 0 3.295 3.326c.557 1.118 1.598 1.967 2.81 2.256.38.09.766.13 1.149.121a.732.732 0 0 1 .556.223c.171.166.27.4.27.64v1.515h.95v-1.516a1.85 1.85 0 0 0-.558-1.321 1.721 1.721 0 0 0-1.246-.492 3.457 3.457 0 0 1-.9-.094 3.325 3.325 0 0 1-2.023-1.477 3.334 3.334 0 0 0 2.35-3.18h-.95a2.38 2.38 0 0 1-2.376 2.376 2.38 2.38 0 0 1-2.377-2.377c0-.04.01-.08.013-.122.3.077.614.123.938.123v-.951A2.855 2.855 0 0 1 2.85 8.08a2.855 2.855 0 0 1 2.852-2.852A2.855 2.855 0 0 1 8.555 8.08h.95c0-1.58-.97-2.939-2.346-3.511a2.842 2.842 0 0 1 2.346-1.242 2.855 2.855 0 0 1 2.852 2.852h.95c0-1.398-.76-2.619-1.886-3.28A3.787 3.787 0 0 1 14.734.952a3.807 3.807 0 0 1 3.38 5.544l.843.438a4.72 4.72 0 0 0 .332-3.524c.22-.053.443-.082.673-.082.943 0 1.822.476 2.35 1.24a3.807 3.807 0 0 0-2.35 3.513h.95a2.855 2.855 0 0 1 2.852-2.852 2.855 2.855 0 0 1 2.852 2.852c0 .97-.491 1.851-1.28 2.373a3.323 3.323 0 0 0-1.137-1.33l-.532.788a2.377 2.377 0 1 1-3.705 1.972h-.95c0 1.494.99 2.761 2.35 3.18a3.328 3.328 0 0 1-2.024 1.476c-.298.072-.6.105-.9.095-.458-.01-.905.162-1.246.491a1.854 1.854 0 0 0-.557 1.322v1.516h.95v-1.516c0-.24.099-.473.27-.64a.754.754 0 0 1 .557-.222c.38.008.767-.03 1.147-.121 1.213-.29 2.254-1.138 2.81-2.256a3.33 3.33 0 0 0 3.296-3.325c0-.168-.016-.332-.04-.494a3.79 3.79 0 0 0 1.942-3.309 3.807 3.807 0 0 0-3.803-3.802c-.17 0-.335.015-.499.036a3.817 3.817 0 0 0-3.303-1.938 3.78 3.78 0 0 0-1.033.148A4.756 4.756 0 0 0 14.734 0a4.731 4.731 0 0 0-4.187 2.525 3.794 3.794 0 0 0-1.042-.149A3.79 3.79 0 0 0 6.2 4.314a3.792 3.792 0 0 0-.496-.036A3.807 3.807 0 0 0 1.9 8.08c0 1.42.785 2.66 1.942 3.312Z"/><path fill="#333" d="M15.21 7.605a3.807 3.807 0 0 0-3.803 3.802h.95a2.855 2.855 0 0 1 2.853-2.852v-.95ZM27.568 14.734h-.95v.95h.95v-.95ZM27.568 16.635h-.95v.951h.95v-.95ZM28.518 15.685h-.95v.95h.95v-.95ZM26.617 15.685h-.951v.95h.95v-.95ZM4.753 0h-.95v.95h.95V0ZM4.753 1.901h-.95v.95h.95v-.95ZM5.704.95h-.951v.951h.95v-.95ZM3.803.95h-.95v.951h.95v-.95ZM6.18 17.11h-.951v.951h.95v-.95ZM6.18 19.012h-.951v.95h.95v-.95ZM7.13 18.061h-.951v.951h.95v-.95ZM5.228 18.061h-.95v.951h.95v-.95ZM25.19.475h-.95v.95h.95v-.95ZM25.19 2.377h-.95v.95h.95v-.95ZM26.141 1.426h-.95v.95h.95v-.95ZM24.24 1.426h-.95v.95h.95v-.95ZM1.9 13.308H.95v.951h.95v-.95ZM1.9 15.21H.95v.95h.95v-.95ZM2.851 14.259h-.95v.95h.95v-.95ZM.95 14.259H0v.95h.95v-.95ZM22.815 10.932h-.95v.95h.95v-.95ZM13.309 13.784h-.95v.95h.95v-.95ZM21.487 33.413a.614.614 0 0 0-.614-.613H19.03V20.03a.614.614 0 0 0-.614-.614H11.05a.614.614 0 0 0-.614.614V32.8H8.594a.614.614 0 0 0 0 1.227h12.279c.339 0 .614-.274.614-.614Zm-3.684-3.07h-1.842a.614.614 0 1 0 0 1.229h1.842V32.8h-6.139v-3.684h6.14v1.228Zm0-2.455h-6.139v-2.107l.887.592a.614.614 0 0 0 .681 0l1.502-1.001 1.5 1.001a.615.615 0 0 0 .682 0l.887-.592v2.107Zm0-3.582-1.228.818-1.5-1a.614.614 0 0 0-.682 0l-1.501 1-1.228-.818v-.49l.887.592a.614.614 0 0 0 .681 0l1.502-1 1.5 1a.613.613 0 0 0 .682 0l.887-.591v.489Zm0-1.965-1.228.819-1.5-1.001a.614.614 0 0 0-.682 0l-1.501 1-1.228-.818v-1.697h6.14v1.697Z"/></svg>