<svg width="62" height="11" viewBox="0 0 62 11" fill="none" xmlns="http://www.w3.org/2000/svg">
<path d="M5 1L6.76336 3.57295L9.75528 4.45492L7.85317 6.92705L7.93893 10.0451L5 9L2.06107 10.0451L2.14683 6.92705L0.244718 4.45492L3.23664 3.57295L5 1Z" fill="#BDBDBD"/>
<path d="M18 1L19.7634 3.57295L22.7553 4.45492L20.8532 6.92705L20.9389 10.0451L18 9L15.0611 10.0451L15.1468 6.92705L13.2447 4.45492L16.2366 3.57295L18 1Z" fill="#BDBDBD"/>
<path d="M31 1L32.7634 3.57295L35.7553 4.45492L33.8532 6.92705L33.9389 10.0451L31 9L28.0611 10.0451L28.1468 6.92705L26.2447 4.45492L29.2366 3.57295L31 1Z" fill="#BDBDBD"/>
<path d="M44 1L45.7634 3.57295L48.7553 4.45492L46.8532 6.92705L46.9389 10.0451L44 9L41.0611 10.0451L41.1468 6.92705L39.2447 4.45492L42.2366 3.57295L44 1Z" fill="#BDBDBD"/>
<path d="M57 1L58.7634 3.57295L61.7553 4.45492L59.8532 6.92705L59.9389 10.0451L57 9L54.0611 10.0451L54.1468 6.92705L52.2447 4.45492L55.2366 3.57295L57 1Z" fill="#BDBDBD"/>
</svg>
