<svg width="18" height="19" viewBox="0 0 18 19" fill="none" xmlns="http://www.w3.org/2000/svg">
<path d="M14.9891 13.5434C14.2688 13.5434 13.6243 13.8237 13.1314 14.2628L6.37324 10.3853C6.42064 10.1704 6.45855 9.95548 6.45855 9.73124C6.45855 9.50699 6.42064 9.29209 6.37324 9.07719L13.0555 5.23702C13.5674 5.7042 14.2404 5.99384 14.9891 5.99384C16.5626 5.99384 17.8327 4.74182 17.8327 3.1908C17.8327 1.63978 16.5626 0.387756 14.9891 0.387756C13.4157 0.387756 12.1456 1.63978 12.1456 3.1908C12.1456 3.41504 12.1835 3.62994 12.2309 3.84484L5.54862 7.68502C5.03678 7.21784 4.36381 6.92819 3.61502 6.92819C2.0416 6.92819 0.771484 8.18022 0.771484 9.73124C0.771484 11.2823 2.0416 12.5343 3.61502 12.5343C4.36381 12.5343 5.03678 12.2446 5.54862 11.7775L12.2973 15.6643C12.2499 15.8606 12.2214 16.0661 12.2214 16.2717C12.2214 17.776 13.4631 19 14.9891 19C16.5152 19 17.7569 17.776 17.7569 16.2717C17.7569 14.7674 16.5152 13.5434 14.9891 13.5434Z" fill="#ffffff"/>
</svg>
