<svg width="17" height="18" viewBox="0 0 17 18" fill="none" xmlns="http://www.w3.org/2000/svg">
<rect x="11" y="2" width="6" height="2" rx="1" fill="#828282"/>
<rect x="13" y="14" width="4" height="2" rx="1" fill="#828282"/>
<rect x="4" y="10" width="4" height="2" rx="1" transform="rotate(180 4 10)" fill="#828282"/>
<rect y="2" width="10" height="2" rx="1" fill="#828282"/>
<rect y="14" width="11" height="2" rx="1" fill="#828282"/>
<rect x="17" y="10" width="11" height="2" rx="1" transform="rotate(180 17 10)" fill="#828282"/>
<rect x="8" y="6" width="6" height="2" rx="1" transform="rotate(-90 8 6)" fill="#828282"/>
<rect x="10" y="18" width="6" height="2" rx="1" transform="rotate(-90 10 18)" fill="#828282"/>
<rect x="5" y="6" width="6" height="2" rx="1" transform="rotate(90 5 6)" fill="#828282"/>
</svg>
