<svg width="20" height="20" viewBox="0 0 20 20" fill="none" xmlns="http://www.w3.org/2000/svg">
<path d="M6.75252 14.11L5.07252 12.43C4.84625 12.2065 4.55996 12.0536 4.24843 11.9897C3.93689 11.9257 3.6135 11.9537 3.31752 12.07L1.27002 12.8875C0.970921 13.0089 0.714447 13.2161 0.53293 13.4831C0.351414 13.75 0.252975 14.0647 0.250023 14.3875V18.1375C0.251764 18.3571 0.297924 18.574 0.385723 18.7753C0.473522 18.9766 0.601145 19.158 0.760908 19.3087C0.92067 19.4593 1.10927 19.5761 1.31534 19.6519C1.52142 19.7278 1.74072 19.7611 1.96002 19.75C16.3075 18.8575 19.2025 6.7075 19.75 2.0575C19.7754 1.82915 19.7522 1.59801 19.6819 1.37928C19.6116 1.16055 19.4957 0.959194 19.342 0.788452C19.1882 0.61771 19.0001 0.481454 18.7899 0.388648C18.5797 0.295842 18.3523 0.24859 18.1225 0.25H14.5C14.1768 0.250957 13.8612 0.348601 13.5939 0.530372C13.3266 0.712144 13.1197 0.96973 13 1.27L12.1825 3.3175C12.0623 3.6123 12.0317 3.93598 12.0944 4.24811C12.1571 4.56024 12.3103 4.84697 12.535 5.0725L14.215 6.7525C14.215 6.7525 13.2475 13.3 6.75252 14.11Z" fill="#B29A91"/>
</svg>
