<svg width="25" height="25" viewBox="0 0 25 25" fill="none" xmlns="http://www.w3.org/2000/svg">
<rect x="14.6885" y="9.769" width="1" height="7" rx="0.5" transform="rotate(45 14.6885 9.769)" fill="#333333" stroke="#BDBDBD"/>
<rect x="18.9312" y="5.52632" width="1" height="4" rx="0.5" transform="rotate(45 18.9312 5.52632)" fill="#333333" stroke="#BDBDBD"/>
<rect x="21.0527" y="3.40498" width="1" height="1" rx="0.5" transform="rotate(45 21.0527 3.40498)" fill="#333333" stroke="#BDBDBD"/>
<rect x="4.08203" y="20.3756" width="1" height="1" rx="0.5" transform="rotate(45 4.08203 20.3756)" fill="#333333" stroke="#BDBDBD"/>
<rect x="3.37508" y="4.11212" width="1" height="1" rx="0.5" transform="rotate(-45 3.37508 4.11212)" fill="#333333" stroke="#BDBDBD"/>
<rect x="20.3458" y="21.0826" width="1" height="1" rx="0.5" transform="rotate(-45 20.3458 21.0826)" fill="#333333" stroke="#BDBDBD"/>
<rect x="8.32471" y="16.1329" width="1" height="4" rx="0.5" transform="rotate(45 8.32471 16.1329)" fill="#333333" stroke="#BDBDBD"/>
<rect x="5.49617" y="6.2334" width="1" height="4" rx="0.5" transform="rotate(-45 5.49617 6.2334)" fill="#333333" stroke="#BDBDBD"/>
<rect x="16.1031" y="16.84" width="1" height="4" rx="0.5" transform="rotate(-45 16.1031 16.84)" fill="#333333" stroke="#BDBDBD"/>
<rect x="12.0674" y="1.09741" width="1" height="3" rx="0.5" fill="#333333" stroke="#BDBDBD"/>
<rect x="12.0674" y="6.09741" width="1" height="1" rx="0.5" fill="#333333" stroke="#BDBDBD"/>
<rect x="12.0674" y="18.0974" width="1" height="1" rx="0.5" fill="#333333" stroke="#BDBDBD"/>
<rect x="6.06738" y="13.0974" width="1" height="1" rx="0.5" transform="rotate(-90 6.06738 13.0974)" fill="#333333" stroke="#BDBDBD"/>
<rect x="18.0674" y="13.0974" width="1" height="1" rx="0.5" transform="rotate(-90 18.0674 13.0974)" fill="#333333" stroke="#BDBDBD"/>
<rect x="12.0674" y="21.0974" width="1" height="3" rx="0.5" fill="#333333" stroke="#BDBDBD"/>
<rect x="1.06738" y="13.0974" width="1" height="3" rx="0.5" transform="rotate(-90 1.06738 13.0974)" fill="#333333" stroke="#BDBDBD"/>
<rect x="21.0674" y="13.0974" width="1" height="3" rx="0.5" transform="rotate(-90 21.0674 13.0974)" fill="#333333" stroke="#BDBDBD"/>
<rect x="9.73884" y="10.4761" width="1" height="7" rx="0.5" transform="rotate(-45 9.73884 10.4761)" fill="#333333" stroke="#BDBDBD"/>
</svg>
