<svg width="14" height="15" viewBox="0 0 14 15" fill="none" xmlns="http://www.w3.org/2000/svg">
<path opacity="0.5" fill-rule="evenodd" clip-rule="evenodd" d="M4.07829 11.47C3.34788 11.47 2.76169 12.0621 2.76169 12.7932C2.76169 13.5236 3.34788 14.1164 4.07829 14.1164C4.80937 14.1164 5.40151 13.5236 5.40151 12.7932C5.40151 12.0621 4.80937 11.47 4.07829 11.47ZM10.6944 11.47C9.96398 11.47 9.3778 12.0621 9.3778 12.7932C9.3778 13.5236 9.96398 14.1164 10.6944 14.1164C11.4255 14.1164 12.0176 13.5236 12.0176 12.7932C12.0176 12.0621 11.4255 11.47 10.6944 11.47ZM1.43179 0.883789H0.769187C0.403974 0.883789 0.10791 1.17985 0.10791 1.54507C0.10791 1.91028 0.403974 2.20634 0.769187 2.20634H0.918834C1.2321 2.20634 1.51734 2.38678 1.65156 2.66983L3.01866 5.55297C3.51691 6.60376 3.47911 7.83011 2.91709 8.84822C2.81388 9.0381 2.755 9.25511 2.755 9.48469C2.755 10.2151 3.3478 10.8079 4.07822 10.8079H11.3559C11.7213 10.8079 12.0175 10.5117 12.0175 10.1463C12.0175 9.7809 11.7213 9.48469 11.3559 9.48469H4.35808C4.28028 9.48469 4.21545 9.43137 4.19798 9.3587C4.1918 9.33302 4.19655 9.30632 4.20291 9.28068C4.20973 9.25316 4.22012 9.22666 4.2338 9.20183L4.32113 9.04341C4.62105 8.49936 5.19313 8.16147 5.81438 8.16147H9.73562C10.2331 8.16147 10.6672 7.8869 10.8934 7.48068L13.258 3.18751C13.3109 3.09356 13.3414 2.98439 13.3414 2.86861C13.3414 2.50274 13.045 2.20634 12.6791 2.20634H3.52154C3.1394 2.20634 2.79138 1.98645 2.62731 1.64133C2.41626 1.19342 1.95975 0.883789 1.43179 0.883789Z" fill="#333333"/>
</svg>
