<svg width="23" height="23" viewBox="0 0 23 23" fill="none" xmlns="http://www.w3.org/2000/svg">
<path d="M10.2236 13.023V13.751H13.0316V14.83H10.2236V16H8.10461V14.83H6.84361V13.751H8.10461V6.9H12.0436C13.2829 6.9 14.2493 7.16 14.9426 7.68C15.6446 8.2 15.9956 8.96267 15.9956 9.968C15.9956 10.9647 15.6446 11.723 14.9426 12.243C14.2493 12.763 13.2829 13.023 12.0436 13.023H10.2236ZM13.8636 9.981C13.8636 9.539 13.7033 9.201 13.3826 8.967C13.0706 8.733 12.6199 8.616 12.0306 8.616H10.2236V11.372H12.0306C12.6199 11.372 13.0706 11.255 13.3826 11.021C13.7033 10.7783 13.8636 10.4317 13.8636 9.981Z" fill="#BDBDBD"/>
<circle cx="11.5" cy="11.5" r="10.5" stroke="#BDBDBD" stroke-width="2" stroke-dasharray="2 2"/>
</svg>
