<svg width="20" height="16" viewBox="0 0 20 16" fill="none" xmlns="http://www.w3.org/2000/svg">
<rect x="6" y="1" width="2" height="2" rx="1" fill="#333333"/>
<rect x="6" y="4" width="2" height="2" rx="1" fill="#333333"/>
<rect x="6" y="7" width="2" height="2" rx="1" fill="#333333"/>
<rect x="6" y="10" width="2" height="2" rx="1" fill="#333333"/>
<rect x="6" y="13" width="2" height="2" rx="1" fill="#333333"/>
<mask id="path-6-inside-1" fill="white">
<path fill-rule="evenodd" clip-rule="evenodd" d="M3 0C1.34315 0 0 1.34315 0 3V5C0 5.55228 0.474524 5.97928 0.958972 6.24447C1.57933 6.58407 2 7.24291 2 8C2 8.75709 1.57933 9.41593 0.958971 9.75553C0.474523 10.0207 0 10.4477 0 11V13C0 14.6569 1.34315 16 3 16H17C18.6569 16 20 14.6569 20 13V3C20 1.34315 18.6569 0 17 0H3Z"/>
</mask>
<path d="M0.958971 9.75553L-0.00138696 8.00119L0.958971 9.75553ZM0.958972 6.24447L1.91933 4.49013L0.958972 6.24447ZM2 3C2 2.44772 2.44772 2 3 2V-2C0.238577 -2 -2 0.238576 -2 3H2ZM2 5V3H-2V5H2ZM-0.00138696 7.99881C-0.00163867 7.99867 -0.00109188 7.99895 -0.000192097 7.99981C0.000216694 8.0002 0.000569509 8.0006 0.000844885 8.00094C0.00111677 8.00128 0.00123681 8.00147 0.00123595 8.00147C0.00118228 8.00138 0.000663714 8.00046 0.000212406 7.99887C-0.000346321 7.9969 0 7.99675 0 8H4C4 6.48312 3.15489 5.1665 1.91933 4.49013L-0.00138696 7.99881ZM0 8C0 8.00325 -0.000346321 8.0031 0.000212406 8.00113C0.000663714 7.99954 0.00118228 7.99862 0.00123595 7.99853C0.00123681 7.99853 0.00111677 7.99872 0.000844885 7.99906C0.000569508 7.9994 0.000216693 7.9998 -0.000192098 8.00019C-0.00109188 8.00105 -0.00163867 8.00133 -0.00138696 8.00119L1.91933 11.5099C3.15489 10.8335 4 9.51688 4 8H0ZM2 13V11H-2V13H2ZM3 14C2.44772 14 2 13.5523 2 13H-2C-2 15.7614 0.238576 18 3 18V14ZM17 14H3V18H17V14ZM18 13C18 13.5523 17.5523 14 17 14V18C19.7614 18 22 15.7614 22 13H18ZM18 3V13H22V3H18ZM17 2C17.5523 2 18 2.44772 18 3H22C22 0.238577 19.7614 -2 17 -2V2ZM3 2H17V-2H3V2ZM-0.00138696 8.00119C-0.379683 8.20827 -0.836279 8.52029 -1.22033 8.9681C-1.6131 9.42607 -2 10.1154 -2 11H2C2 11.3323 1.85036 11.532 1.81597 11.5721C1.79828 11.5927 1.79544 11.5914 1.81821 11.574C1.84004 11.5573 1.87398 11.5347 1.91933 11.5099L-0.00138696 8.00119ZM-2 5C-2 5.88461 -1.6131 6.57393 -1.22033 7.0319C-0.836279 7.47971 -0.379682 7.79173 -0.00138696 7.99881L1.91933 4.49013C1.87399 4.46531 1.84004 4.44265 1.81821 4.42599C1.79544 4.40861 1.79828 4.40726 1.81597 4.42789C1.85036 4.46799 2 4.66768 2 5H-2Z" fill="#333333" mask="url(#path-6-inside-1)"/>
</svg>
