<svg width="57" height="57" viewBox="0 0 57 57" fill="none" xmlns="http://www.w3.org/2000/svg">
<mask id="path-1-inside-1_7253_11044" fill="white">
<path fill-rule="evenodd" clip-rule="evenodd" d="M42.4262 42.4263C43.2072 41.6452 43.2072 40.3789 42.4262 39.5979L31.1127 28.2844L42.4265 16.9707C43.2075 16.1896 43.2075 14.9233 42.4265 14.1422C41.6454 13.3612 40.3791 13.3612 39.5981 14.1422L28.2843 25.456L16.9703 14.142C16.1893 13.361 14.923 13.361 14.1419 14.142C13.3609 14.9231 13.3609 16.1894 14.1419 16.9705L25.4559 28.2844L14.1422 39.5981C13.3612 40.3791 13.3612 41.6455 14.1422 42.4265C14.9233 43.2076 16.1896 43.2076 16.9706 42.4265L28.2843 31.1129L39.5978 42.4263C40.3788 43.2073 41.6451 43.2073 42.4262 42.4263Z"/>
</mask>
<path fill-rule="evenodd" clip-rule="evenodd" d="M42.4262 42.4263C43.2072 41.6452 43.2072 40.3789 42.4262 39.5979L31.1127 28.2844L42.4265 16.9707C43.2075 16.1896 43.2075 14.9233 42.4265 14.1422C41.6454 13.3612 40.3791 13.3612 39.5981 14.1422L28.2843 25.456L16.9703 14.142C16.1893 13.361 14.923 13.361 14.1419 14.142C13.3609 14.9231 13.3609 16.1894 14.1419 16.9705L25.4559 28.2844L14.1422 39.5981C13.3612 40.3791 13.3612 41.6455 14.1422 42.4265C14.9233 43.2076 16.1896 43.2076 16.9706 42.4265L28.2843 31.1129L39.5978 42.4263C40.3788 43.2073 41.6451 43.2073 42.4262 42.4263Z" fill="#333333"/>
<path d="M31.1127 28.2844L30.4056 27.5773L29.6985 28.2844L30.4056 28.9915L31.1127 28.2844ZM42.4265 16.9707L41.7194 16.2636L42.4265 16.9707ZM39.5981 14.1422L38.8909 13.4351L39.5981 14.1422ZM28.2843 25.456L27.5772 26.1631L28.2843 26.8702L28.9914 26.1631L28.2843 25.456ZM25.4559 28.2844L26.163 28.9915L26.8701 28.2844L26.163 27.5773L25.4559 28.2844ZM14.1422 39.5981L14.8493 40.3052L14.1422 39.5981ZM16.9706 42.4265L17.6777 43.1336L16.9706 42.4265ZM28.2843 31.1129L28.9914 30.4057L28.2843 29.6986L27.5772 30.4057L28.2843 31.1129ZM41.7191 40.305C42.1096 40.6955 42.1096 41.3287 41.7191 41.7192L43.1333 43.1334C44.3049 41.9618 44.3049 40.0623 43.1333 38.8908L41.7191 40.305ZM30.4056 28.9915L41.7191 40.305L43.1333 38.8908L31.8198 27.5773L30.4056 28.9915ZM41.7194 16.2636L30.4056 27.5773L31.8198 28.9915L43.1336 17.6778L41.7194 16.2636ZM41.7194 14.8493C42.1099 15.2399 42.1099 15.873 41.7194 16.2636L43.1336 17.6778C44.3052 16.5062 44.3052 14.6067 43.1336 13.4351L41.7194 14.8493ZM40.3052 14.8493C40.6957 14.4588 41.3289 14.4588 41.7194 14.8493L43.1336 13.4351C41.962 12.2636 40.0625 12.2636 38.8909 13.4351L40.3052 14.8493ZM28.9914 26.1631L40.3052 14.8493L38.8909 13.4351L27.5772 24.7489L28.9914 26.1631ZM16.2632 14.8491L27.5772 26.1631L28.9914 24.7489L17.6774 13.4349L16.2632 14.8491ZM14.849 14.8491C15.2395 14.4586 15.8727 14.4586 16.2632 14.8491L17.6774 13.4349C16.5059 12.2633 14.6064 12.2633 13.4348 13.4349L14.849 14.8491ZM14.849 16.2633C14.4585 15.8728 14.4585 15.2397 14.849 14.8491L13.4348 13.4349C12.2632 14.6065 12.2632 16.506 13.4348 17.6776L14.849 16.2633ZM26.163 27.5773L14.849 16.2633L13.4348 17.6776L24.7488 28.9915L26.163 27.5773ZM14.8493 40.3052L26.163 28.9915L24.7488 27.5773L13.4351 38.891L14.8493 40.3052ZM14.8493 41.7194C14.4588 41.3289 14.4588 40.6957 14.8493 40.3052L13.4351 38.891C12.2635 40.0626 12.2635 41.9621 13.4351 43.1336L14.8493 41.7194ZM16.2635 41.7194C15.873 42.1099 15.2398 42.1099 14.8493 41.7194L13.4351 43.1336C14.6067 44.3052 16.5062 44.3052 17.6777 43.1336L16.2635 41.7194ZM27.5772 30.4057L16.2635 41.7194L17.6777 43.1336L28.9914 31.82L27.5772 30.4057ZM40.3049 41.7192L28.9914 30.4057L27.5772 31.82L38.8906 43.1334L40.3049 41.7192ZM41.7191 41.7192C41.3285 42.1097 40.6954 42.1097 40.3049 41.7192L38.8906 43.1334C40.0622 44.305 41.9617 44.305 43.1333 43.1334L41.7191 41.7192Z" fill="white" mask="url(#path-1-inside-1_7253_11044)"/>
</svg>
