<svg width="20" height="19" viewBox="0 0 20 19" fill="none" xmlns="http://www.w3.org/2000/svg">
<path d="M15.0204 12.9694H14.1171L13.7969 12.6606C14.9563 11.3159 15.5935 9.59912 15.5922 7.8236C15.5922 6.35353 15.1563 4.91647 14.3395 3.69415C13.5228 2.47183 12.362 1.51914 11.0038 0.956571C9.64563 0.393998 8.15114 0.246803 6.70931 0.5336C5.26749 0.820397 3.94309 1.5283 2.90359 2.5678C1.86409 3.6073 1.15618 4.9317 0.869385 6.37353C0.582588 7.81535 0.729783 9.30985 1.29236 10.668C1.85493 12.0262 2.80761 13.187 4.02993 14.0038C5.25225 14.8205 6.68931 15.2564 8.15938 15.2564C10.0004 15.2564 11.6928 14.5817 12.9964 13.4611L13.3052 13.7813V14.6847L17.3156 18.6854C17.7063 19.0751 18.3388 19.0747 18.729 18.6845L19.0203 18.3932C19.4105 18.003 19.4109 17.3705 19.0212 16.9798L15.0204 12.9694ZM8.15938 12.9694C5.31204 12.9694 3.01359 10.6709 3.01359 7.8236C3.01359 4.97626 5.31204 2.6778 8.15938 2.6778C11.0067 2.6778 13.3052 4.97626 13.3052 7.8236C13.3052 10.6709 11.0067 12.9694 8.15938 12.9694Z" fill="white"/>
</svg>
