<svg width="17" height="25" viewBox="0 0 17 25" fill="none" xmlns="http://www.w3.org/2000/svg">
<path d="M7.56738 19.5974C7.56738 20.1497 8.0151 20.5974 8.56738 20.5974C9.11967 20.5974 9.56738 20.1497 9.56738 19.5974L7.56738 19.5974ZM9.27449 4.89031C8.88397 4.49978 8.2508 4.49978 7.86028 4.89031L1.49632 11.2543C1.10579 11.6448 1.10579 12.278 1.49632 12.6685C1.88684 13.059 2.52 13.059 2.91053 12.6685L8.56738 7.01163L14.2242 12.6685C14.6148 13.059 15.2479 13.059 15.6385 12.6685C16.029 12.278 16.029 11.6448 15.6385 11.2543L9.27449 4.89031ZM9.56738 19.5974L9.56738 5.59741L7.56738 5.59741L7.56738 19.5974L9.56738 19.5974Z" fill="#BDBDBD"/>
<line x1="1.56738" y1="1.59741" x2="15.5674" y2="1.59741" stroke="#BDBDBD" stroke-width="2" stroke-linecap="round"/>
<line x1="1.56738" y1="23.5974" x2="15.5674" y2="23.5974" stroke="#BDBDBD" stroke-width="2" stroke-linecap="round"/>
</svg>
