<svg width="18" height="18" viewBox="0 0 18 18" fill="none" xmlns="http://www.w3.org/2000/svg">
<rect x="11.7266" y="2" width="6" height="2" rx="1" fill="#F2F2F2"/>
<rect x="13.7266" y="14" width="4" height="2" rx="1" fill="#F2F2F2"/>
<rect x="4.72656" y="10" width="4" height="2" rx="1" transform="rotate(180 4.72656 10)" fill="#F2F2F2"/>
<rect x="0.726562" y="2" width="10" height="2" rx="1" fill="#F2F2F2"/>
<rect x="0.726562" y="14" width="11" height="2" rx="1" fill="#F2F2F2"/>
<rect x="17.7266" y="10" width="11" height="2" rx="1" transform="rotate(180 17.7266 10)" fill="#F2F2F2"/>
<rect x="8.72656" y="6" width="6" height="2" rx="1" transform="rotate(-90 8.72656 6)" fill="#F2F2F2"/>
<rect x="10.7266" y="18" width="6" height="2" rx="1" transform="rotate(-90 10.7266 18)" fill="#F2F2F2"/>
<rect x="5.72656" y="6" width="6" height="2" rx="1" transform="rotate(90 5.72656 6)" fill="#F2F2F2"/>
</svg>
