<svg width="21" height="15" viewBox="0 0 21 15" fill="none" xmlns="http://www.w3.org/2000/svg">
<path d="M20.0459 0.13916H0.945565C0.539224 0.13916 0.210938 0.428956 0.210938 0.787654V4.03013H20.7805V0.787654C20.7805 0.428956 20.4522 0.13916 20.0459 0.13916ZM0.210938 13.7575C0.210938 14.1162 0.539224 14.406 0.945565 14.406H20.0459C20.4522 14.406 20.7805 14.1162 20.7805 13.7575V5.81348H0.210938V13.7575ZM13.5031 10.0287C13.5031 9.93953 13.5857 9.86657 13.6868 9.86657H17.4747C17.5757 9.86657 17.6583 9.93953 17.6583 10.0287V11.4878C17.6583 11.577 17.5757 11.6499 17.4747 11.6499H13.6868C13.5857 11.6499 13.5031 11.577 13.5031 11.4878V10.0287Z" fill="#4F4F4F"/>
</svg>
