<svg width="14" height="14" viewBox="0 0 14 14" fill="none" xmlns="http://www.w3.org/2000/svg">
<path fill-rule="evenodd" clip-rule="evenodd" d="M4.07829 11.0952C3.34788 11.0952 2.76169 11.6874 2.76169 12.4184C2.76169 13.1489 3.34788 13.7417 4.07829 13.7417C4.80937 13.7417 5.40151 13.1489 5.40151 12.4184C5.40151 11.6874 4.80937 11.0952 4.07829 11.0952ZM10.6944 11.0952C9.96398 11.0952 9.3778 11.6874 9.3778 12.4184C9.3778 13.1489 9.96398 13.7417 10.6944 13.7417C11.4255 13.7417 12.0176 13.1489 12.0176 12.4184C12.0176 11.6874 11.4255 11.0952 10.6944 11.0952ZM1.43179 0.509071H0.769187C0.403974 0.509071 0.10791 0.805135 0.10791 1.17035C0.10791 1.53556 0.403974 1.83162 0.769187 1.83162H0.918834C1.2321 1.83162 1.51734 2.01206 1.65156 2.29511L3.01866 5.17825C3.51691 6.22904 3.47911 7.45539 2.91709 8.4735C2.81388 8.66338 2.755 8.88039 2.755 9.10997C2.755 9.84038 3.3478 10.4332 4.07822 10.4332H11.3559C11.7213 10.4332 12.0175 10.137 12.0175 9.77158C12.0175 9.40618 11.7213 9.10997 11.3559 9.10997H4.35808C4.28028 9.10997 4.21545 9.05665 4.19798 8.98398C4.1918 8.9583 4.19655 8.9316 4.20291 8.90596C4.20973 8.87845 4.22012 8.85194 4.2338 8.82711L4.32113 8.6687C4.62105 8.12464 5.19313 7.78675 5.81438 7.78675H9.73562C10.2331 7.78675 10.6672 7.51219 10.8934 7.10596L13.258 2.81279C13.3109 2.71884 13.3414 2.60967 13.3414 2.49389C13.3414 2.12802 13.045 1.83162 12.6791 1.83162H3.52154C3.1394 1.83162 2.79138 1.61173 2.62731 1.26661C2.41626 0.818704 1.95975 0.509071 1.43179 0.509071Z" fill="#F2F2F2"/>
</svg>
