<svg width="33" height="25" viewBox="0 0 33 25" fill="none" xmlns="http://www.w3.org/2000/svg">
<g id="Group 1211">
<g id="Group">
<g id="Group_2">
<path id="Vector" d="M22.4905 6.26167L22.1885 11.6042L24.7017 5.06689L22.4905 6.26167Z" fill="#DF1313"/>
<path id="Vector_2" d="M26.65 0H22.8437L22.7363 1.91123H25.9153L26.65 0Z" fill="#DF1313"/>
<path id="Vector_3" d="M9.45384 13.2996L14.6788 6.26166L10.0963 1.91123H17.9084L19.3272 0H6.79575L8.70901 2.35205L3.53369 15.8249H20.5665L21.6863 12.9124L17.5112 8.94913L9.45384 13.2996Z" fill="#DF1313"/>
</g>
<g id="Group_3">
<path id="Vector_4" d="M6.73493 20.4368L7.1038 19.468H3.72824L4.48422 17.5021H7.85978L8.23574 16.5282H2.52435L2.99658 17.1089L1.71973 20.4368H6.73493Z" fill="#DF1313"/>
<path id="Vector_5" d="M19.6865 20.4368H24.4595L24.8284 19.468H21.695L21.8886 18.9664H25.022L25.3969 17.9986H22.2635L22.451 17.5021H25.5844L25.9593 16.5282H20.4911L20.9634 17.1089L19.6865 20.4368Z" fill="#DF1313"/>
<path id="Vector_6" d="M25.4214 20.4368H27.061L27.5393 19.1843H30.9331L31.9556 16.5282H26.227L26.6993 17.1089L25.4214 20.4368ZM28.1859 17.5021H29.94L29.6674 18.2155H27.9133L28.1859 17.5021Z" fill="#DF1313"/>
<path id="Vector_7" d="M2.76449 22.0653H6.14005L6.51602 21.0914H0.804622L1.27686 21.6721L0 25H5.0152L5.38408 24.0312H2.00851L2.76449 22.0653Z" fill="#DF1313"/>
<path id="Vector_8" d="M6.78118 21.0914L7.25342 21.6721L5.97656 24.999H7.61621L8.09452 23.7465H9.84868L9.37036 24.999H11.01L12.5098 21.0914H6.78118ZM10.2236 22.7797H8.46947L8.74207 22.0663H10.4962L10.2236 22.7797Z" fill="#DF1313"/>
<path id="Vector_9" d="M21.2242 21.0914L21.6964 21.6721L21.2718 22.7787H20.4479L21.0955 21.0914H18.7607L19.2329 21.6721L17.9561 24.999H19.5957L20.076 23.7465H20.9009L20.4206 24.999H25.454L26.9538 21.0914H21.2242ZM24.1822 24.0312H22.4281L23.1841 22.0653H24.9382L24.1822 24.0312Z" fill="#DF1313"/>
<path id="Vector_10" d="M27.3276 21.0914L26.9526 22.0653H28.6521L27.5272 25H29.1669L30.2917 22.0653H31.9861L32.361 21.0914H27.3276Z" fill="#DF1313"/>
<path id="Vector_11" d="M13.6914 20.4368H15.331L16.0141 18.6522L16.4204 17.5021H18.2101L17.8959 18.3188L17.1521 20.4368H18.7248L20.2246 16.5282H18.9904H18.585H16.765H16.0141H14.496L14.9683 17.1089L13.6914 20.4368Z" fill="#DF1313"/>
<path id="Vector_12" d="M8.25903 18.9664H11.6549L11.4623 19.468H9.72336H8.08675L7.71484 20.4368H11.0904H12.73L14.2298 16.5282H11.895L12.3673 17.1089L11.9416 18.2185H11.8251H10.5168H10.1855L10.834 16.5282H8.50122L8.97346 17.1089L8.71302 17.7929L8.25903 18.9664Z" fill="#DF1313"/>
<path id="Vector_13" d="M14.475 21.0914L13.1403 21.9396L12.1969 24.3971L11.4814 25L11.9658 24.999V25H13.1485L13.8213 24.4335L14.0828 23.7475L14.4587 22.7797L14.7303 22.0653H16.4845L16.2129 22.7797L15.838 23.7475L15.3596 25H16.9993L18.4991 21.0914H14.475Z" fill="#DF1313"/>
</g>
</g>
</g>
</svg>
