<svg width="26" height="26" viewBox="0 0 26 26" fill="none" xmlns="http://www.w3.org/2000/svg">
<path d="M6.07118 17.4756C4.71132 17.4756 3.60498 18.582 3.60498 19.9418C3.60498 21.3017 4.71132 22.408 6.07118 22.408C7.43103 22.408 8.53737 21.3017 8.53737 19.9418C8.53737 18.582 7.43103 17.4756 6.07118 17.4756ZM6.07118 20.9112C5.53666 20.9112 5.10179 20.4764 5.10179 19.9418C5.10179 19.4073 5.53666 18.9725 6.07118 18.9725C6.60569 18.9725 7.04056 19.4073 7.04056 19.9418C7.04056 20.4764 6.60569 20.9112 6.07118 20.9112Z" fill="#828282"/>
<path d="M25.7155 8.45915V4.48193C25.7155 4.06861 25.3804 3.73352 24.9671 3.73352C22.0142 3.73352 19.238 4.88342 17.15 6.97147C16.4697 7.65177 15.8897 8.40542 15.4159 9.2141C15.4813 7.22982 16.0107 5.37433 16.9921 3.69291C17.7821 2.33954 18.5856 1.61254 18.592 1.60675C18.9015 1.33279 18.9303 0.859796 18.6564 0.550306C18.3825 0.240815 17.9094 0.212076 17.5999 0.485943C17.4694 0.601496 14.7952 3.01989 14.0846 7.45035C13.743 7.27104 13.3546 7.169 12.9427 7.169C12.5308 7.169 12.1425 7.27104 11.8008 7.45035C11.0902 3.01984 8.416 0.601447 8.28548 0.485943C7.97659 0.212575 7.50554 0.241364 7.23128 0.549407C6.95696 0.857501 6.9845 1.33014 7.2918 1.60531C7.29983 1.61249 8.10332 2.33949 8.89329 3.69286C9.87474 5.37428 10.4041 7.22977 10.4695 9.21405C9.99569 8.40537 9.41572 7.65167 8.73542 6.97142C6.64737 4.88342 3.87124 3.73352 0.918327 3.73352C0.505008 3.73352 0.169922 4.06861 0.169922 4.48193V8.45915C0.169922 11.0524 1.57213 13.324 3.65789 14.5567C1.60372 15.481 0.169922 17.5471 0.169922 19.9418C0.169922 23.1961 2.81738 25.8436 6.07165 25.8436C8.59906 25.8436 10.7602 24.2465 11.5996 22.0086C11.9863 22.2608 12.4475 22.408 12.9427 22.408C13.4379 22.408 13.8991 22.2608 14.2858 22.0086C15.1253 24.2464 17.2864 25.8436 19.8138 25.8436C23.068 25.8436 25.7155 23.1961 25.7155 19.9418C25.7155 17.5471 24.2817 15.481 22.2275 14.5567C24.3133 13.324 25.7155 11.0524 25.7155 8.45915ZM1.66673 8.45915V5.25932C6.34162 5.62315 10.0837 9.36522 10.4475 14.0401H7.24769C4.17035 14.0402 1.66673 11.5365 1.66673 8.45915ZM6.07165 24.3468C3.64277 24.3468 1.66673 22.3707 1.66673 19.9418C1.66673 17.513 3.64277 15.5369 6.07165 15.5369H7.24769H10.4765V19.9418C10.4765 22.3707 8.50047 24.3468 6.07165 24.3468ZM12.9427 20.9112C12.4082 20.9112 11.9733 20.4763 11.9733 19.9418V9.63525C11.9733 9.10074 12.4082 8.66586 12.9427 8.66586C13.4772 8.66586 13.9121 9.10074 13.9121 9.63525V19.9418C13.9121 20.4763 13.4772 20.9112 12.9427 20.9112ZM19.8138 15.537C22.2426 15.537 24.2187 17.513 24.2187 19.9419C24.2187 22.3708 22.2426 24.3468 19.8138 24.3468C17.3849 24.3468 15.4089 22.3707 15.4089 19.9418V15.5369H18.6377H19.8138V15.537ZM18.6377 14.0402H15.4379C15.8017 9.36527 19.5438 5.6232 24.2187 5.25937V8.4592C24.2187 11.5365 21.7151 14.0402 18.6377 14.0402Z" fill="#828282"/>
<path d="M19.8129 22.408C21.1727 22.408 22.2791 21.3017 22.2791 19.9418C22.2791 18.582 21.1727 17.4756 19.8129 17.4756C18.453 17.4756 17.3467 18.582 17.3467 19.9418C17.3467 21.3017 18.453 22.408 19.8129 22.408ZM19.8129 18.9725C20.3474 18.9725 20.7823 19.4073 20.7823 19.9418C20.7823 20.4764 20.3474 20.9112 19.8129 20.9112C19.2784 20.9112 18.8435 20.4764 18.8435 19.9418C18.8435 19.4073 19.2784 18.9725 19.8129 18.9725Z" fill="#828282"/>
</svg>
