<svg width="25" height="36" viewBox="0 0 25 36" fill="none" xmlns="http://www.w3.org/2000/svg">
<path d="M12.6109 6.57144C11.5342 6.57144 10.6582 7.44817 10.6582 8.5258C10.6582 9.60343 11.5342 10.4802 12.6109 10.4802C13.6876 10.4802 14.5636 9.60343 14.5636 8.5258C14.5636 7.44817 13.6876 6.57144 12.6109 6.57144ZM12.6109 9.54373C12.0501 9.54373 11.5938 9.08706 11.5938 8.52575C11.5938 7.96444 12.0501 7.50777 12.6109 7.50777C13.1717 7.50777 13.628 7.96444 13.628 8.52575C13.628 9.08706 13.1717 9.54373 12.6109 9.54373Z" fill="#828282"/>
<path d="M12.6133 1.90822C12.7363 1.90822 12.857 1.85813 12.944 1.77104C13.031 1.68396 13.0811 1.56317 13.0811 1.44004C13.0811 1.3169 13.031 1.19611 12.944 1.10903C12.857 1.02194 12.7363 0.971848 12.6133 0.971848C12.4903 0.971848 12.3696 1.02194 12.2826 1.10903C12.1956 1.19611 12.1455 1.3169 12.1455 1.44004C12.1455 1.56317 12.1956 1.68396 12.2826 1.77104C12.3696 1.85813 12.4903 1.90822 12.6133 1.90822Z" fill="#828282"/>
<path d="M15.1181 6.48649C15.2379 6.48649 15.3576 6.44075 15.4489 6.34936L16.7733 5.02383C16.956 4.841 16.9561 4.54454 16.7734 4.36171C16.5907 4.17889 16.2945 4.17889 16.1118 4.36171L14.7874 5.68725C14.6047 5.87008 14.6047 6.16653 14.7874 6.34936C14.8787 6.4408 14.9984 6.48649 15.1181 6.48649Z" fill="#828282"/>
<path d="M17.3066 13.6918C17.4263 13.6918 17.546 13.646 17.6373 13.5546C17.82 13.3718 17.82 13.0754 17.6373 12.8925L15.4489 10.7023C15.2663 10.5195 14.9701 10.5195 14.7874 10.7023C14.6047 10.8852 14.6047 11.1816 14.7874 11.3645L16.9758 13.5547C17.0671 13.6461 17.1868 13.6918 17.3066 13.6918Z" fill="#828282"/>
<path d="M12.6133 11.6039C12.3549 11.6039 12.1455 11.8135 12.1455 12.072V14.1085C12.1455 14.3671 12.3549 14.5767 12.6133 14.5767C12.8717 14.5767 13.0811 14.3671 13.0811 14.1085V12.072C13.0811 11.8135 12.8717 11.6039 12.6133 11.6039Z" fill="#828282"/>
<path d="M5.53369 8.99425C5.65672 8.99425 5.77694 8.94416 5.86442 8.85707C5.95143 8.76952 6.00148 8.6492 6.00148 8.5256C6.00148 8.40246 5.95143 8.28214 5.86442 8.19459C5.77741 8.1075 5.65672 8.05788 5.53369 8.05788C5.41019 8.05788 5.2895 8.1075 5.20249 8.19459C5.11548 8.28214 5.06543 8.40246 5.06543 8.5256C5.06543 8.6492 5.11548 8.76952 5.20249 8.85707C5.28997 8.94416 5.41019 8.99425 5.53369 8.99425Z" fill="#828282"/>
<path d="M9.7761 10.7023L7.8538 12.6262C7.67112 12.8091 7.67112 13.1055 7.85384 13.2884C7.9452 13.3798 8.06491 13.4255 8.18462 13.4255C8.30433 13.4255 8.42408 13.3798 8.51539 13.2884L10.4377 11.3644C10.6204 11.1816 10.6204 10.8852 10.4376 10.7023C10.255 10.5194 9.95881 10.5195 9.7761 10.7023Z" fill="#828282"/>
<path d="M7.40334 8.05774C7.14498 8.05774 6.93555 8.26735 6.93555 8.52593C6.93555 8.78451 7.14498 8.99412 7.40334 8.99412H9.06882C9.32718 8.99412 9.53661 8.78451 9.53661 8.52593C9.53661 8.26735 9.32718 8.05774 9.06882 8.05774H7.40334Z" fill="#828282"/>
<path d="M19.691 8.05788C19.5679 8.05788 19.4477 8.1075 19.3602 8.19459C19.2732 8.28214 19.2236 8.40246 19.2236 8.5256C19.2236 8.6492 19.2732 8.76999 19.3602 8.85707C19.4477 8.94416 19.5679 8.99425 19.691 8.99425C19.8145 8.99425 19.9347 8.94416 20.0222 8.85707C20.1092 8.76999 20.1592 8.6492 20.1592 8.5256C20.1592 8.40246 20.1092 8.28214 20.0222 8.19459C19.9351 8.1075 19.8145 8.05788 19.691 8.05788Z" fill="#828282"/>
<path d="M16.1553 8.05774C15.8969 8.05774 15.6875 8.26735 15.6875 8.52593C15.6875 8.78451 15.8969 8.99412 16.1553 8.99412H17.5585C17.8168 8.99412 18.0263 8.78451 18.0263 8.52593C18.0263 8.26735 17.8168 8.05774 17.5585 8.05774H16.1553Z" fill="#828282"/>
<path d="M12.6133 18.2299C12.3549 18.2299 12.1455 18.4395 12.1455 18.6981V24.4749C12.1455 24.7334 12.3549 24.9431 12.6133 24.9431C12.8717 24.9431 13.0811 24.7334 13.0811 24.4749V18.6981C13.0811 18.4395 12.8717 18.2299 12.6133 18.2299Z" fill="#828282"/>
<path d="M24.4548 14.9645L23.5658 14.049L23.7473 12.7853C23.772 12.6134 23.6996 12.442 23.5593 12.3399C23.4189 12.2378 23.2336 12.2219 23.0779 12.2985L21.9332 12.8618L20.7886 12.2985C20.6329 12.2219 20.4476 12.2378 20.3072 12.3399C20.1668 12.4419 20.0944 12.6134 20.1191 12.7853L20.3007 14.049L19.4117 14.9645C19.2907 15.089 19.2486 15.2703 19.3022 15.4355C19.3558 15.6006 19.4964 15.7225 19.6674 15.7522L20.9243 15.9698L21.5196 17.099C21.6005 17.2526 21.7598 17.3487 21.9333 17.3487C22.1068 17.3487 22.2661 17.2526 22.347 17.099L22.9423 15.9698L24.1992 15.7522C24.3702 15.7226 24.5107 15.6006 24.5644 15.4355C24.6179 15.2703 24.5758 15.089 24.4548 14.9645ZM22.5561 15.0864C22.4132 15.1112 22.2898 15.2009 22.2221 15.3292L21.9332 15.8772L21.6444 15.3292C21.5767 15.2009 21.4533 15.1112 21.3104 15.0864L20.7005 14.9808L21.1319 14.5365C21.233 14.4324 21.2802 14.2873 21.2595 14.1436L21.1714 13.5304L21.7269 13.8037C21.857 13.8677 22.0095 13.8677 22.1397 13.8037L22.6951 13.5304L22.6071 14.1436C22.5864 14.2873 22.6335 14.4324 22.7346 14.5365L23.166 14.9808L22.5561 15.0864Z" fill="#828282"/>
<path d="M18.7808 17.2926C17.3415 18.7331 16.5488 20.6483 16.5488 22.6855V24.4749C16.5488 24.7335 16.7583 24.9431 17.0166 24.9431C17.275 24.9431 17.4844 24.7335 17.4844 24.4749V22.6855C17.4844 20.8984 18.1797 19.2183 19.4423 17.9547C19.625 17.7719 19.625 17.4754 19.4423 17.2926C19.2596 17.1097 18.9635 17.1098 18.7808 17.2926Z" fill="#828282"/>
<path d="M5.92177 13.719C5.97538 13.5539 5.93328 13.3726 5.81231 13.248L4.92327 12.3326L5.10482 11.0689C5.12952 10.897 5.0571 10.7255 4.91676 10.6234C4.77638 10.5214 4.59113 10.5054 4.43536 10.5821L3.29067 11.1454L2.14598 10.5821C1.9903 10.5054 1.80501 10.5214 1.66457 10.6234C1.52424 10.7255 1.45182 10.8969 1.47652 11.0689L1.65807 12.3326L0.769079 13.248C0.648154 13.3726 0.606006 13.5539 0.659615 13.719C0.713224 13.8842 0.853796 14.0061 1.02477 14.0357L2.28173 14.2533L2.877 15.3825C2.95793 15.5361 3.11721 15.6322 3.29072 15.6322C3.46422 15.6322 3.6235 15.5361 3.70443 15.3825L4.2997 14.2533L5.55666 14.0357C5.72759 14.0061 5.86811 13.8842 5.92177 13.719ZM3.91354 13.37C3.77062 13.3947 3.64727 13.4844 3.57958 13.6128L3.29072 14.1607L3.00185 13.6128C2.93416 13.4844 2.81081 13.3947 2.6679 13.37L2.05799 13.2643L2.48939 12.8201C2.59048 12.716 2.63758 12.5708 2.61695 12.4271L2.52887 11.8139L3.08433 12.0873C3.21451 12.1513 3.36697 12.1513 3.49715 12.0873L4.05261 11.8139L3.96453 12.4271C3.9439 12.5708 3.991 12.716 4.09209 12.8201L4.52349 13.2643L3.91354 13.37Z" fill="#828282"/>
<path d="M5.78154 15.5763C5.59886 15.7591 5.59886 16.0556 5.78154 16.2385C7.04411 17.5021 7.73944 19.1822 7.73944 20.9692V24.475C7.73944 24.7335 7.94887 24.9432 8.20723 24.9432C8.46559 24.9432 8.67502 24.7335 8.67502 24.475V20.9692C8.67502 18.932 7.88239 17.0168 6.44309 15.5763C6.26046 15.3935 5.96421 15.3935 5.78154 15.5763Z" fill="#828282"/>
<path d="M18.6286 4.00881C19.4572 4.00881 20.1313 3.33415 20.1313 2.50485C20.1313 1.67554 19.4572 1.00089 18.6286 1.00089C17.8 1.00089 17.126 1.67554 17.126 2.50485C17.126 3.33415 17.8 4.00881 18.6286 4.00881ZM18.6286 1.93731C18.9413 1.93731 19.1957 2.19191 19.1957 2.50489C19.1957 2.81788 18.9413 3.07248 18.6286 3.07248C18.3159 3.07248 18.0616 2.81788 18.0616 2.50489C18.0616 2.19191 18.3159 1.93731 18.6286 1.93731Z" fill="#828282"/>
<path d="M9.77494 6.34936C9.8663 6.4408 9.98601 6.48649 10.1057 6.48649C10.2254 6.48649 10.3452 6.44075 10.4365 6.34936C10.6192 6.16653 10.6192 5.87008 10.4365 5.68725L9.11203 4.36171C8.92935 4.17889 8.63315 4.17889 8.45048 4.36171C8.2678 4.54454 8.2678 4.841 8.45052 5.02383L9.77494 6.34936Z" fill="#828282"/>
<path d="M6.59644 4.00881C7.425 4.00881 8.09908 3.33415 8.09908 2.50485C8.09908 1.67554 7.425 1.00089 6.59644 1.00089C5.76789 1.00089 5.09375 1.67554 5.09375 2.50485C5.09375 3.33415 5.76789 4.00881 6.59644 4.00881ZM6.59644 1.93731C6.90916 1.93731 7.1635 2.19191 7.1635 2.50489C7.1635 2.81788 6.90911 3.07248 6.59644 3.07248C6.28372 3.07248 6.02934 2.81788 6.02934 2.50489C6.02934 2.19191 6.28372 1.93731 6.59644 1.93731Z" fill="#828282"/>
<path d="M12.6133 5.44789C12.8717 5.44789 13.0811 5.23828 13.0811 4.9797V3.31281C13.0811 3.05423 12.8717 2.84462 12.6133 2.84462C12.3549 2.84462 12.1455 3.05423 12.1455 3.31281V4.97965C12.1455 5.23828 12.3549 5.44789 12.6133 5.44789Z" fill="#828282"/>
<path d="M12.6133 16.1253C12.4903 16.1253 12.3696 16.1754 12.2826 16.2625C12.1956 16.3496 12.1455 16.4704 12.1455 16.5935C12.1455 16.7171 12.1956 16.8374 12.2826 16.925C12.3696 17.0121 12.4903 17.0617 12.6133 17.0617C12.7363 17.0617 12.857 17.0121 12.944 16.925C13.031 16.8374 13.0811 16.7167 13.0811 16.5935C13.0811 16.4704 13.031 16.3501 12.944 16.2625C12.857 16.1754 12.7363 16.1253 12.6133 16.1253Z" fill="#828282"/>
<rect x="5.21289" y="25.1437" width="16.0004" height="9.94497" stroke="#828282"/>
<line y1="-0.5" x2="13.4677" y2="-0.5" transform="matrix(0.672309 -0.74027 0.672309 0.74027 5.64453 35.5887)" stroke="#828282"/>
<line y1="-0.5" x2="13.4677" y2="-0.5" transform="matrix(0.672309 -0.74027 0.672309 0.74027 8.21777 35.5887)" stroke="#828282"/>
<line y1="-0.5" x2="13.4677" y2="-0.5" transform="matrix(0.672309 -0.74027 0.672309 0.74027 10.9316 35.5887)" stroke="#828282"/>
</svg>
