<svg width="33" height="33" viewBox="0 0 33 33" fill="none" xmlns="http://www.w3.org/2000/svg">
<path d="M31.3933 2.74792C30.3033 2.74792 29.4161 1.84251 29.4161 0.729556C29.4161 0.383076 29.141 0.102264 28.8016 0.102264C28.4624 0.102264 28.1871 0.383076 28.1871 0.729556C28.1871 1.84226 27.3002 2.74767 26.2102 2.74767C25.8708 2.74767 25.5957 3.02873 25.5957 3.37496C25.5957 3.72144 25.8708 4.00226 26.2102 4.00226C27.3002 4.00226 28.1871 4.90791 28.1871 6.02062C28.1871 6.3671 28.4624 6.64791 28.8016 6.64791C29.141 6.64791 29.4161 6.3671 29.4161 6.02062C29.4161 4.90791 30.303 4.0025 31.3933 4.0025C31.7327 4.0025 32.0078 3.72144 32.0078 3.37521C32.0078 3.02873 31.7327 2.74792 31.3933 2.74792ZM28.8016 4.09586C28.6045 3.81995 28.3659 3.57638 28.0957 3.37496C28.3659 3.17379 28.6045 2.93022 28.8016 2.65431C28.9989 2.93022 29.2375 3.17379 29.5078 3.37521C29.2375 3.57638 28.9989 3.81995 28.8016 4.09586Z" fill="#828282"/>
<path d="M14.1946 9.32392H14.4593V9.59419C14.4593 9.94043 14.7344 10.2215 15.0738 10.2215C15.4132 10.2215 15.6883 9.94043 15.6883 9.59419V9.32392H15.9531C16.2925 9.32392 16.5676 9.04311 16.5676 8.69662C16.5676 8.35014 16.2925 8.06933 15.9531 8.06933H15.6883V7.79906C15.6883 7.45282 15.4132 7.17177 15.0738 7.17177C14.7344 7.17177 14.4593 7.45282 14.4593 7.79906V8.06933H14.1946C13.8552 8.06933 13.5801 8.35014 13.5801 8.69662C13.5801 9.04311 13.8552 9.32392 14.1946 9.32392Z" fill="#828282"/>
<path d="M27.0743 17.0183H26.449V16.38C26.449 16.0335 26.1737 15.7527 25.8345 15.7527C25.4951 15.7527 25.22 16.0335 25.22 16.38V17.0183H24.5945C24.2553 17.0183 23.98 17.2994 23.98 17.6456C23.98 17.9921 24.2553 18.2729 24.5945 18.2729H25.22V18.9115C25.22 19.258 25.4951 19.5388 25.8345 19.5388C26.1737 19.5388 26.449 19.258 26.449 18.9115V18.2729H27.0743C27.4137 18.2729 27.6888 17.9921 27.6888 17.6456C27.6888 17.2994 27.4137 17.0183 27.0743 17.0183Z" fill="#828282"/>
<path d="M16.8074 4.83539H17.5279V5.57123C17.5279 5.91771 17.8033 6.19852 18.1424 6.19852C18.4818 6.19852 18.7569 5.91771 18.7569 5.57123V4.83539H19.4778C19.8172 4.83539 20.0922 4.55457 20.0922 4.20809C20.0922 3.86186 19.8172 3.5808 19.4778 3.5808H18.7569V2.84496C18.7569 2.49872 18.4818 2.21767 18.1424 2.21767C17.8033 2.21767 17.5279 2.49872 17.5279 2.84496V3.5808H16.8074C16.468 3.5808 16.1929 3.86186 16.1929 4.20809C16.1929 4.55457 16.468 4.83539 16.8074 4.83539Z" fill="#828282"/>
<path d="M17.2257 11.1799C16.9878 10.9373 16.5942 10.9402 16.3563 11.1801L14.6395 12.9326V12.9329L12.1168 15.5082H12.1165L9.36261 18.3195L6.75847 18.0928C5.92074 18.0205 5.11998 18.4236 4.66776 19.1475C4.66392 19.1538 4.65984 19.1602 4.65624 19.1668L0.630845 26.1565C0.45874 26.4549 0.556434 26.8394 0.849037 27.0151C0.946732 27.0739 1.05403 27.1018 1.15988 27.1018C1.37039 27.1018 1.57562 26.9911 1.69012 26.7921L5.70927 19.8135C5.9157 19.49 6.27671 19.3094 6.65405 19.3428L8.22604 19.4797L6.48603 21.256C6.37081 21.3736 6.30624 21.5331 6.30624 21.6995C6.30624 21.8659 6.37081 22.0254 6.48603 22.143L7.57891 23.2587L6.14806 24.7191C5.90826 24.9641 5.90826 25.3613 6.14806 25.6064C6.38809 25.8512 6.77719 25.8512 7.01722 25.6064L8.88206 23.7027C8.8823 23.7024 8.8823 23.7024 8.88254 23.7022L10.1996 22.3577C10.5829 21.9651 11.2282 21.9661 11.6115 22.3572C11.9888 22.7424 11.9888 23.4047 11.617 23.7931L10.2942 25.1433C10.2927 25.145 10.2913 25.1467 10.2899 25.1482L7.16821 28.3344L4.50285 31.0293C4.26162 31.2731 4.2597 31.67 4.49853 31.9163C4.61879 32.0403 4.77697 32.1023 4.93516 32.1023C5.09142 32.1023 5.24768 32.0417 5.36746 31.9207L8.03521 29.2236L9.38757 27.8431C9.49319 28.1442 9.66361 28.4201 9.89165 28.6529L10.4526 29.2255C10.6454 29.4223 10.8986 29.5206 11.1516 29.5206C11.4048 29.5206 11.6581 29.4223 11.8508 29.2255L14.8597 26.154C15.356 25.6473 15.5944 24.9203 15.4972 24.2087L15.1832 21.9269L17.1085 19.9617L18.2605 18.786C18.261 18.7853 18.2617 18.7846 18.2622 18.7841L21.0338 15.9549C21.1491 15.8373 21.2139 15.6775 21.2139 15.5111C21.2139 15.3448 21.1491 15.1852 21.0338 15.0676L17.2257 11.1799ZM17.2115 18.0823L16.3047 19.008L15.6885 19.6368V13.6361L16.7907 12.5109L17.2115 12.9405V18.0823ZM13.1655 22.2121V16.2117L14.4595 14.8907V20.8914L13.1655 22.2121ZM11.9367 21.06C11.6141 20.8865 11.2601 20.7995 10.9058 20.7995C10.7407 20.7995 10.5757 20.8184 10.414 20.8561V19.0213L11.9367 17.4665V21.06ZM7.78966 21.6995L9.18498 20.2751V21.6191L8.44783 22.3714L7.78966 21.6995ZM14.2802 24.3827C14.3244 24.7061 14.2161 25.0367 13.9905 25.267L11.1516 28.165L10.7606 27.7656C10.5873 27.5887 10.4917 27.3537 10.4917 27.1035C10.4917 26.8538 10.5873 26.6189 10.7606 26.4419L12.4137 24.7546L12.4814 24.6855C12.4907 24.676 12.4999 24.6664 12.509 24.6566L14.0949 23.0377L14.2802 24.3827ZM18.4405 16.828V14.1943L19.7305 15.5111L18.4405 16.828Z" fill="#828282"/>
<path d="M18.5851 8.60573C18.4111 9.81914 18.1749 10.676 18.1694 10.6959C18.076 11.0289 18.2649 11.3761 18.5911 11.4714C18.6475 11.4878 18.7044 11.4957 18.7603 11.4957C19.0277 11.4957 19.2738 11.3163 19.3508 11.0409C19.3616 11.0029 19.6132 10.0975 19.8011 8.78754C19.8503 8.44474 19.618 8.12619 19.2822 8.07596C18.9466 8.02524 18.6343 8.26292 18.5851 8.60573Z" fill="#828282"/>
<path d="M21.5773 8.47903C21.6438 8.50255 21.7115 8.51358 21.7783 8.51358C22.0329 8.51358 22.2711 8.35087 22.3589 8.09138C22.3807 8.02693 22.8966 6.48002 23.0591 3.78634C23.08 3.44035 22.8222 3.14288 22.4835 3.12156C22.1453 3.10049 21.8534 3.36341 21.8325 3.70916C21.6813 6.21489 21.2019 7.66747 21.1971 7.68192C21.087 8.00905 21.2569 8.36582 21.5773 8.47903Z" fill="#828282"/>
<path d="M24.7016 13.037C23.072 13.011 21.8797 13.4389 21.8298 13.457C21.5101 13.5731 21.3432 13.9321 21.4573 14.2585C21.5713 14.5846 21.9229 14.7549 22.2424 14.6386C22.2837 14.6238 26.3842 13.1801 29.4288 16.3075C29.5488 16.4307 29.7068 16.4925 29.8647 16.4925C30.0212 16.4925 30.178 16.4317 30.2978 16.3102C30.5385 16.0659 30.5397 15.6687 30.3006 15.4232C28.8134 13.8956 26.8775 13.0706 24.7016 13.037Z" fill="#828282"/>
<path d="M30.5783 10.6697C27.4752 9.87554 24.8528 10.1804 23.0141 10.678L26.7454 6.86895C26.9852 6.62391 26.9852 6.22671 26.7454 5.98192C26.5054 5.73688 26.1163 5.73688 25.8763 5.98192L20.0477 11.9319C19.8504 12.1333 19.8127 12.4558 19.9563 12.6993C20.115 12.9684 20.4568 13.0762 20.7369 12.9458C20.7575 12.936 20.7777 12.9253 20.7976 12.9133C20.8003 12.9115 20.8031 12.9106 20.8058 12.9088C20.8447 12.8841 24.7496 10.4715 30.2797 11.8866C30.6081 11.9706 30.9425 11.7665 31.025 11.4305C31.1076 11.0946 30.9074 10.7538 30.5783 10.6697Z" fill="#828282"/>
<path d="M21.8784 1.72906C21.9754 1.97042 22.22 2.12945 22.4756 2.11597C22.7282 2.10249 22.9511 1.92852 23.0296 1.68324C23.1072 1.44114 23.0287 1.16621 22.8355 1.00449C22.6288 0.831247 22.3271 0.816055 22.1045 0.967487C21.8638 1.13142 21.7673 1.45658 21.8784 1.72906Z" fill="#828282"/>
<path d="M30.5473 7.56456C29.0236 7.25998 27.1666 8.1426 27.0884 8.18034C26.7819 8.32809 26.6506 8.70128 26.7951 9.01444C26.8997 9.24159 27.1208 9.37464 27.3517 9.37464C27.4391 9.37464 27.5279 9.35553 27.6124 9.31534C28.0464 9.10731 29.3774 8.60915 30.3111 8.79587C30.6443 8.86252 30.9669 8.64076 31.0322 8.30089C31.0975 7.96078 30.8802 7.63121 30.5473 7.56456Z" fill="#828282"/>
<path d="M4.53273 27.1187C4.68036 27.3424 4.95784 27.4483 5.21275 27.3738C5.45015 27.3042 5.62705 27.09 5.65466 26.8393C5.68322 26.5803 5.54424 26.3231 5.31549 26.2084C5.08121 26.091 4.79461 26.1398 4.60955 26.327C4.40408 26.535 4.37287 26.8734 4.53273 27.1187Z" fill="#828282"/>
</svg>
