<svg width="31" height="31" viewBox="0 0 31 31" fill="none" xmlns="http://www.w3.org/2000/svg">
<path d="M15.4313 30.1175C12.8562 30.1175 10.3119 29.4774 8.07482 28.2672C7.88715 28.1653 7.756 27.9926 7.71441 27.7929C7.67282 27.5901 7.72721 27.3874 7.86689 27.2227C8.00125 27.0639 8.21131 26.972 8.4427 26.972C8.58772 26.972 8.73167 27.008 8.85963 27.0759C10.8622 28.1513 13.1366 28.7195 15.4366 28.7195C19.8032 28.7195 23.8871 26.7234 26.361 23.3792L26.4409 23.2703L26.41 23.1385L26.3791 23.0127L26.2586 22.9448L24.0247 21.7365H23.7762L23.6771 21.8594C21.778 24.3218 18.6995 25.7907 15.4409 25.7907C13.6719 25.7907 11.9242 25.3514 10.3866 24.5195C10.2106 24.4247 10.0869 24.2709 10.0368 24.0872C9.98672 23.9034 10.0176 23.7127 10.1232 23.5499C10.2565 23.3462 10.4953 23.2244 10.7641 23.2244C10.9027 23.2244 11.0381 23.2584 11.1575 23.3223C12.4627 24.0233 13.9438 24.3927 15.443 24.3927C18.1312 24.3927 20.7053 23.2044 22.3271 21.2133L22.4146 21.1054L22.3868 20.9696L22.3591 20.8378L22.2333 20.7679L17.9009 18.4243L17.7281 18.5731C17.1118 19.1023 16.3121 19.3939 15.4771 19.3939C15.2575 19.3939 15.0346 19.3729 14.8139 19.331L14.7627 19.322C14.2786 19.2231 13.8318 19.0264 13.4362 18.7378C13.416 18.7229 13.3968 18.7089 13.3776 18.6939C13.3371 18.6629 13.2955 18.63 13.255 18.596C13.2443 18.5871 13.2112 18.5611 13.2112 18.5611L13.1195 18.4822L12.9916 18.4802H12.9031L12.8252 18.5231L3.768 23.4201H3.53341V23.5469L1.51595 24.6384C1.40186 24.7003 1.2739 24.7322 1.14381 24.7322C0.877232 24.7322 0.628782 24.5984 0.49656 24.3827C0.397393 24.221 0.370735 24.0332 0.421918 23.8525C0.473101 23.6718 0.596793 23.521 0.769535 23.4281L2.31035 22.5953L2.1824 22.3407C0.626649 19.3559 0.2769 15.9378 1.19926 12.7175C2.21972 9.14958 4.66157 6.16885 8.07589 4.32349C8.18892 4.26158 8.31794 4.22963 8.44803 4.22963C8.71461 4.22963 8.96199 4.36344 9.09528 4.57913C9.19551 4.7409 9.22111 4.92963 9.16992 5.10937C9.11874 5.29011 8.99505 5.44089 8.82231 5.53376C2.88723 8.74316 0.530682 15.798 3.45664 21.5967L3.54301 21.7685L3.7488 21.7705H3.83624L6.31861 20.4284L6.20132 20.1768C5.23631 18.1696 5.0497 15.9768 5.66176 13.8369C6.36233 11.3874 8.0407 9.33931 10.3866 8.07112C10.5007 8.00921 10.6286 7.97726 10.7587 7.97726C11.0253 7.97726 11.2727 8.11107 11.406 8.32676C11.5051 8.48853 11.5318 8.67725 11.4806 8.857C11.4294 9.03774 11.3057 9.18752 11.133 9.28139C9.1326 10.3628 7.70161 12.1093 7.10342 14.1983C6.60332 15.9458 6.73234 17.7483 7.47556 19.4089L7.55766 19.5926L7.77412 19.5946H7.85836L7.93407 19.5547L12.2899 17.199L12.2334 16.9764C12.1801 16.7537 12.1513 16.522 12.1513 16.2933C12.1513 14.9493 13.1099 13.733 14.4823 13.3356L14.7073 13.2707L14.7094 13.047V0.816521C14.7094 0.431074 15.0442 0.117523 15.4558 0.117523C15.4921 0.117523 15.5305 0.11952 15.5667 0.124513C15.9293 0.172444 16.2022 0.484996 16.2022 0.850473V2.48813L16.5072 2.5071C24.1942 3.01337 30.2178 9.06969 30.2178 16.2943C30.2178 16.6798 29.883 16.9933 29.4714 16.9933C29.433 16.9933 29.3946 16.9903 29.3562 16.9853C28.998 16.9364 28.726 16.6219 28.725 16.2544C28.7037 9.85656 23.3572 4.43533 16.5531 3.91208L16.5403 3.91109H16.2065L16.2033 4.21365V6.81293L16.4891 6.84688C18.9746 7.08454 21.2715 8.17298 22.9605 9.91348C24.6613 11.665 25.5975 13.9317 25.5975 16.2943C25.5975 16.6798 25.2627 16.9933 24.8511 16.9933H24.8329C24.4331 16.9843 24.1068 16.6588 24.1047 16.2684C24.0908 12.2232 20.8513 8.7821 16.568 8.26484L16.5477 8.26285H16.2065L16.2033 8.56541V13.2627L16.4251 13.3336C17.7388 13.714 18.6729 14.8264 18.755 16.1046C18.7582 16.1485 18.7592 16.1895 18.7603 16.2304L18.7614 16.2863L18.7603 16.3293C18.7603 16.3722 18.7582 16.4142 18.756 16.4561L18.755 16.4821C18.7443 16.6568 18.7187 16.8256 18.6793 16.9863L18.627 17.202L30.1421 23.4281C30.4279 23.5819 30.5697 23.8875 30.4972 24.188C30.4727 24.2939 30.4236 24.3897 30.3522 24.4756C30.2573 24.5884 30.1272 24.6683 29.9726 24.7063C29.9491 24.7123 29.9288 24.7153 29.9086 24.7193L29.8937 24.7223C29.8446 24.7302 29.8041 24.7342 29.7678 24.7342C29.7007 24.7342 29.6303 24.7243 29.5588 24.7043C29.4863 24.6853 29.4223 24.6603 29.3626 24.6284L28.0361 23.9114H27.7802L27.6821 24.0422C24.9396 27.8468 20.3587 30.1175 15.4313 30.1175ZM15.4569 14.5968C14.4578 14.5968 13.6442 15.3587 13.6442 16.2943C13.6442 17.23 14.4578 17.9919 15.4569 17.9919C16.4315 17.9919 17.2259 17.2769 17.2664 16.3642L17.2675 16.3453C17.2685 16.3243 17.2696 16.3033 17.2696 16.2824C17.2696 16.2724 17.2685 16.2614 17.2685 16.2494C17.2643 16.1386 17.2504 16.0297 17.2248 15.9239L17.2323 15.9149L17.1768 15.7581C16.9284 15.0631 16.2374 14.5968 15.4569 14.5968Z" fill="#828282"/>
</svg>
