<svg width="16" height="16" viewBox="0 0 16 16" fill="none" xmlns="http://www.w3.org/2000/svg">
<g id="Vector">
<mask id="path-1-inside-1_6265_17376" fill="white">
<path fill-rule="evenodd" clip-rule="evenodd" d="M2.37713 3.10074C2.37698 3.15378 2.36198 3.20573 2.33382 3.25068C2.30567 3.29564 2.26548 3.33182 2.21782 3.35511C2.17016 3.37841 2.11693 3.3879 2.06416 3.3825C2.01139 3.3771 1.96118 3.35703 1.91922 3.32457L0.109173 1.91683C0.0751684 1.89026 0.0476642 1.8563 0.0287478 1.81751C0.00983135 1.77873 0 1.73615 0 1.693C0 1.64985 0.00983135 1.60726 0.0287478 1.56848C0.0476642 1.5297 0.0751684 1.49573 0.109173 1.46917L1.91922 0.0602904C1.96133 0.0277069 2.01175 0.00761247 2.06473 0.00229917C2.1177 -0.00301413 2.17111 0.00666756 2.21885 0.03024C2.26659 0.0538124 2.30674 0.0903264 2.33473 0.135617C2.36271 0.180909 2.37741 0.233153 2.37713 0.286392V1.12717H9.19465V0.28412C9.19464 0.230876 9.20959 0.178701 9.23781 0.133545C9.26602 0.08839 9.30635 0.0520727 9.35421 0.0287365C9.40207 0.00540029 9.45553 -0.00401528 9.50848 0.00156389C9.56144 0.00714306 9.61176 0.0274923 9.6537 0.0602904L11.4626 1.46803C11.4966 1.4946 11.5241 1.52856 11.543 1.56734C11.562 1.60613 11.5718 1.64871 11.5718 1.69186C11.5718 1.73501 11.562 1.77759 11.543 1.81638C11.5241 1.85516 11.4966 1.88912 11.4626 1.91569L9.6537 3.32457C9.61168 3.35742 9.56126 3.37779 9.5082 3.38332C9.45514 3.38886 9.4016 3.37935 9.3537 3.35587C9.3058 3.3324 9.26548 3.29591 9.23735 3.25059C9.20922 3.20527 9.19443 3.15294 9.19465 3.0996V2.26109H2.37713V3.10074ZM1.80901 4.53347C1.35698 4.53347 0.923462 4.71303 0.603829 5.03265C0.284196 5.35226 0.104628 5.78575 0.104628 6.23776V14.1911C0.104628 14.6431 0.284196 15.0766 0.603829 15.3962C0.923462 15.7158 1.35698 15.8954 1.80901 15.8954H9.76278C10.2148 15.8954 10.6483 15.7158 10.968 15.3962C11.2876 15.0766 11.4672 14.6431 11.4672 14.1911V6.23776C11.4672 5.78575 11.2876 5.35226 10.968 5.03265C10.6483 4.71303 10.2148 4.53347 9.76278 4.53347H1.80901ZM15.7156 6.80585H14.8759V13.623H15.7156C15.7687 13.6231 15.8206 13.6382 15.8656 13.6663C15.9105 13.6945 15.9467 13.7346 15.97 13.7823C15.9933 13.83 16.0028 13.8832 15.9974 13.936C15.992 13.9887 15.9719 14.0389 15.9395 14.0809L14.5316 15.8908C14.5051 15.9248 14.4711 15.9523 14.4323 15.9713C14.3935 15.9902 14.3509 16 14.3078 16C14.2646 16 14.2221 15.9902 14.1833 15.9713C14.1445 15.9523 14.1105 15.9248 14.084 15.8908L12.675 14.0809C12.6425 14.0389 12.6224 13.9885 12.617 13.9357C12.6117 13.8828 12.6213 13.8295 12.6447 13.7818C12.6681 13.7341 12.7045 13.6939 12.7496 13.6659C12.7947 13.6378 12.8468 13.6229 12.9 13.623H13.7397V6.80585H12.9C12.8469 6.8057 12.795 6.7907 12.75 6.76255C12.7051 6.73439 12.6689 6.69421 12.6456 6.64655C12.6223 6.5989 12.6128 6.54567 12.6182 6.4929C12.6236 6.44013 12.6437 6.38992 12.6761 6.34797L14.084 4.53802C14.1105 4.50402 14.1445 4.47651 14.1833 4.4576C14.2221 4.43868 14.2646 4.42885 14.3078 4.42885C14.3509 4.42885 14.3935 4.43868 14.4323 4.4576C14.4711 4.47651 14.5051 4.50402 14.5316 4.53802L15.9406 6.34797C15.9731 6.39 15.9932 6.44031 15.9986 6.49318C16.0039 6.54605 15.9943 6.59937 15.9709 6.64706C15.9475 6.69476 15.9111 6.73492 15.866 6.763C15.8209 6.79107 15.7688 6.80591 15.7156 6.80585Z"/>
</mask>
<path d="M2.37713 3.10074L4.37713 3.10645V3.10074H2.37713ZM1.91922 3.32457L0.691381 4.90331L0.695258 4.90631L1.91922 3.32457ZM0.109173 1.91683L-1.12214 3.49286L-1.11867 3.49556L0.109173 1.91683ZM0 1.693H-2H0ZM0.109173 1.46917L-1.11929 -0.109093L-1.12214 -0.106866L0.109173 1.46917ZM1.91922 0.0602904L0.695235 -1.52144L0.690768 -1.51797L1.91922 0.0602904ZM2.37713 0.286392L0.377134 0.276087V0.286392H2.37713ZM2.37713 1.12717H0.377134V3.12717H2.37713V1.12717ZM9.19465 1.12717V3.12717H11.1947V1.12717H9.19465ZM9.19465 0.28412H11.1947V0.283612L9.19465 0.28412ZM9.6537 0.0602904L8.42174 1.63582L8.42538 1.63865L9.6537 0.0602904ZM11.4626 1.46803L12.6939 -0.108005L12.6909 -0.110333L11.4626 1.46803ZM11.4626 1.91569L12.6916 3.49357L12.6939 3.49172L11.4626 1.91569ZM9.6537 3.32457L8.42476 1.74668L8.42173 1.74905L9.6537 3.32457ZM9.19465 3.0996L11.1947 3.10812V3.0996H9.19465ZM9.19465 2.26109H11.1947V0.261091H9.19465V2.26109ZM2.37713 2.26109V0.261091H0.377134V2.26109H2.37713ZM0.104628 6.23776H-1.89537H0.104628ZM0.104628 14.1911H-1.89537H0.104628ZM9.76278 15.8954V17.8954V15.8954ZM11.4672 14.1911H13.4672H11.4672ZM11.4672 6.23776H13.4672H11.4672ZM15.7156 6.80585L15.7179 4.80585H15.7156V6.80585ZM14.8759 6.80585V4.80585H12.8759V6.80585H14.8759ZM14.8759 13.623H12.8759V15.623H14.8759V13.623ZM15.7156 13.623L15.7213 11.623H15.7156V13.623ZM15.9395 14.0809L17.5181 15.3088L17.5211 15.3049L15.9395 14.0809ZM14.5316 15.8908L16.1076 17.1222L16.1103 17.1188L14.5316 15.8908ZM14.084 15.8908L12.5058 17.1194L12.508 17.1222L14.084 15.8908ZM12.675 14.0809L11.0933 15.3049L11.0968 15.3094L12.675 14.0809ZM12.9 13.623L12.8977 15.623H12.9V13.623ZM13.7397 13.623V15.623H15.7397V13.623H13.7397ZM13.7397 6.80585H15.7397V4.80585H13.7397V6.80585ZM12.9 6.80585L12.8943 8.80585H12.9V6.80585ZM12.6761 6.34797L11.0975 5.12004L11.0945 5.12392L12.6761 6.34797ZM14.084 4.53802L12.508 3.30662L12.5053 3.31009L14.084 4.53802ZM14.5316 4.53802L16.1098 3.30947L16.1076 3.30662L14.5316 4.53802ZM15.9406 6.34797L17.5223 5.12392L17.5188 5.11943L15.9406 6.34797ZM0.377142 3.09503C0.378057 2.77456 0.468695 2.46075 0.638796 2.18914L4.02885 4.31223C4.25526 3.95071 4.37591 3.53301 4.37713 3.10645L0.377142 3.09503ZM0.638796 2.18914C0.808892 1.91754 1.05164 1.69901 1.33952 1.55829L3.09613 5.15194C3.47933 4.96463 3.80244 4.67375 4.02885 4.31223L0.638796 2.18914ZM1.33952 1.55829C1.62741 1.41757 1.94894 1.36027 2.26771 1.39288L1.86061 5.37211C2.28492 5.41552 2.71292 5.33925 3.09613 5.15194L1.33952 1.55829ZM2.26771 1.39288C2.58648 1.4255 2.88975 1.54671 3.14319 1.74282L0.695258 4.90631C1.0326 5.16735 1.43629 5.3287 1.86061 5.37211L2.26771 1.39288ZM3.14706 1.74583L1.33701 0.338088L-1.11867 3.49556L0.691385 4.9033L3.14706 1.74583ZM1.34048 0.340793C1.54589 0.501275 1.71205 0.706451 1.82632 0.940746L-1.76883 2.69428C-1.61672 3.00614 -1.39556 3.27924 -1.12214 3.49286L1.34048 0.340793ZM1.82632 0.940746C1.9406 1.17505 2 1.43231 2 1.693H-2C-2 2.03999 -1.92094 2.38241 -1.76883 2.69428L1.82632 0.940746ZM2 1.693C2 1.95369 1.9406 2.21095 1.82632 2.44525L-1.76883 0.691714C-1.92094 1.00358 -2 1.34601 -2 1.693H2ZM1.82632 2.44525C1.71205 2.67954 1.54589 2.88472 1.34048 3.0452L-1.12214 -0.106866C-1.39556 0.106749 -1.61672 0.379853 -1.76883 0.691714L1.82632 2.44525ZM1.33763 3.04742L3.14768 1.63855L0.690768 -1.51797L-1.11928 -0.109091L1.33763 3.04742ZM3.14321 1.64202C2.88885 1.83885 2.58431 1.96022 2.26431 1.99232L1.86514 -1.98772C1.43919 -1.945 1.03381 -1.78343 0.69524 -1.52144L3.14321 1.64202ZM2.26431 1.99232C1.94432 2.02441 1.62174 1.96593 1.33337 1.82354L3.10432 -1.76306C2.72047 -1.9526 2.29109 -2.03044 1.86514 -1.98772L2.26431 1.99232ZM1.33337 1.82354C1.045 1.68115 0.802433 1.46058 0.633358 1.18697L4.0361 -0.915736C3.81105 -1.27993 3.48818 -1.57353 3.10432 -1.76306L1.33337 1.82354ZM0.633358 1.18697C0.464277 0.913353 0.375503 0.597723 0.377161 0.276087L4.37711 0.296698C4.37931 -0.131417 4.26115 -0.551536 4.0361 -0.915736L0.633358 1.18697ZM0.377134 0.286392V1.12717H4.37713V0.286392H0.377134ZM2.37713 3.12717H9.19465V-0.872827H2.37713V3.12717ZM11.1947 1.12717V0.28412H7.19465V1.12717H11.1947ZM11.1947 0.283612C11.1947 0.605293 11.1044 0.920502 10.934 1.19329L7.54165 -0.926194C7.31479 -0.5631 7.19455 -0.14354 7.19465 0.284628L11.1947 0.283612ZM10.934 1.19329C10.7635 1.46606 10.5199 1.68545 10.2308 1.82642L8.47767 -1.76895C8.09284 -1.58131 7.7685 -1.28928 7.54165 -0.926194L10.934 1.19329ZM10.2308 1.82642C9.94166 1.96738 9.61877 2.02425 9.29892 1.99055L9.71804 -1.98743C9.29229 -2.03228 8.86249 -1.95658 8.47767 -1.76895L10.2308 1.82642ZM9.29892 1.99055C8.97907 1.95685 8.67512 1.83394 8.42174 1.63582L10.8857 -1.51523C10.5484 -1.77895 10.1438 -1.94257 9.71804 -1.98743L9.29892 1.99055ZM8.42538 1.63865L10.2343 3.04639L12.6909 -0.110333L10.882 -1.51807L8.42538 1.63865ZM10.2313 3.04406C10.0259 2.88359 9.85975 2.67842 9.74546 2.44411L13.3406 0.690578C13.1885 0.3787 12.9673 0.105602 12.6939 -0.108003L10.2313 3.04406ZM9.74546 2.44411C9.63118 2.2098 9.57179 1.95254 9.57179 1.69186H13.5718C13.5718 1.34488 13.4927 1.00245 13.3406 0.690578L9.74546 2.44411ZM9.57179 1.69186C9.57179 1.43118 9.63118 1.17392 9.74546 0.93961L13.3406 2.69314C13.4927 2.38127 13.5718 2.03884 13.5718 1.69186H9.57179ZM9.74546 0.93961C9.85975 0.705301 10.0259 0.50013 10.2313 0.339656L12.6939 3.49172C12.9673 3.27812 13.1885 3.00502 13.3406 2.69314L9.74546 0.93961ZM10.2337 0.337806L8.42476 1.74668L10.8826 4.90245L12.6916 3.49357L10.2337 0.337806ZM8.42173 1.74905C8.67556 1.55057 8.98015 1.42757 9.30062 1.39413L9.71579 5.37252C10.1424 5.32801 10.5478 5.16428 10.8857 4.90008L8.42173 1.74905ZM9.30062 1.39413C9.62107 1.36068 9.94449 1.41814 10.2338 1.55994L8.47357 5.1518C8.85872 5.34055 9.28922 5.41704 9.71579 5.37252L9.30062 1.39413ZM10.2338 1.55994C10.5232 1.70175 10.7668 1.92216 10.9367 2.19595L7.53802 4.30523C7.76419 4.66966 8.08841 4.96305 8.47357 5.1518L10.2338 1.55994ZM10.9367 2.19595C11.1066 2.46975 11.196 2.78587 11.1946 3.10812L7.19467 3.09108C7.19284 3.52001 7.31184 3.94078 7.53802 4.30523L10.9367 2.19595ZM11.1947 3.0996V2.26109H7.19465V3.0996H11.1947ZM9.19465 0.261091H2.37713V4.26109H9.19465V0.261091ZM0.377134 2.26109V3.10074H4.37713V2.26109H0.377134ZM1.80901 2.53347C0.826581 2.53347 -0.115631 2.92372 -0.810345 3.61839L2.018 6.4469C1.96256 6.50234 1.88737 6.53347 1.80901 6.53347V2.53347ZM-0.810345 3.61839C-1.50506 4.31307 -1.89537 5.25528 -1.89537 6.23776H2.10463C2.10463 6.31622 2.07346 6.39145 2.018 6.4469L-0.810345 3.61839ZM-1.89537 6.23776V14.1911H2.10463V6.23776H-1.89537ZM-1.89537 14.1911C-1.89537 15.1736 -1.50506 16.1158 -0.810345 16.8105L2.018 13.982C2.07345 14.0374 2.10463 14.1126 2.10463 14.1911H-1.89537ZM-0.810345 16.8105C-0.115632 17.5051 0.82658 17.8954 1.80901 17.8954V13.8954C1.88738 13.8954 1.96256 13.9265 2.018 13.982L-0.810345 16.8105ZM1.80901 17.8954H9.76278V13.8954H1.80901V17.8954ZM9.76278 17.8954C10.7452 17.8954 11.6874 17.5051 12.3821 16.8105L9.55379 13.982C9.60923 13.9265 9.68441 13.8954 9.76278 13.8954V17.8954ZM12.3821 16.8105C13.0769 16.1158 13.4672 15.1736 13.4672 14.1911H9.46716C9.46716 14.1126 9.49833 14.0374 9.55379 13.982L12.3821 16.8105ZM13.4672 14.1911V6.23776H9.46716V14.1911H13.4672ZM13.4672 6.23776C13.4672 5.25528 13.0769 4.31307 12.3821 3.61839L9.55379 6.4469C9.49833 6.39145 9.46716 6.31622 9.46716 6.23776H13.4672ZM12.3821 3.61839C11.6874 2.92372 10.7452 2.53347 9.76278 2.53347V6.53347C9.68441 6.53347 9.60923 6.50234 9.55379 6.4469L12.3821 3.61839ZM9.76278 2.53347H1.80901V6.53347H9.76278V2.53347ZM15.7156 4.80585H14.8759V8.80585H15.7156V4.80585ZM12.8759 6.80585V13.623H16.8759V6.80585H12.8759ZM14.8759 15.623H15.7156V11.623H14.8759V15.623ZM15.7099 15.623C15.3895 15.6221 15.0757 15.5315 14.8041 15.3614L16.927 11.9712C16.5655 11.7448 16.1478 11.6242 15.7213 11.623L15.7099 15.623ZM14.8041 15.3614C14.5325 15.1913 14.314 14.9486 14.1732 14.6607L17.7668 12.9039C17.5794 12.5207 17.2885 12.1976 16.927 11.9712L14.8041 15.3614ZM14.1732 14.6607C14.0325 14.3727 13.9752 14.0512 14.0078 13.7324L17.987 14.1395C18.0304 13.7152 17.9541 13.2872 17.7668 12.9039L14.1732 14.6607ZM14.0078 13.7324C14.0404 13.4135 14.1617 13.1102 14.3578 12.8568L17.5211 15.3049C17.7822 14.9676 17.9436 14.5639 17.987 14.1395L14.0078 13.7324ZM14.3608 12.853L12.953 14.6629L16.1103 17.1188L17.5181 15.3088L14.3608 12.853ZM12.9557 14.6594C13.1162 14.454 13.3214 14.2879 13.5556 14.1736L15.309 17.7689C15.6209 17.6168 15.894 17.3956 16.1076 17.1222L12.9557 14.6594ZM13.5556 14.1736C13.7899 14.0594 14.0472 14 14.3078 14V18C14.6547 18 14.9971 17.921 15.309 17.7689L13.5556 14.1736ZM14.3078 14C14.5684 14 14.8257 14.0594 15.06 14.1736L13.3066 17.7689C13.6185 17.921 13.9609 18 14.3078 18V14ZM15.06 14.1736C15.2943 14.2879 15.4994 14.454 15.6599 14.6594L12.508 17.1222C12.7216 17.3956 12.9947 17.6168 13.3066 17.7689L15.06 14.1736ZM15.6621 14.6623L14.2532 12.8523L11.0968 15.3094L12.5058 17.1194L15.6621 14.6623ZM14.2567 12.8568C14.4532 13.1107 14.5745 13.4147 14.6069 13.7341L10.6272 14.1373C10.6703 14.5624 10.8318 14.967 11.0933 15.3049L14.2567 12.8568ZM14.6069 13.7341C14.6392 14.0535 14.5813 14.3756 14.4397 14.6638L10.8497 12.8998C10.6612 13.2834 10.5842 13.7121 10.6272 14.1373L14.6069 13.7341ZM14.4397 14.6638C14.2982 14.9519 14.0786 15.1945 13.806 15.3641L11.6932 11.9676C11.3304 12.1933 11.0381 12.5163 10.8497 12.8998L14.4397 14.6638ZM13.806 15.3641C13.5334 15.5337 13.2187 15.6234 12.8977 15.623L12.9023 11.623C12.475 11.6225 12.0561 11.7419 11.6932 11.9676L13.806 15.3641ZM12.9 15.623H13.7397V11.623H12.9V15.623ZM15.7397 13.623V6.80585H11.7397V13.623H15.7397ZM13.7397 4.80585H12.9V8.80585H13.7397V4.80585ZM12.9057 4.80586C13.2261 4.80678 13.5399 4.8974 13.8115 5.06746L11.6886 8.45763C12.0501 8.684 12.4677 8.80463 12.8943 8.80585L12.9057 4.80586ZM13.8115 5.06746C14.0831 5.23753 14.3016 5.48025 14.4424 5.76817L10.8488 7.52493C11.0361 7.90817 11.3271 8.23125 11.6886 8.45763L13.8115 5.06746ZM14.4424 5.76817C14.5831 6.0561 14.6404 6.37768 14.6078 6.69647L10.6286 6.28932C10.5852 6.71366 10.6614 7.14169 10.8488 7.52493L14.4424 5.76817ZM14.6078 6.69647C14.5752 7.0153 14.4539 7.3186 14.2578 7.57202L11.0945 5.12392C10.8334 5.46125 10.672 5.86495 10.6286 6.28932L14.6078 6.69647ZM14.2548 7.57589L15.6626 5.76594L12.5053 3.31009L11.0975 5.12005L14.2548 7.57589ZM15.6599 5.76941C15.4994 5.97481 15.2943 6.14095 15.06 6.25521L13.3066 2.65998C12.9947 2.81208 12.7216 3.03322 12.508 3.30662L15.6599 5.76941ZM15.06 6.25521C14.8257 6.36947 14.5685 6.42885 14.3078 6.42885V2.42885C13.9608 2.42885 13.6184 2.5079 13.3066 2.65998L15.06 6.25521ZM14.3078 6.42885C14.0471 6.42885 13.7899 6.36946 13.5556 6.25521L15.309 2.65998C14.9972 2.5079 14.6548 2.42885 14.3078 2.42885V6.42885ZM13.5556 6.25521C13.3214 6.14096 13.1162 5.97482 12.9557 5.76941L16.1076 3.30662C15.894 3.03321 15.6209 2.81207 15.309 2.65998L13.5556 6.25521ZM12.9534 5.76656L14.3624 7.57651L17.5188 5.11943L16.1098 3.30948L12.9534 5.76656ZM14.3589 7.57201C14.1624 7.3181 14.0411 7.01416 14.0087 6.69476L17.9884 6.2916C17.9453 5.86645 17.7838 5.46189 17.5223 5.12393L14.3589 7.57201ZM14.0087 6.69476C13.9764 6.37536 14.0343 6.05327 14.1759 5.76509L17.7659 7.52903C17.9544 7.14546 18.0314 6.71674 17.9884 6.2916L14.0087 6.69476ZM14.1759 5.76509C14.3174 5.47694 14.537 5.2343 14.8096 5.06474L16.9224 8.46125C17.2852 8.23555 17.5775 7.91258 17.7659 7.52903L14.1759 5.76509ZM14.8096 5.06474C15.0822 4.89518 15.3969 4.80549 15.7179 4.80586L15.7133 8.80585C16.1406 8.80634 16.5595 8.68695 16.9224 8.46125L14.8096 5.06474Z" fill="black" mask="url(#path-1-inside-1_6265_17376)"/>
</g>
</svg>
