<svg width="29" height="35" viewBox="0 0 29 35" fill="none" xmlns="http://www.w3.org/2000/svg">
<path d="M4.04804 11.9537C4.0238 12.1158 4.00764 12.2793 4.00764 12.4437C4.00764 14.2674 5.48344 15.7523 7.30336 15.7694C7.85994 16.8873 8.90132 17.7362 10.1138 18.0256C10.4931 18.1159 10.879 18.1549 11.2617 18.1464C11.4675 18.1326 11.6647 18.2196 11.8182 18.3693C11.9893 18.5356 12.0877 18.769 12.0877 19.009V20.5238H13.0383V19.0086C13.0383 18.5128 12.8349 18.0313 12.4803 17.6872C12.1405 17.3574 11.6947 17.1844 11.2341 17.1958C10.9327 17.2038 10.6328 17.1725 10.3343 17.1012C9.49687 16.9011 8.76681 16.3545 8.311 15.6244C9.67035 15.2057 10.6618 13.9385 10.6618 12.4437H9.71123C9.71123 13.7541 8.64513 14.8202 7.33473 14.8202C6.02433 14.8202 4.95824 13.7541 4.95824 12.4437C4.95824 12.4024 4.96822 12.3629 4.9706 12.3216C5.27146 12.3986 5.58468 12.4437 5.90884 12.4437V11.4931C4.33607 11.4931 3.05704 10.2141 3.05704 8.64133C3.05704 7.06857 4.33607 5.78954 5.90884 5.78954C7.4816 5.78954 8.76063 7.06857 8.76063 8.64133H9.71123C9.71123 7.06049 8.74067 5.70256 7.36468 5.12982C7.88988 4.36412 8.7573 3.88834 9.71123 3.88834C11.284 3.88834 12.563 5.16737 12.563 6.74014H13.5136C13.5136 5.34228 12.7531 4.12171 11.6267 3.46105C12.2935 2.26662 13.5474 1.51185 14.9395 1.51185C17.0361 1.51185 18.7419 3.21769 18.7419 5.31424C18.7419 5.92975 18.5998 6.51579 18.3198 7.05668L19.1635 7.49396C19.5095 6.82616 19.6925 6.07234 19.6925 5.31424C19.6925 4.84702 19.6222 4.39644 19.4957 3.97009C19.7144 3.91733 19.9382 3.88834 20.1678 3.88834C21.1113 3.88834 21.9901 4.36459 22.5172 5.12887C21.1398 5.70066 20.1678 7.05906 20.1678 8.64133H21.1184C21.1184 7.06857 22.3974 5.78954 23.9702 5.78954C25.543 5.78954 26.822 7.06857 26.822 8.64133C26.822 9.61094 26.331 10.4926 25.543 11.0145C25.2911 10.486 24.9056 10.0235 24.4046 9.68509L23.8728 10.4722C24.5291 10.9161 24.9208 11.6528 24.9208 12.4437C24.9208 13.7541 23.8547 14.8202 22.5443 14.8202C21.2339 14.8202 20.1678 13.7541 20.1678 12.4437H19.2172C19.2172 13.9385 20.2087 15.2057 21.568 15.6239C21.1117 16.354 20.3817 16.9006 19.5442 17.1007C19.2457 17.172 18.9439 17.2053 18.6449 17.1953C18.1858 17.1853 17.7386 17.3569 17.3982 17.6867C17.0441 18.0313 16.8407 18.5128 16.8407 19.0086V20.5238H17.7913V19.0086C17.7913 18.7685 17.8897 18.5352 18.0608 18.3688C18.2148 18.2191 18.4216 18.134 18.6179 18.1459C18.9976 18.1544 19.3855 18.1164 19.7652 18.0252C20.9782 17.7357 22.0191 16.8873 22.5757 15.7689C24.3956 15.7523 25.8714 14.2674 25.8714 12.4437C25.8714 12.2764 25.8548 12.1124 25.8305 11.9499C27.0197 11.2816 27.7726 10.0287 27.7726 8.64133C27.7726 6.54479 26.0667 4.83894 23.9702 4.83894C23.8005 4.83894 23.6346 4.85415 23.4711 4.87554C22.801 3.69347 21.5376 2.93774 20.1678 2.93774C19.8137 2.93774 19.4691 2.99098 19.135 3.08556C18.3346 1.58552 16.7552 0.561249 14.9395 0.561249C13.1652 0.561249 11.5739 1.54322 10.7536 3.08651C10.4218 2.99193 10.0729 2.93774 9.71123 2.93774C8.32526 2.93774 7.07379 3.68824 6.40505 4.87506C6.2425 4.85367 6.07757 4.83894 5.90884 4.83894C3.81229 4.83894 2.10645 6.54479 2.10645 8.64133C2.10645 10.062 2.89069 11.3011 4.04804 11.9537Z" fill="#828282"/>
<path d="M15.4157 8.16605C13.3191 8.16605 11.6133 9.87189 11.6133 11.9684H12.5639C12.5639 10.3957 13.8429 9.11664 15.4157 9.11664V8.16605Z" fill="#828282"/>
<path d="M27.7738 15.2955H26.8232V16.2461H27.7738V15.2955Z" fill="#828282"/>
<path d="M27.7738 17.1966H26.8232V18.1472H27.7738V17.1966Z" fill="#828282"/>
<path d="M28.724 16.2462H27.7734V17.1968H28.724V16.2462Z" fill="#828282"/>
<path d="M26.8227 16.2462H25.8721V17.1968H26.8227V16.2462Z" fill="#828282"/>
<path d="M4.95939 0.561249H4.00879V1.51185H4.95939V0.561249Z" fill="#828282"/>
<path d="M4.95939 2.46242H4.00879V3.41302H4.95939V2.46242Z" fill="#828282"/>
<path d="M5.90958 1.5119H4.95898V2.4625H5.90958V1.5119Z" fill="#828282"/>
<path d="M4.00919 1.5119H3.05859V2.4625H4.00919V1.5119Z" fill="#828282"/>
<path d="M6.38517 17.672H5.43457V18.6226H6.38517V17.672Z" fill="#828282"/>
<path d="M6.38517 19.5733H5.43457V20.5239H6.38517V19.5733Z" fill="#828282"/>
<path d="M7.33536 18.6226H6.38477V19.5732H7.33536V18.6226Z" fill="#828282"/>
<path d="M5.434 18.6226H4.4834V19.5732H5.434V18.6226Z" fill="#828282"/>
<path d="M25.3969 1.03656H24.4463V1.98716H25.3969V1.03656Z" fill="#828282"/>
<path d="M25.3969 2.93773H24.4463V3.88833H25.3969V2.93773Z" fill="#828282"/>
<path d="M26.3471 1.98708H25.3965V2.93767H26.3471V1.98708Z" fill="#828282"/>
<path d="M24.4467 1.98708H23.4961V2.93767H24.4467V1.98708Z" fill="#828282"/>
<path d="M2.10685 13.8697H1.15625V14.8203H2.10685V13.8697Z" fill="#828282"/>
<path d="M2.10685 15.7708H1.15625V16.7214H2.10685V15.7708Z" fill="#828282"/>
<path d="M3.05704 14.8202H2.10645V15.7708H3.05704V14.8202Z" fill="#828282"/>
<path d="M1.15665 14.8202H0.206055V15.7708H1.15665V14.8202Z" fill="#828282"/>
<path d="M23.0209 11.4932H22.0703V12.4438H23.0209V11.4932Z" fill="#828282"/>
<path d="M13.5151 14.345H12.5645V15.2956H13.5151V14.345Z" fill="#828282"/>
<path d="M21.6929 33.9747C21.6929 33.6356 21.4181 33.3608 21.079 33.3608H19.2372C19.2372 29.5127 19.2372 24.1032 19.2372 20.5911C19.2372 20.252 18.9624 19.9772 18.6233 19.9772C14.8763 19.9772 14.7891 19.9772 11.2562 19.9772C10.9171 19.9772 10.6422 20.252 10.6422 20.5911V33.3608H8.80045C8.46135 33.3608 8.18652 33.6356 8.18652 33.9747C8.18652 34.3138 8.46135 34.5886 8.80045 34.5886H21.079C21.4181 34.5886 21.6929 34.3138 21.6929 33.9747ZM18.0094 30.9051H16.1676C15.8285 30.9051 15.5536 31.1799 15.5536 31.519C15.5536 31.8581 15.8285 32.1329 16.1676 32.1329H18.0094V33.3608H11.8701V29.6772H18.0094V30.9051ZM18.0094 28.4494H11.8701V26.3426L12.7574 26.9342C12.9636 27.0716 13.2322 27.0716 13.4385 26.9342L14.9397 25.9332L16.441 26.9342C16.5441 27.0028 16.6628 27.0373 16.7815 27.0373C16.9002 27.0373 17.0189 27.0028 17.122 26.9342L18.0094 26.3426V28.4494ZM18.0094 24.867L16.7815 25.6855L15.2803 24.6847C15.0743 24.5473 14.8054 24.5473 14.5992 24.6847L13.0979 25.6855L11.8701 24.867V24.378L12.7574 24.9696C12.9636 25.1071 13.2322 25.1071 13.4385 24.9696L14.9397 23.9689L16.441 24.9696C16.5441 25.0385 16.6628 25.0728 16.7815 25.0728C16.9002 25.0728 17.0189 25.0385 17.122 24.9696L18.0094 24.378V24.867ZM18.0094 22.9024L16.7815 23.7209L15.2803 22.7202C15.0743 22.5828 14.8054 22.5828 14.5992 22.7202L13.0979 23.7209L11.8701 22.9024V21.205H18.0094V22.9024Z" fill="#828282"/>
</svg>
