<svg width="30" height="34" viewBox="0 0 30 34" fill="none" xmlns="http://www.w3.org/2000/svg">
<path d="M29.5591 15.3199C29.5591 15.0545 29.3443 14.8397 29.079 14.8397H21.0133C20.7483 14.8397 20.5332 15.0545 20.5332 15.3199C20.5332 15.5849 20.7483 15.8 21.0133 15.8H29.079C29.3441 15.8 29.5591 15.5849 29.5591 15.3199Z" fill="#828282"/>
<path d="M0.0419922 15.3199C0.0419922 15.5849 0.256806 15.8 0.522134 15.8H8.58777C8.8531 15.8 9.06791 15.5849 9.06791 15.3199C9.06791 15.0545 8.8531 14.8397 8.58777 14.8397H0.522134C0.256806 14.8397 0.0419922 15.0545 0.0419922 15.3199Z" fill="#828282"/>
<path d="M24.5577 4.88403L18.8545 10.5872C18.667 10.7748 18.667 11.0789 18.8545 11.2662C19.0421 11.4537 19.3459 11.4537 19.5335 11.2662L25.2367 5.56298C25.4242 5.37542 25.4242 5.07133 25.2367 4.88403C25.0494 4.69647 24.7453 4.69647 24.5577 4.88403Z" fill="#828282"/>
<path d="M15.2808 9.10703V1.04139C15.2808 0.776312 15.0658 0.561249 14.8005 0.561249C14.5354 0.561249 14.3203 0.776312 14.3203 1.04139V9.10703C14.3203 9.37211 14.5354 9.58717 14.8005 9.58717C15.0658 9.58717 15.2808 9.37236 15.2808 9.10703Z" fill="#828282"/>
<path d="M14.3203 21.5325V29.5981C14.3203 29.8632 14.5354 30.0782 14.8005 30.0782C15.0658 30.0782 15.2808 29.8632 15.2808 29.5981V21.5325C15.2808 21.2674 15.0658 21.0523 14.8005 21.0523C14.5354 21.0523 14.3203 21.2674 14.3203 21.5325Z" fill="#828282"/>
<path d="M10.7475 10.5872L5.04429 4.88403C4.85673 4.69647 4.55264 4.69647 4.36509 4.88403C4.17778 5.07158 4.17778 5.37542 4.36509 5.56298L10.0685 11.2662C10.2561 11.4537 10.5599 11.4537 10.7475 11.2662C10.935 11.0786 10.935 10.7748 10.7475 10.5872Z" fill="#828282"/>
<path d="M24.5577 25.7555C24.7453 25.943 25.0491 25.943 25.2367 25.7555C25.4242 25.5681 25.4242 25.2641 25.2367 25.0765L19.5335 19.3733C19.3459 19.1858 19.0421 19.1858 18.8545 19.3733C18.667 19.5609 18.667 19.8647 18.8545 20.0523L24.5577 25.7555Z" fill="#828282"/>
<path d="M18.2707 15.1934C18.6825 14.7917 18.4547 14.0913 17.8856 14.0085L16.1846 13.7614L15.4238 12.22C15.1693 11.7041 14.4328 11.7041 14.1782 12.22L13.4175 13.7614L11.7165 14.0085C11.1471 14.0913 10.9195 14.7917 11.3314 15.1934L12.0306 15.8748C5.32685 21.717 4.02996 29.5891 3.78489 32.7468C3.76013 33.0654 4.01096 33.339 4.3328 33.339C4.59438 33.339 4.8247 33.1522 4.87346 32.8878C5.54366 29.2438 7.2114 25.8808 9.83043 22.8926C10.005 22.6933 9.98522 22.39 9.78567 22.2152C9.58636 22.0404 9.28277 22.0604 9.10821 22.26C7.85209 23.6929 6.80528 25.2098 5.97254 26.801C7.03485 23.6003 8.97242 19.8732 12.5035 16.7368C12.487 16.8331 12.3324 17.7339 12.2719 18.0875C12.2149 18.4191 12.4019 18.7364 12.7095 18.8544C12.0028 19.4116 11.3224 20.002 10.6874 20.6102C10.4961 20.7935 10.4896 21.0976 10.6729 21.2892C10.8562 21.4807 11.1603 21.487 11.3519 21.3037C12.7968 19.9195 14.21 18.8905 15.209 18.2343L16.3223 18.8194C16.8315 19.0873 17.4277 18.6546 17.3301 18.0872L17.0396 16.3932L18.2707 15.1934ZM16.2691 15.803C16.1055 15.9626 16.031 16.1922 16.0695 16.4177L16.2926 17.7189L15.1242 17.1047C14.9219 16.9981 14.6801 16.9981 14.4778 17.1044L13.3095 17.7189L13.5133 16.5293C13.5295 16.4342 13.6258 16.0884 13.3327 15.803C13.0081 15.4864 12.724 15.2096 12.3874 14.8815L13.6938 14.6917C13.9199 14.6587 14.1154 14.5169 14.2167 14.3116L14.8009 13.128L15.3853 14.3118C15.4866 14.5167 15.6819 14.6587 15.9082 14.6917L17.2146 14.8815L16.2691 15.803Z" fill="#828282"/>
</svg>
