<svg width="159" height="31" viewBox="0 0 159 31" fill="none" xmlns="http://www.w3.org/2000/svg">
<path d="M5.57654 27.4472C5.57654 28.0302 5.38694 28.4876 5.00774 28.8194C4.62854 29.1465 4.09292 29.3218 3.40088 29.3455V30.6893H3.05249V29.3455C2.36045 29.3218 1.82483 29.1465 1.44563 28.8194C1.06643 28.4876 0.87683 28.0302 0.87683 27.4472C0.87683 26.8736 1.06643 26.4233 1.44563 26.0963C1.82957 25.7692 2.36519 25.5938 3.05249 25.5701V24.0344H3.40088V25.5701C4.09292 25.5938 4.62854 25.7692 5.00774 26.0963C5.38694 26.4233 5.57654 26.8736 5.57654 27.4472ZM1.23233 27.4472C1.23233 27.9259 1.38875 28.3027 1.70159 28.5777C2.01443 28.8526 2.46473 29.0019 3.05249 29.0256V25.8901C2.46473 25.9138 2.01443 26.0607 1.70159 26.3309C1.38875 26.6011 1.23233 26.9732 1.23233 27.4472ZM3.40088 29.0256C3.98864 29.0019 4.43894 28.855 4.75178 28.5848C5.06936 28.3099 5.22815 27.9307 5.22815 27.4472C5.22815 26.9732 5.06936 26.6011 4.75178 26.3309C4.43894 26.0607 3.98864 25.9138 3.40088 25.8901V29.0256ZM11.3113 27.5396H8.11892C8.1284 27.8287 8.20187 28.0871 8.33933 28.3146C8.47679 28.5374 8.66165 28.7104 8.89391 28.8336C9.13091 28.9569 9.39635 29.0185 9.69023 29.0185C9.93197 29.0185 10.1548 28.9758 10.3586 28.8905C10.5671 28.8004 10.7401 28.6701 10.8776 28.4995L11.0838 28.7341C10.9226 28.9284 10.7188 29.0777 10.4723 29.182C10.2306 29.2863 9.96752 29.3384 9.68312 29.3384C9.3134 29.3384 8.98397 29.2579 8.69483 29.0967C8.40569 28.9355 8.17817 28.7128 8.01227 28.4284C7.85111 28.144 7.77053 27.8193 7.77053 27.4543C7.77053 27.094 7.84637 26.7717 7.99805 26.4873C8.15447 26.1982 8.36777 25.973 8.63795 25.8119C8.90813 25.6507 9.21149 25.5701 9.54803 25.5701C9.88457 25.5701 10.1856 25.6507 10.451 25.8119C10.7212 25.9683 10.9321 26.1887 11.0838 26.4731C11.2402 26.7575 11.3184 27.0798 11.3184 27.4401L11.3113 27.5396ZM9.54803 25.883C9.28733 25.883 9.0527 25.9422 8.84414 26.0607C8.63558 26.1745 8.46731 26.338 8.33933 26.5513C8.21609 26.7599 8.14499 26.9969 8.12603 27.2623H10.97C10.9558 26.9969 10.8847 26.7599 10.7567 26.5513C10.6288 26.3428 10.4605 26.1792 10.2519 26.0607C10.0434 25.9422 9.80873 25.883 9.54803 25.883ZM13.902 25.5986H14.2575V28.7625L16.9024 25.5986H17.2153V29.31H16.8598V26.146L14.2149 29.31H13.902V25.5986ZM15.5444 25.0298C15.2458 25.0298 15.0041 24.9539 14.8192 24.8023C14.6343 24.6458 14.5395 24.4302 14.5348 24.1552H14.7979C14.8026 24.3496 14.8737 24.5036 15.0112 24.6174C15.1534 24.7312 15.3311 24.788 15.5444 24.788C15.7577 24.788 15.9331 24.7312 16.0706 24.6174C16.208 24.5036 16.2791 24.3496 16.2839 24.1552H16.554C16.5493 24.4302 16.4545 24.6458 16.2696 24.8023C16.0848 24.9539 15.843 25.0298 15.5444 25.0298ZM23.3344 27.5396H20.142C20.1515 27.8287 20.225 28.0871 20.3625 28.3146C20.4999 28.5374 20.6848 28.7104 20.917 28.8336C21.154 28.9569 21.4195 29.0185 21.7134 29.0185C21.9551 29.0185 22.1779 28.9758 22.3817 28.8905C22.5903 28.8004 22.7633 28.6701 22.9007 28.4995L23.1069 28.7341C22.9458 28.9284 22.7419 29.0777 22.4955 29.182C22.2537 29.2863 21.9906 29.3384 21.7062 29.3384C21.3365 29.3384 21.0071 29.2579 20.718 29.0967C20.4288 28.9355 20.2013 28.7128 20.0354 28.4284C19.8742 28.144 19.7937 27.8193 19.7937 27.4543C19.7937 27.094 19.8695 26.7717 20.0212 26.4873C20.1776 26.1982 20.3909 25.973 20.6611 25.8119C20.9313 25.6507 21.2346 25.5701 21.5712 25.5701C21.9077 25.5701 22.2087 25.6507 22.4741 25.8119C22.7443 25.9683 22.9552 26.1887 23.1069 26.4731C23.2633 26.7575 23.3415 27.0798 23.3415 27.4401L23.3344 27.5396ZM21.5712 25.883C21.3105 25.883 21.0758 25.9422 20.8673 26.0607C20.6587 26.1745 20.4904 26.338 20.3625 26.5513C20.2392 26.7599 20.1681 26.9969 20.1492 27.2623H22.9932C22.9789 26.9969 22.9078 26.7599 22.7799 26.5513C22.6519 26.3428 22.4836 26.1792 22.275 26.0607C22.0665 25.9422 21.8319 25.883 21.5712 25.883ZM27.7951 25.5701C28.1411 25.5701 28.4539 25.6507 28.7336 25.8119C29.0132 25.973 29.2313 26.1958 29.3877 26.4802C29.5489 26.7646 29.6294 27.0893 29.6294 27.4543C29.6294 27.8193 29.5489 28.1463 29.3877 28.4355C29.2313 28.7199 29.0132 28.9426 28.7336 29.1038C28.4539 29.2602 28.1411 29.3384 27.7951 29.3384C27.468 29.3384 27.1718 29.2626 26.9063 29.1109C26.6409 28.9545 26.4347 28.7388 26.2877 28.4639V30.6893H25.9322V25.5986H26.2735V26.4731C26.4205 26.1887 26.6267 25.9683 26.8921 25.8119C27.1623 25.6507 27.4633 25.5701 27.7951 25.5701ZM27.7737 29.0185C28.0581 29.0185 28.3141 28.9521 28.5416 28.8194C28.7691 28.6867 28.9469 28.5018 29.0749 28.2648C29.2076 28.0278 29.2739 27.7576 29.2739 27.4543C29.2739 27.1509 29.2076 26.8807 29.0749 26.6437C28.9469 26.4067 28.7691 26.2219 28.5416 26.0892C28.3141 25.9564 28.0581 25.8901 27.7737 25.8901C27.4893 25.8901 27.2334 25.9564 27.0059 26.0892C26.7831 26.2219 26.6053 26.4067 26.4726 26.6437C26.3446 26.8807 26.2806 27.1509 26.2806 27.4543C26.2806 27.7576 26.3446 28.0278 26.4726 28.2648C26.6053 28.5018 26.7831 28.6867 27.0059 28.8194C27.2334 28.9521 27.4893 29.0185 27.7737 29.0185ZM34.4045 27.3974C34.9496 27.4922 35.2221 27.7979 35.2221 28.3146C35.2221 28.6369 35.1036 28.8834 34.8666 29.054C34.6344 29.2247 34.2836 29.31 33.8143 29.31H32.2075V25.5986H33.7717C34.1841 25.5986 34.5064 25.6815 34.7386 25.8474C34.9756 26.0086 35.0941 26.2408 35.0941 26.5442C35.0941 26.7622 35.0325 26.9447 34.9093 27.0917C34.7908 27.2339 34.6225 27.3358 34.4045 27.3974ZM32.5559 27.2908H33.7504C34.0679 27.2908 34.312 27.2315 34.4827 27.113C34.6533 26.9898 34.7386 26.8144 34.7386 26.5869C34.7386 26.3546 34.6533 26.1816 34.4827 26.0678C34.3168 25.9493 34.0727 25.8901 33.7504 25.8901H32.5559V27.2908ZM33.8072 29.0185C34.5135 29.0185 34.8666 28.7791 34.8666 28.3004C34.8666 28.0492 34.786 27.8643 34.6249 27.7458C34.4637 27.6273 34.2101 27.568 33.8641 27.568H32.5559V29.0185H33.8072ZM41.0705 27.5396H37.8782C37.8876 27.8287 37.9611 28.0871 38.0986 28.3146C38.236 28.5374 38.4209 28.7104 38.6531 28.8336C38.8901 28.9569 39.1556 29.0185 39.4495 29.0185C39.6912 29.0185 39.914 28.9758 40.1178 28.8905C40.3264 28.8004 40.4994 28.6701 40.6368 28.4995L40.843 28.7341C40.6819 28.9284 40.478 29.0777 40.2316 29.182C39.9898 29.2863 39.7268 29.3384 39.4424 29.3384C39.0726 29.3384 38.7432 29.2579 38.4541 29.0967C38.1649 28.9355 37.9374 28.7128 37.7715 28.4284C37.6103 28.144 37.5298 27.8193 37.5298 27.4543C37.5298 27.094 37.6056 26.7717 37.7573 26.4873C37.9137 26.1982 38.127 25.973 38.3972 25.8119C38.6674 25.6507 38.9707 25.5701 39.3073 25.5701C39.6438 25.5701 39.9448 25.6507 40.2102 25.8119C40.4804 25.9683 40.6913 26.1887 40.843 26.4731C40.9994 26.7575 41.0777 27.0798 41.0777 27.4401L41.0705 27.5396ZM39.3073 25.883C39.0466 25.883 38.8119 25.9422 38.6034 26.0607C38.3948 26.1745 38.2265 26.338 38.0986 26.5513C37.9753 26.7599 37.9042 26.9969 37.8853 27.2623H40.7293C40.715 26.9969 40.6439 26.7599 40.516 26.5513C40.388 26.3428 40.2197 26.1792 40.0112 26.0607C39.8026 25.9422 39.568 25.883 39.3073 25.883ZM45.5312 25.5701C45.8772 25.5701 46.19 25.6507 46.4697 25.8119C46.7494 25.973 46.9674 26.1958 47.1238 26.4802C47.285 26.7646 47.3656 27.0893 47.3656 27.4543C47.3656 27.8193 47.285 28.1463 47.1238 28.4355C46.9674 28.7199 46.7494 28.9426 46.4697 29.1038C46.19 29.2602 45.8772 29.3384 45.5312 29.3384C45.2041 29.3384 44.9079 29.2626 44.6424 29.1109C44.377 28.9545 44.1708 28.7388 44.0239 28.4639V30.6893H43.6684V25.5986H44.0096V26.4731C44.1566 26.1887 44.3628 25.9683 44.6282 25.8119C44.8984 25.6507 45.1994 25.5701 45.5312 25.5701ZM45.5099 29.0185C45.7943 29.0185 46.0502 28.9521 46.2777 28.8194C46.5053 28.6867 46.683 28.5018 46.811 28.2648C46.9437 28.0278 47.0101 27.7576 47.0101 27.4543C47.0101 27.1509 46.9437 26.8807 46.811 26.6437C46.683 26.4067 46.5053 26.2219 46.2777 26.0892C46.0502 25.9564 45.7943 25.8901 45.5099 25.8901C45.2255 25.8901 44.9695 25.9564 44.742 26.0892C44.5192 26.2219 44.3414 26.4067 44.2087 26.6437C44.0807 26.8807 44.0168 27.1509 44.0168 27.4543C44.0168 27.7576 44.0807 28.0278 44.2087 28.2648C44.3414 28.5018 44.5192 28.6867 44.742 28.8194C44.9695 28.9521 45.2255 29.0185 45.5099 29.0185ZM51.2021 27.5894H50.2991V29.31H49.9436V25.5986H50.2991V27.2836H51.2021L52.6027 25.5986H52.9938L51.4865 27.3974L53.1076 29.31H52.681L51.2021 27.5894ZM55.4066 25.5986H55.7621V28.7625L58.4071 25.5986H58.7199V29.31H58.3644V26.146L55.7195 29.31H55.4066V25.5986ZM66.4021 29.3384C66.0513 29.3384 65.7337 29.2579 65.4493 29.0967C65.1697 28.9355 64.9493 28.7128 64.7881 28.4284C64.627 28.1392 64.5464 27.8145 64.5464 27.4543C64.5464 27.094 64.627 26.7717 64.7881 26.4873C64.9493 26.1982 65.1697 25.973 65.4493 25.8119C65.7337 25.6507 66.0513 25.5701 66.4021 25.5701C66.7528 25.5701 67.0681 25.6507 67.3477 25.8119C67.6321 25.973 67.8549 26.1982 68.0161 26.4873C68.1772 26.7717 68.2578 27.094 68.2578 27.4543C68.2578 27.8145 68.1772 28.1392 68.0161 28.4284C67.8549 28.7128 67.6321 28.9355 67.3477 29.0967C67.0681 29.2579 66.7528 29.3384 66.4021 29.3384ZM66.4021 29.0185C66.6865 29.0185 66.9401 28.9521 67.1629 28.8194C67.3904 28.6867 67.5681 28.5018 67.6961 28.2648C67.8288 28.0278 67.8952 27.7576 67.8952 27.4543C67.8952 27.1509 67.8288 26.8807 67.6961 26.6437C67.5681 26.4067 67.3904 26.2219 67.1629 26.0892C66.9401 25.9564 66.6865 25.8901 66.4021 25.8901C66.1177 25.8901 65.8617 25.9564 65.6342 26.0892C65.4114 26.2219 65.2337 26.4067 65.101 26.6437C64.973 26.8807 64.909 27.1509 64.909 27.4543C64.909 27.7576 64.973 28.0278 65.101 28.2648C65.2337 28.5018 65.4114 28.6867 65.6342 28.8194C65.8617 28.9521 66.1177 29.0185 66.4021 29.0185ZM73.1801 25.9185H71.7296V29.31H71.3741V25.9185H69.9237V25.5986H73.1801V25.9185ZM81.8535 25.5986V29.31H81.498V25.9185H78.9668V29.31H78.6113V25.5986H81.8535ZM86.6803 25.5701C87.0263 25.5701 87.3392 25.6507 87.6188 25.8119C87.8985 25.973 88.1165 26.1958 88.2729 26.4802C88.4341 26.7646 88.5147 27.0893 88.5147 27.4543C88.5147 27.8193 88.4341 28.1463 88.2729 28.4355C88.1165 28.7199 87.8985 28.9426 87.6188 29.1038C87.3392 29.2602 87.0263 29.3384 86.6803 29.3384C86.3532 29.3384 86.057 29.2626 85.7916 29.1109C85.5261 28.9545 85.3199 28.7388 85.173 28.4639V30.6893H84.8175V25.5986H85.1588V26.4731C85.3057 26.1887 85.5119 25.9683 85.7773 25.8119C86.0475 25.6507 86.3485 25.5701 86.6803 25.5701ZM86.659 29.0185C86.9434 29.0185 87.1993 28.9521 87.4269 28.8194C87.6544 28.6867 87.8321 28.5018 87.9601 28.2648C88.0928 28.0278 88.1592 27.7576 88.1592 27.4543C88.1592 27.1509 88.0928 26.8807 87.9601 26.6437C87.8321 26.4067 87.6544 26.2219 87.4269 26.0892C87.1993 25.9564 86.9434 25.8901 86.659 25.8901C86.3746 25.8901 86.1186 25.9564 85.8911 26.0892C85.6683 26.2219 85.4906 26.4067 85.3578 26.6437C85.2299 26.8807 85.1659 27.1509 85.1659 27.4543C85.1659 27.7576 85.2299 28.0278 85.3578 28.2648C85.4906 28.5018 85.6683 28.6867 85.8911 28.8194C86.1186 28.9521 86.3746 29.0185 86.659 29.0185ZM92.5716 29.3384C92.2208 29.3384 91.9033 29.2579 91.6189 29.0967C91.3392 28.9355 91.1188 28.7128 90.9576 28.4284C90.7965 28.1392 90.7159 27.8145 90.7159 27.4543C90.7159 27.094 90.7965 26.7717 90.9576 26.4873C91.1188 26.1982 91.3392 25.973 91.6189 25.8119C91.9033 25.6507 92.2208 25.5701 92.5716 25.5701C92.9224 25.5701 93.2376 25.6507 93.5172 25.8119C93.8016 25.973 94.0244 26.1982 94.1856 26.4873C94.3467 26.7717 94.4273 27.094 94.4273 27.4543C94.4273 27.8145 94.3467 28.1392 94.1856 28.4284C94.0244 28.7128 93.8016 28.9355 93.5172 29.0967C93.2376 29.2579 92.9224 29.3384 92.5716 29.3384ZM92.5716 29.0185C92.856 29.0185 93.1096 28.9521 93.3324 28.8194C93.5599 28.6867 93.7376 28.5018 93.8656 28.2648C93.9983 28.0278 94.0647 27.7576 94.0647 27.4543C94.0647 27.1509 93.9983 26.8807 93.8656 26.6437C93.7376 26.4067 93.5599 26.2219 93.3324 26.0892C93.1096 25.9564 92.856 25.8901 92.5716 25.8901C92.2872 25.8901 92.0312 25.9564 91.8037 26.0892C91.5809 26.2219 91.4032 26.4067 91.2705 26.6437C91.1425 26.8807 91.0785 27.1509 91.0785 27.4543C91.0785 27.7576 91.1425 28.0278 91.2705 28.2648C91.4032 28.5018 91.5809 28.6867 91.8037 28.8194C92.0312 28.9521 92.2872 29.0185 92.5716 29.0185ZM97.0071 25.5986H97.3626V28.7625L100.008 25.5986H100.32V29.31H99.9648V26.146L97.3199 29.31H97.0071V25.5986ZM104.828 27.3761C105.103 27.4282 105.314 27.5325 105.46 27.6889C105.612 27.8406 105.688 28.0278 105.688 28.2506C105.688 28.4686 105.615 28.6606 105.468 28.8265C105.325 28.9924 105.131 29.1204 104.885 29.2105C104.638 29.3005 104.37 29.3455 104.081 29.3455C103.816 29.3455 103.555 29.3053 103.299 29.2247C103.048 29.1394 102.827 29.0185 102.638 28.8621L102.78 28.599C102.946 28.7412 103.143 28.8502 103.37 28.9261C103.602 29.0019 103.837 29.0398 104.074 29.0398C104.425 29.0398 104.721 28.9663 104.963 28.8194C105.205 28.6677 105.325 28.4686 105.325 28.2222C105.325 28.0041 105.223 27.8335 105.02 27.7102C104.821 27.5823 104.55 27.5183 104.209 27.5183H103.612V27.2481H104.195C104.494 27.2481 104.738 27.1888 104.927 27.0703C105.122 26.9518 105.219 26.7931 105.219 26.594C105.219 26.3617 105.112 26.184 104.899 26.0607C104.69 25.9327 104.422 25.8688 104.095 25.8688C103.678 25.8688 103.285 25.9754 102.915 26.1887L102.808 25.9043C103.226 25.672 103.669 25.5559 104.138 25.5559C104.55 25.5559 104.894 25.646 105.169 25.8261C105.444 26.0015 105.581 26.2408 105.581 26.5442C105.581 26.7385 105.513 26.9092 105.375 27.0561C105.238 27.2031 105.055 27.3097 104.828 27.3761ZM110.547 27.3974C111.092 27.4922 111.364 27.7979 111.364 28.3146C111.364 28.6369 111.246 28.8834 111.009 29.054C110.777 29.2247 110.426 29.31 109.957 29.31H108.35V25.5986H109.914C110.326 25.5986 110.649 25.6815 110.881 25.8474C111.118 26.0086 111.236 26.2408 111.236 26.5442C111.236 26.7622 111.175 26.9447 111.052 27.0917C110.933 27.2339 110.765 27.3358 110.547 27.3974ZM108.698 27.2908H109.893C110.21 27.2908 110.454 27.2315 110.625 27.113C110.796 26.9898 110.881 26.8144 110.881 26.5869C110.881 26.3546 110.796 26.1816 110.625 26.0678C110.459 25.9493 110.215 25.8901 109.893 25.8901H108.698V27.2908ZM109.95 29.0185C110.656 29.0185 111.009 28.7791 111.009 28.3004C111.009 28.0492 110.928 27.8643 110.767 27.7458C110.606 27.6273 110.352 27.568 110.006 27.568H108.698V29.0185H109.95ZM115.528 29.3384C115.177 29.3384 114.859 29.2579 114.575 29.0967C114.295 28.9355 114.075 28.7128 113.914 28.4284C113.753 28.1392 113.672 27.8145 113.672 27.4543C113.672 27.094 113.753 26.7717 113.914 26.4873C114.075 26.1982 114.295 25.973 114.575 25.8119C114.859 25.6507 115.177 25.5701 115.528 25.5701C115.879 25.5701 116.194 25.6507 116.473 25.8119C116.758 25.973 116.981 26.1982 117.142 26.4873C117.303 26.7717 117.383 27.094 117.383 27.4543C117.383 27.8145 117.303 28.1392 117.142 28.4284C116.981 28.7128 116.758 28.9355 116.473 29.0967C116.194 29.2579 115.879 29.3384 115.528 29.3384ZM115.528 29.0185C115.812 29.0185 116.066 28.9521 116.289 28.8194C116.516 28.6867 116.694 28.5018 116.822 28.2648C116.954 28.0278 117.021 27.7576 117.021 27.4543C117.021 27.1509 116.954 26.8807 116.822 26.6437C116.694 26.4067 116.516 26.2219 116.289 26.0892C116.066 25.9564 115.812 25.8901 115.528 25.8901C115.243 25.8901 114.987 25.9564 114.76 26.0892C114.537 26.2219 114.359 26.4067 114.227 26.6437C114.099 26.8807 114.035 27.1509 114.035 27.4543C114.035 27.7576 114.099 28.0278 114.227 28.2648C114.359 28.5018 114.537 28.6867 114.76 28.8194C114.987 28.9521 115.243 29.0185 115.528 29.0185ZM123.44 28.9972V30.2343H123.106V29.31H119.594V30.2343H119.253V28.9972H119.473C119.724 28.9829 119.895 28.7886 119.985 28.4141C120.08 28.0349 120.146 27.5041 120.184 26.8215L120.234 25.5986H122.843V28.9972H123.44ZM120.511 26.8428C120.487 27.4069 120.44 27.8761 120.369 28.2506C120.298 28.6251 120.17 28.8739 119.985 28.9972H122.488V25.9185H120.554L120.511 26.8428ZM125.912 25.5986H126.268V28.7625L128.913 25.5986H129.226V29.31H128.87V26.146L126.225 29.31H125.912V25.5986ZM134.662 25.9185H133.212V29.31H132.856V25.9185H131.406V25.5986H134.662V25.9185ZM139.836 27.5396H136.643C136.653 27.8287 136.726 28.0871 136.864 28.3146C137.001 28.5374 137.186 28.7104 137.418 28.8336C137.655 28.9569 137.921 29.0185 138.215 29.0185C138.456 29.0185 138.679 28.9758 138.883 28.8905C139.091 28.8004 139.264 28.6701 139.402 28.4995L139.608 28.7341C139.447 28.9284 139.243 29.0777 138.997 29.182C138.755 29.2863 138.492 29.3384 138.207 29.3384C137.838 29.3384 137.508 29.2579 137.219 29.0967C136.93 28.9355 136.703 28.7128 136.537 28.4284C136.375 28.144 136.295 27.8193 136.295 27.4543C136.295 27.094 136.371 26.7717 136.522 26.4873C136.679 26.1982 136.892 25.973 137.162 25.8119C137.432 25.6507 137.736 25.5701 138.072 25.5701C138.409 25.5701 138.71 25.6507 138.975 25.8119C139.246 25.9683 139.456 26.1887 139.608 26.4731C139.765 26.7575 139.843 27.0798 139.843 27.4401L139.836 27.5396ZM138.072 25.883C137.812 25.883 137.577 25.9422 137.368 26.0607C137.16 26.1745 136.992 26.338 136.864 26.5513C136.74 26.7599 136.669 26.9969 136.65 27.2623H139.494C139.48 26.9969 139.409 26.7599 139.281 26.5513C139.153 26.3428 138.985 26.1792 138.776 26.0607C138.568 25.9422 138.333 25.883 138.072 25.883ZM145.237 25.5986V29.31H144.881V25.9185H142.948L142.898 26.9068C142.869 27.4187 142.827 27.8477 142.77 28.1937C142.713 28.5397 142.616 28.8194 142.478 29.0327C142.341 29.246 142.151 29.3527 141.91 29.3527C141.838 29.3527 141.736 29.3361 141.604 29.3029L141.639 28.9972C141.715 29.0161 141.772 29.0256 141.81 29.0256C142.009 29.0256 142.161 28.9284 142.265 28.7341C142.369 28.5397 142.44 28.298 142.478 28.0089C142.516 27.7197 142.547 27.3429 142.571 26.8784L142.635 25.5986H145.237ZM151.359 27.5396H148.166C148.176 27.8287 148.249 28.0871 148.387 28.3146C148.524 28.5374 148.709 28.7104 148.941 28.8336C149.178 28.9569 149.444 29.0185 149.738 29.0185C149.98 29.0185 150.202 28.9758 150.406 28.8905C150.615 28.8004 150.788 28.6701 150.925 28.4995L151.131 28.7341C150.97 28.9284 150.766 29.0777 150.52 29.182C150.278 29.2863 150.015 29.3384 149.731 29.3384C149.361 29.3384 149.032 29.2579 148.742 29.0967C148.453 28.9355 148.226 28.7128 148.06 28.4284C147.899 28.144 147.818 27.8193 147.818 27.4543C147.818 27.094 147.894 26.7717 148.046 26.4873C148.202 26.1982 148.415 25.973 148.686 25.8119C148.956 25.6507 149.259 25.5701 149.596 25.5701C149.932 25.5701 150.233 25.6507 150.499 25.8119C150.769 25.9683 150.98 26.1887 151.131 26.4731C151.288 26.7575 151.366 27.0798 151.366 27.4401L151.359 27.5396ZM149.596 25.883C149.335 25.883 149.1 25.9422 148.892 26.0607C148.683 26.1745 148.515 26.338 148.387 26.5513C148.264 26.7599 148.193 26.9969 148.174 27.2623H151.018C151.003 26.9969 150.932 26.7599 150.804 26.5513C150.676 26.3428 150.508 26.1792 150.299 26.0607C150.091 25.9422 149.856 25.883 149.596 25.883ZM153.95 25.5986H154.305V28.7625L156.95 25.5986H157.263V29.31H156.907V26.146L154.262 29.31H153.95V25.5986ZM155.592 25.0298C155.293 25.0298 155.052 24.9539 154.867 24.8023C154.682 24.6458 154.587 24.4302 154.582 24.1552H154.845C154.85 24.3496 154.921 24.5036 155.059 24.6174C155.201 24.7312 155.379 24.788 155.592 24.788C155.805 24.788 155.981 24.7312 156.118 24.6174C156.256 24.5036 156.327 24.3496 156.331 24.1552H156.602C156.597 24.4302 156.502 24.6458 156.317 24.8023C156.132 24.9539 155.891 25.0298 155.592 25.0298Z" fill="black"/>
<path d="M102.591 18.7106L99.5138 14.3837C99.1677 14.4221 98.8087 14.4413 98.4369 14.4413H94.8215V18.7106H93.3984V5.24901H98.4369C100.155 5.24901 101.501 5.65927 102.475 6.47978C103.45 7.3003 103.937 8.42851 103.937 9.86441C103.937 10.9157 103.668 11.8067 103.129 12.5375C102.604 13.2554 101.847 13.7747 100.86 14.0952L104.148 18.7106H102.591ZM98.3985 13.2298C99.7318 13.2298 100.751 12.9349 101.456 12.3452C102.161 11.7554 102.514 10.9285 102.514 9.86441C102.514 8.77466 102.161 7.94132 101.456 7.3644C100.751 6.77465 99.7318 6.47978 98.3985 6.47978H94.8215V13.2298H98.3985Z" fill="black"/>
<path d="M110.963 5.36455H112.386V18.8261H110.963V5.36455Z" fill="black"/>
<path d="M125.54 18.826C123.797 18.826 122.438 18.326 121.463 17.326C120.489 16.326 120.002 14.8708 120.002 12.9606V5.24901H121.425V12.9029C121.425 14.467 121.778 15.6337 122.483 16.4029C123.188 17.1721 124.207 17.5567 125.54 17.5567C126.887 17.5567 127.912 17.1721 128.617 16.4029C129.322 15.6337 129.675 14.467 129.675 12.9029V5.24901H131.06V12.9606C131.06 14.8708 130.573 16.326 129.598 17.326C128.637 18.326 127.284 18.826 125.54 18.826Z" fill="black"/>
<path fill-rule="evenodd" clip-rule="evenodd" d="M146.669 6.74901C145.695 5.74901 144.336 5.24901 142.592 5.24901C140.849 5.24901 139.496 5.74901 138.535 6.74901C137.56 7.74901 137.073 9.20415 137.073 11.1144L137.073 18.826H138.458L138.458 11.1721C138.458 9.60799 138.81 8.44132 139.516 7.67209C140.221 6.90286 141.246 6.51824 142.592 6.51824C143.926 6.51824 144.945 6.90286 145.65 7.67209C146.355 8.44133 146.708 9.60799 146.708 11.1721V18.826L146.747 18.826L148.131 18.826L148.132 18.826L148.132 11.1721C148.132 9.60799 148.484 8.44132 149.189 7.67209C149.895 6.90286 150.92 6.51824 152.266 6.51824C153.6 6.51824 154.619 6.90286 155.324 7.67209C156.029 8.44133 156.382 9.60799 156.382 11.1721L156.382 18.826H157.805V11.1144C157.805 9.20415 157.318 7.74902 156.343 6.74901C155.369 5.74901 154.01 5.24901 152.266 5.24901C150.523 5.24901 149.17 5.74901 148.209 6.74901C147.905 7.06095 147.648 7.41717 147.439 7.81767C147.23 7.41717 146.973 7.06095 146.669 6.74901Z" fill="black"/>
<path d="M62.2747 6.47978H57.5439V5.24901H68.4286V6.47978H63.6978V18.7106H62.2747V6.47978Z" fill="black"/>
<path d="M48.7094 18.826C46.9658 18.826 45.6068 18.326 44.6324 17.326C43.6581 16.326 43.1709 14.8708 43.1709 12.9606V5.24901H44.594V12.9029C44.594 14.467 44.9465 15.6337 45.6517 16.4029C46.3568 17.1721 47.376 17.5567 48.7094 17.5567C50.0555 17.5567 51.0812 17.1721 51.7863 16.4029C52.4914 15.6337 52.844 14.467 52.844 12.9029V5.24901H54.2286V12.9606C54.2286 14.8708 53.7414 16.326 52.7671 17.326C51.8055 18.326 50.453 18.826 48.7094 18.826Z" fill="black"/>
<path d="M5.60451 18.826C4.6045 18.826 3.64296 18.6658 2.71988 18.3453C1.80962 18.0247 1.10449 17.6017 0.604492 17.076L1.16219 15.9799C1.64937 16.467 2.29681 16.8645 3.1045 17.1722C3.91219 17.4671 4.74553 17.6145 5.60451 17.6145C6.80964 17.6145 7.71349 17.3965 8.31605 16.9606C8.91862 16.5119 9.2199 15.935 9.2199 15.2299C9.2199 14.6914 9.05324 14.2619 8.7199 13.9414C8.39939 13.6209 8.00195 13.3773 7.52759 13.2106C7.05323 13.0311 6.39297 12.8388 5.54681 12.6337C4.53399 12.3773 3.7263 12.1337 3.12373 11.9029C2.52116 11.6593 2.00193 11.294 1.56603 10.8068C1.14296 10.3196 0.931416 9.65934 0.931416 8.826C0.931416 8.14651 1.1109 7.53113 1.46988 6.97984C1.82885 6.41574 2.38014 5.96702 3.12373 5.63368C3.86732 5.30035 4.7904 5.13368 5.89297 5.13368C6.6622 5.13368 7.4122 5.24266 8.14298 5.46061C8.88657 5.66574 9.5276 5.9542 10.0661 6.32599L9.58529 7.46061C9.02118 7.08882 8.41862 6.81317 7.77759 6.63369C7.13656 6.44138 6.50836 6.34522 5.89297 6.34522C4.71348 6.34522 3.82245 6.57599 3.21988 7.03753C2.63014 7.48625 2.33527 8.06959 2.33527 8.78754C2.33527 9.326 2.49552 9.7619 2.81604 10.0952C3.14937 10.4157 3.55963 10.6658 4.04681 10.8452C4.54681 11.0119 5.21348 11.1978 6.04682 11.4029C7.034 11.6465 7.82887 11.8901 8.43144 12.1337C9.04683 12.3645 9.56606 12.7234 9.98914 13.2106C10.4122 13.685 10.6238 14.3324 10.6238 15.1529C10.6238 15.8324 10.4379 16.4542 10.0661 17.0183C9.70708 17.5696 9.14939 18.0119 8.39298 18.3453C7.63656 18.6658 6.70707 18.826 5.60451 18.826Z" fill="black"/>
<path d="M24.5366 15.1144H17.0366L15.4212 18.7106H13.9404L20.0943 5.24901H21.4981L27.652 18.7106H26.152L24.5366 15.1144ZM24.0174 13.9606L20.7866 6.72978L17.5558 13.9606H24.0174Z" fill="black"/>
<path d="M82.8314 10.3067H75.3314L71.5159 18.7025H70.0352L78.3891 0.441315H79.7929L88.1251 18.7025H86.6251L82.8314 10.3067ZM82.3121 9.15288L79.0814 1.92209L75.8506 9.15288H82.3121Z" fill="black"/>
<path d="M32.4293 17.326C33.4037 18.326 34.7627 18.826 36.5063 18.826H39.8545V17.5567H36.5063C35.1729 17.5567 34.1537 17.1721 33.4486 16.4029C32.7434 15.6337 32.3909 14.467 32.3909 12.9029V5.24901H30.9678V12.9606C30.9678 14.8708 31.455 16.326 32.4293 17.326Z" fill="black"/>
</svg>
