<svg width="61" height="16" viewBox="0 0 61 16" fill="none" xmlns="http://www.w3.org/2000/svg">
<g clip-path="url(#clip0)">
<path fill-rule="evenodd" clip-rule="evenodd" d="M6.55933 5.50947H6.87468V5.1364C6.87468 4.74543 6.92883 4.43504 7.03394 4.20523C7.13906 3.97542 7.31744 3.80829 7.57227 3.70383C7.82391 3.59938 8.17111 3.54565 8.60751 3.54565C9.38473 3.54565 9.77334 3.72473 9.77334 4.07988C9.77334 4.19628 9.73193 4.29477 9.6523 4.37535C9.56948 4.45892 9.47711 4.49772 9.36562 4.49772C9.31465 4.49772 9.22546 4.48876 9.09805 4.47085C8.97064 4.45295 8.86552 4.44399 8.77633 4.44399C8.53424 4.44399 8.38135 4.51264 8.31445 4.64396C8.24438 4.77528 8.21252 4.96628 8.21252 5.21101V5.50947H8.53743C9.0439 5.50947 9.29873 5.65272 9.29873 5.93924C9.29873 6.14218 9.23183 6.2735 9.09805 6.32723C8.96427 6.38095 8.77633 6.41079 8.53743 6.41079H8.21252V9.71465C8.21252 9.96237 8.14882 10.1504 8.02459 10.2787C7.90036 10.4071 7.73791 10.4727 7.54041 10.4727C7.34929 10.4727 7.19321 10.41 7.06898 10.2787C6.94475 10.1504 6.88105 9.95938 6.88105 9.71465V6.40781H6.51473C6.31724 6.40781 6.16434 6.36602 6.05604 6.28246C5.94774 6.19889 5.89359 6.09145 5.89359 5.95714C5.8904 5.65869 6.11338 5.50947 6.55933 5.50947ZM28.6657 8.67007V9.71465C28.6657 9.96834 28.6019 10.1564 28.4777 10.2817C28.3503 10.4071 28.191 10.4727 27.9935 10.4727C27.7992 10.4727 27.6432 10.41 27.5189 10.2817C27.3947 10.1534 27.3342 9.96535 27.3342 9.71465V6.24067C27.3342 5.67958 27.5508 5.39904 27.984 5.39904C28.207 5.39904 28.363 5.4647 28.4618 5.59602C28.5605 5.72734 28.6147 5.92133 28.6242 6.17501C28.7835 5.91835 28.946 5.72435 29.1148 5.59602C29.2836 5.4647 29.5066 5.39904 29.7869 5.39904C30.0672 5.39904 30.338 5.4647 30.6023 5.59602C30.8667 5.72734 30.9973 5.90044 30.9973 6.11831C30.9973 6.27052 30.9432 6.39587 30.8285 6.49436C30.717 6.59583 30.596 6.64358 30.4654 6.64358C30.4176 6.64358 30.2997 6.61672 30.1118 6.56002C29.9239 6.50331 29.7582 6.47645 29.6149 6.47645C29.4206 6.47645 29.2613 6.5242 29.1371 6.61971C29.0129 6.71521 28.9173 6.85847 28.8504 7.04649C28.7835 7.23452 28.7357 7.45836 28.7102 7.72099C28.6816 7.97766 28.6657 8.29402 28.6657 8.67007ZM33.0519 6.10637V9.71167C33.0519 9.96237 32.9882 10.1504 32.8608 10.2787C32.7333 10.4071 32.5741 10.4697 32.3766 10.4697C32.1791 10.4697 32.023 10.4041 31.8988 10.2728C31.7777 10.1414 31.7172 9.95341 31.7172 9.71167V6.14517C31.7172 5.89745 31.7777 5.71241 31.8988 5.58706C32.0198 5.46171 32.1791 5.39904 32.3766 5.39904C32.5709 5.39904 32.7333 5.46171 32.8608 5.58706C32.9882 5.70943 33.0519 5.88552 33.0519 6.10637ZM32.3925 4.82004C32.2078 4.82004 32.0485 4.76632 31.9179 4.65888C31.7873 4.55144 31.7204 4.40221 31.7204 4.20822C31.7204 4.02915 31.7905 3.88589 31.9243 3.77248C32.058 3.65907 32.2173 3.60236 32.3925 3.60236C32.5645 3.60236 32.7206 3.6531 32.8512 3.75756C32.985 3.86201 33.0519 4.01124 33.0519 4.2112C33.0519 4.40221 32.9882 4.55144 32.8576 4.66186C32.727 4.76334 32.5709 4.82004 32.3925 4.82004ZM35.6543 10.6279L35.7754 10.3504L34.1381 6.48242C34.0362 6.25858 33.9852 6.09742 33.9852 5.99893C33.9852 5.89447 34.0139 5.793 34.0744 5.70048C34.1317 5.61094 34.2113 5.53633 34.3165 5.48261C34.4184 5.42889 34.5235 5.39904 34.635 5.39904C34.8261 5.39904 34.9726 5.45575 35.0682 5.56916C35.167 5.68257 35.253 5.84672 35.3294 6.0616L36.457 9.13267L37.5241 6.27649C37.6101 6.0437 37.6866 5.86462 37.7535 5.73331C37.8235 5.60199 37.8936 5.51245 37.9701 5.46768C38.0465 5.42292 38.1548 5.39904 38.295 5.39904C38.3969 5.39904 38.4925 5.42292 38.588 5.47365C38.6804 5.52439 38.7505 5.59303 38.8014 5.6766C38.8524 5.76017 38.8779 5.85269 38.8779 5.94521C38.8651 6.00191 38.8428 6.08249 38.8142 6.19292C38.7855 6.30036 38.7505 6.40781 38.7059 6.51823L36.9699 10.7771C35.2498 15.0002 17.5074 14.3347 10.6652 12.4903C10.1556 12.353 10.162 12.2813 9.96765 12.2037C9.77334 12.1261 9.6746 11.9799 9.6746 11.771C9.6746 11.6277 9.72238 11.5173 9.81475 11.4397C9.90713 11.3651 10.0441 11.3233 10.2257 11.3233C10.2957 11.3233 10.3658 11.3352 10.4359 11.3502C10.5187 11.3681 10.5984 11.3591 10.6557 11.377C16.4021 13.1677 31.8637 13.9527 35.2721 11.0756C35.3676 10.992 35.5651 10.8309 35.6543 10.6279ZM43.073 9.76837C42.7513 10.0012 42.4391 10.1773 42.1397 10.2966C41.8371 10.413 41.4994 10.4727 41.1267 10.4727C40.7827 10.4727 40.4833 10.41 40.2253 10.2817C39.9673 10.1564 39.7666 9.98624 39.6264 9.76837C39.4863 9.5505 39.4162 9.31771 39.4162 9.06403C39.4162 8.72379 39.5309 8.43131 39.7634 8.18956C39.9959 7.94782 40.3113 7.78665 40.7158 7.70607C40.7986 7.68816 41.0089 7.64638 41.3465 7.58371C41.681 7.51805 41.9677 7.46134 42.2066 7.40762C42.4455 7.3539 42.7035 7.28824 42.9838 7.21363C42.9679 6.88533 42.8978 6.64358 42.7736 6.49137C42.6462 6.33618 42.3881 6.26157 41.9963 6.26157C41.6587 6.26157 41.4039 6.30633 41.235 6.39288C41.063 6.48242 40.9165 6.61374 40.7955 6.78983C40.6744 6.96591 40.5884 7.08231 40.5374 7.13901C40.4865 7.19572 40.3782 7.22258 40.2125 7.22258C40.0628 7.22258 39.9322 7.17781 39.8239 7.08529C39.7156 6.99576 39.6615 6.87936 39.6615 6.73909C39.6615 6.52122 39.7443 6.30633 39.9099 6.1004C40.0756 5.89149 40.3336 5.72137 40.6872 5.59005C41.0376 5.45575 41.4739 5.39009 41.9995 5.39009C42.5856 5.39009 43.0443 5.45575 43.3788 5.58408C43.7132 5.71241 43.949 5.91835 44.0891 6.19889C44.2261 6.47645 44.2962 6.84952 44.2962 7.3151C44.2962 7.60758 44.2962 7.8553 44.293 8.05825C44.293 8.26119 44.2898 8.491 44.2866 8.73872C44.2866 8.97151 44.328 9.21624 44.4108 9.47291C44.4937 9.72659 44.5351 9.89074 44.5351 9.96535C44.5351 10.0937 44.4714 10.2101 44.3439 10.3145C44.2165 10.419 44.07 10.4727 43.9076 10.4727C43.7706 10.4727 43.6368 10.413 43.503 10.2907C43.3629 10.1683 43.2227 9.9952 43.073 9.76837ZM42.987 7.96274C42.7927 8.0284 42.506 8.10003 42.1365 8.17464C41.7638 8.24925 41.5058 8.30298 41.3625 8.33879C41.1363 8.3955 40.8719 8.53278 40.7955 8.75364C40.7732 8.8193 40.7572 8.89988 40.7572 8.97151C40.7572 9.16252 40.8337 9.32368 40.9866 9.455C41.1395 9.58632 41.3402 9.65198 41.5854 9.65198C41.8498 9.65198 42.0919 9.59826 42.3149 9.49081C42.5378 9.38337 42.7003 9.2431 42.8054 9.07298C42.9265 8.88496 42.987 8.57457 42.987 8.13883V7.96274ZM46.5259 10.4697C46.3252 10.4697 46.15 10.41 46.0035 10.2877C45.857 10.1653 45.7837 9.9952 45.7837 9.77733C45.7837 9.5893 45.8538 9.43112 45.994 9.29682C46.1341 9.16252 46.3061 9.09686 46.51 9.09686C46.7138 9.09686 46.889 9.16252 47.0356 9.29384C47.1789 9.42515 47.2522 9.58632 47.2522 9.77733C47.2522 9.99221 47.1821 10.1623 47.0356 10.2847C46.8922 10.4071 46.7202 10.4697 46.5259 10.4697ZM49.4214 9.23116V9.92655C49.4214 10.0937 49.38 10.222 49.294 10.3056C49.2112 10.3892 49.1029 10.4339 48.9723 10.4339C48.8417 10.4339 48.7397 10.3921 48.6569 10.3056C48.5741 10.219 48.5327 10.0937 48.5327 9.92954V7.61057C48.5327 7.2375 48.676 7.04948 48.9659 7.04948C49.1124 7.04948 49.2175 7.09425 49.2844 7.1808C49.3513 7.26735 49.3864 7.39568 49.3927 7.56878C49.4978 7.39867 49.6061 7.27033 49.7176 7.1808C49.8291 7.09425 49.9788 7.04948 50.1636 7.04948C50.3483 7.04948 50.5299 7.09425 50.7051 7.1808C50.8803 7.26735 50.9695 7.38374 50.9695 7.527C50.9695 7.62847 50.9312 7.71204 50.858 7.7777C50.7847 7.84336 50.7019 7.87619 50.6159 7.87619C50.584 7.87619 50.5044 7.85828 50.3802 7.81948C50.256 7.78069 50.1445 7.76278 50.0489 7.76278C49.9183 7.76278 49.8132 7.79561 49.7304 7.85828C49.6476 7.92394 49.5838 8.01646 49.5392 8.14181C49.4947 8.26716 49.4628 8.41639 49.4437 8.59247C49.431 8.77154 49.4214 8.98345 49.4214 9.23116ZM53.5974 9.96535V9.85791C53.4923 9.98326 53.3808 10.0907 53.2629 10.1743C53.1451 10.2608 53.0177 10.3235 52.8807 10.3653C52.7405 10.4071 52.5844 10.428 52.4061 10.428C52.1926 10.428 51.9983 10.3862 51.8295 10.3026C51.6607 10.219 51.5269 10.1056 51.4345 9.95938C51.3262 9.7833 51.2689 9.52961 51.2689 9.19833V7.55088C51.2689 7.38374 51.3103 7.26138 51.3899 7.17781C51.4696 7.09425 51.5779 7.05246 51.7085 7.05246C51.8423 7.05246 51.9506 7.09425 52.0334 7.17781C52.1162 7.26138 52.1576 7.38374 52.1576 7.55088V8.88197C52.1576 9.07298 52.1767 9.23713 52.2086 9.36845C52.2436 9.49977 52.3041 9.60124 52.3965 9.67585C52.4857 9.75047 52.6067 9.78628 52.7628 9.78628C52.9125 9.78628 53.0527 9.7445 53.1833 9.66093C53.3171 9.57736 53.4126 9.46992 53.4732 9.33562C53.5241 9.21922 53.5464 8.95957 53.5464 8.56263V7.55088C53.5464 7.38673 53.5878 7.26138 53.6706 7.17781C53.7535 7.09425 53.8618 7.05246 53.9924 7.05246C54.1262 7.05246 54.2313 7.09425 54.3109 7.17781C54.3905 7.26138 54.4319 7.38374 54.4319 7.55088V9.95938C54.4319 10.1176 54.3937 10.2369 54.3173 10.3145C54.2408 10.3921 54.1421 10.4339 54.021 10.4339C53.9 10.4339 53.7981 10.3921 53.7216 10.3116C53.6356 10.228 53.5974 10.1116 53.5974 9.96535Z" fill="#828282"/>
<path fill-rule="evenodd" clip-rule="evenodd" d="M17.2694 8.48486V8.94746C17.2694 8.9773 17.2663 9.01013 17.2599 9.03998C17.2535 9.06982 17.2471 9.10265 17.2344 9.1325C17.2121 9.19517 17.1643 9.25486 17.0942 9.31157C17.0242 9.36827 16.8999 9.44289 16.7216 9.53541C16.3712 9.72045 15.9603 9.89355 15.492 10.0517C15.0238 10.2129 14.5428 10.3263 14.049 10.4009C13.8739 10.4218 13.6987 10.4397 13.5203 10.4546C13.3451 10.4696 13.1699 10.4785 12.9915 10.4785C12.1124 10.4785 11.3447 10.2636 10.6917 9.83684C10.0387 9.41006 9.7106 8.75645 9.7106 7.88198C9.7106 7.15078 10.0483 6.35988 10.5611 5.8167C11.0803 5.27053 11.762 4.83479 12.4723 4.53634C12.8705 4.36921 13.2973 4.22595 13.7241 4.12746C14.2593 4.00509 14.804 3.93944 15.3519 3.93944C15.9125 3.93944 16.4253 4.05583 16.8936 4.28564C17.3618 4.51843 17.5943 4.87956 17.5943 5.37499C17.5943 5.46751 17.5848 5.566 17.5689 5.66747C17.5529 5.77193 17.5275 5.8734 17.4956 5.97786C17.3841 6.24647 17.1834 6.50612 16.8936 6.7598C16.6005 7.01349 16.1546 7.24031 15.5493 7.44624C15.4602 7.47609 15.3582 7.50892 15.2372 7.53876C15.1161 7.56861 14.9855 7.60442 14.8422 7.64621C14.4568 7.73873 13.9662 7.82528 13.3674 7.89989C12.7685 7.97749 12.055 8.01032 11.23 8.00136C11.23 8.01032 11.23 8.02524 11.23 8.04016C11.23 8.05509 11.23 8.07299 11.23 8.09388C11.23 8.59827 11.4434 8.96835 11.8735 9.20711C12.3035 9.44289 12.7749 9.57719 13.2909 9.61002C13.3228 9.61002 13.3546 9.61002 13.3833 9.61002C13.412 9.61002 13.4406 9.61002 13.4725 9.61002C13.584 9.61002 13.6923 9.60703 13.8038 9.60106C13.9153 9.5951 14.0236 9.58316 14.1351 9.56227C14.7052 9.49959 15.269 9.36529 15.8169 9.15936C16.368 8.95939 16.8522 8.73257 17.2694 8.48486ZM14.6511 15.979C5.52506 13.2899 -0.262724 9.75924 0.129074 6.48821C0.756587 1.2474 17.0114 -1.34615 36.4229 0.698249C46.0236 1.71 54.5985 3.66784 60.7431 6.01964C60.8355 6.05844 60.8036 6.13306 60.724 6.10619C54.6591 3.93347 46.4727 2.13679 37.3658 1.17876C17.9543 -0.865639 1.70582 1.6712 1.08786 6.84337C0.715178 9.95622 6.08886 13.3168 14.6638 15.9461C14.839 15.9999 14.7944 16.0148 14.6511 15.979ZM11.2651 7.38655C11.3415 7.38655 11.4148 7.38655 11.4785 7.38655C11.5454 7.38655 11.6091 7.38655 11.676 7.38655C12.1283 7.38655 12.5201 7.36865 12.8545 7.33283C13.189 7.29702 13.4693 7.25225 13.6891 7.20151C13.8324 7.18062 13.9503 7.15675 14.0427 7.13287C14.1351 7.10601 14.2147 7.08512 14.2816 7.06423C14.6224 6.95977 14.9027 6.85232 15.1225 6.73891C15.3423 6.6255 15.5175 6.50612 15.6513 6.38376C15.8488 6.20767 15.9698 6.03457 16.0144 5.85848C16.059 5.68239 16.0813 5.53914 16.0813 5.42573C16.0813 5.39588 16.0781 5.36603 16.0717 5.34216C16.0654 5.3153 16.059 5.28844 16.0463 5.25859C15.9921 5.11534 15.8583 4.98103 15.6513 4.85568C15.441 4.73332 15.1512 4.67064 14.7785 4.67064C14.0522 4.67064 13.3738 4.89747 12.7399 5.35111C12.1092 5.80476 11.6696 6.30317 11.4275 6.84934C11.3829 6.94186 11.3479 7.0314 11.3192 7.12093C11.2969 7.2045 11.2778 7.29403 11.2651 7.38655ZM25.9782 8.48486V8.94746C25.9782 8.9773 25.975 9.01013 25.9686 9.03998C25.9623 9.06982 25.9559 9.10265 25.9431 9.1325C25.9208 9.19517 25.8731 9.25486 25.803 9.31157C25.7329 9.36827 25.6087 9.44289 25.4303 9.53541C25.0799 9.72045 24.669 9.89355 24.2008 10.0517C23.7325 10.2129 23.2515 10.3263 22.7578 10.4009C22.5826 10.4218 22.4074 10.4397 22.229 10.4546C22.0538 10.4696 21.8786 10.4785 21.7003 10.4785C20.8211 10.4785 20.0534 10.2636 19.4004 9.83684C18.7474 9.41006 18.4193 8.75645 18.4193 7.88198C18.4193 6.51806 19.4323 5.43766 20.6491 4.81091C21.0313 4.61394 21.4422 4.43188 21.8532 4.30056C22.108 4.21998 22.3692 4.14835 22.6304 4.08866C23.0636 3.99017 23.5414 3.94242 24.0574 3.94242C24.618 3.94242 25.1309 4.05882 25.5991 4.28862C26.0674 4.52142 26.2999 4.88254 26.2999 5.37797C26.2999 5.47049 26.2903 5.56898 26.2744 5.67046C26.2585 5.77491 26.233 5.87639 26.2012 5.98085C26.0897 6.24945 25.8922 6.50911 25.5991 6.76279C25.3061 7.01647 24.8601 7.2433 24.2549 7.44923C24.1657 7.47907 24.0638 7.5119 23.9427 7.54175C23.8217 7.57159 23.6911 7.60741 23.5478 7.64919C23.1623 7.74171 22.6718 7.82826 22.0729 7.90287C21.4741 7.98047 20.7606 8.0133 19.9356 8.00435C19.9356 8.0133 19.9356 8.02822 19.9356 8.04315C19.9356 8.05807 19.9356 8.07598 19.9356 8.09687C19.9356 8.60125 20.149 8.97133 20.579 9.21009C21.009 9.44587 21.4805 9.58017 21.9965 9.613C22.0283 9.613 22.0602 9.613 22.0857 9.613C22.1144 9.613 22.143 9.613 22.1749 9.613C22.2864 9.613 22.3947 9.61002 22.5062 9.60405C22.6176 9.59808 22.7259 9.58614 22.8374 9.56525C23.4108 9.50258 23.9714 9.36827 24.5193 9.16234C25.0767 8.95939 25.5609 8.73257 25.9782 8.48486ZM19.977 7.38655C20.0534 7.38655 20.1267 7.38655 20.1904 7.38655C20.2573 7.38655 20.321 7.38655 20.3879 7.38655C20.837 7.38655 21.232 7.36865 21.5665 7.33283C21.9009 7.29702 22.1812 7.25225 22.401 7.20151C22.5444 7.18062 22.6622 7.15675 22.7546 7.13287C22.847 7.10601 22.9266 7.08512 22.9935 7.06423C23.3343 6.95977 23.6147 6.85232 23.8344 6.73891C24.0542 6.6255 24.2294 6.50612 24.3632 6.38376C24.5607 6.20767 24.6817 6.03457 24.7263 5.85848C24.7709 5.68239 24.7932 5.53914 24.7932 5.42573C24.7932 5.39588 24.79 5.36603 24.7837 5.34216C24.7773 5.3153 24.7709 5.28844 24.7582 5.25859C24.704 5.11534 24.5703 4.98103 24.3632 4.85568C24.153 4.73332 23.8631 4.67064 23.4904 4.67064C22.7642 4.67064 22.0857 4.89747 21.4518 5.35111C20.8179 5.80476 20.3815 6.30317 20.1394 6.84934C20.0948 6.94186 20.0598 7.0314 20.0311 7.12093C20.0057 7.2045 19.9865 7.29403 19.977 7.38655Z" fill="#828282"/>
<path d="M39.1713 13.299H39.3497V13.9974C39.4612 13.8481 39.6205 13.7735 39.8307 13.7735C40.0314 13.7735 40.2034 13.8392 40.3372 13.9675C40.4741 14.0958 40.541 14.26 40.541 14.4629C40.541 14.6629 40.4709 14.8241 40.334 14.9524C40.197 15.0807 40.0282 15.1434 39.8339 15.1434C39.6205 15.1434 39.458 15.0658 39.3465 14.9076V15.5792H39.1681V14.9076C39.0598 15.0658 38.8974 15.1434 38.6776 15.1434C38.4865 15.1434 38.3208 15.0807 38.1807 14.9524C38.0405 14.8241 37.9736 14.6599 37.9736 14.4629C37.9736 14.263 38.0405 14.0958 38.1775 13.9675C38.3145 13.8392 38.4833 13.7735 38.684 13.7735C38.8974 13.7735 39.0567 13.8481 39.165 13.9974V13.299H39.1713ZM38.1584 14.454C38.1584 14.6002 38.2093 14.7226 38.3081 14.8271C38.4068 14.9315 38.5406 14.9822 38.7094 14.9822C38.7668 14.9822 38.8305 14.9673 38.8942 14.9405C38.9611 14.9136 39.0152 14.8778 39.0535 14.836C39.0949 14.7942 39.1235 14.7465 39.1458 14.6898C39.1681 14.6331 39.1777 14.5555 39.1777 14.448C39.1777 14.2779 39.1299 14.1496 39.0375 14.06C38.9452 13.9705 38.8305 13.9257 38.6967 13.9257C38.547 13.9257 38.4196 13.9765 38.3145 14.075C38.2093 14.1734 38.1584 14.3018 38.1584 14.454ZM39.3433 14.4838C39.3433 14.639 39.3911 14.7614 39.4835 14.8509C39.579 14.9405 39.6873 14.9822 39.8084 14.9822C39.974 14.9822 40.1078 14.9315 40.2097 14.8271C40.3117 14.7226 40.3595 14.5972 40.3595 14.454C40.3595 14.3048 40.3053 14.1794 40.2002 14.0779C40.0951 13.9795 39.9677 13.9287 39.8211 13.9287C39.6873 13.9287 39.5759 13.9735 39.4803 14.063C39.3911 14.1496 39.3433 14.2928 39.3433 14.4838Z" fill="#828282"/>
<path d="M42.0448 14.672L42.1945 14.7466C42.1435 14.8361 42.0894 14.9107 42.0225 14.9674C41.9588 15.0241 41.8855 15.0659 41.8027 15.0958C41.723 15.1256 41.6307 15.1405 41.5287 15.1405C41.3026 15.1405 41.1242 15.0719 40.9968 14.9316C40.8694 14.7913 40.8057 14.6361 40.8057 14.4601C40.8057 14.2959 40.8598 14.1467 40.9681 14.0183C41.1051 13.8542 41.2898 13.7706 41.5192 13.7706C41.7549 13.7706 41.946 13.8542 42.0862 14.0243C42.1881 14.1437 42.2391 14.2929 42.2391 14.469H40.9904C40.9936 14.6212 41.0446 14.7436 41.1465 14.8421C41.2452 14.9376 41.3695 14.9883 41.516 14.9883C41.5861 14.9883 41.6562 14.9764 41.723 14.9525C41.7899 14.9286 41.8473 14.8988 41.895 14.86C41.9396 14.8182 41.9906 14.7585 42.0448 14.672ZM42.0448 14.3228C42.0193 14.2332 41.9874 14.1616 41.9396 14.1079C41.8951 14.0542 41.8345 14.0124 41.7581 13.9795C41.6816 13.9467 41.6052 13.9318 41.5224 13.9318C41.3854 13.9318 41.2675 13.9736 41.172 14.0542C41.1019 14.1138 41.0477 14.2034 41.0095 14.3228H42.0448Z" fill="#828282"/>
<path d="M42.7519 13.8034V14.7674L43.7712 13.8034H43.7839V15.1047H43.6056V14.1496L42.5926 15.1047H42.5703V13.8034H42.7519ZM42.7264 13.2811H42.8952C42.9239 13.3229 42.9621 13.3528 43.0099 13.3736C43.0577 13.3945 43.115 13.4035 43.1851 13.4035C43.252 13.4035 43.3093 13.3945 43.3507 13.3766C43.3921 13.3587 43.4304 13.3259 43.4686 13.2811H43.631C43.6119 13.3528 43.5641 13.4124 43.4877 13.4602C43.4112 13.508 43.3093 13.5318 43.1819 13.5318C43.0577 13.5318 42.9557 13.508 42.8761 13.4602C42.7997 13.4124 42.7487 13.3528 42.7264 13.2811Z" fill="#828282"/>
<path d="M45.3543 14.672L45.5041 14.7466C45.4531 14.8361 45.3989 14.9107 45.332 14.9674C45.2683 15.0241 45.1951 15.0659 45.1123 15.0958C45.0326 15.1256 44.9402 15.1405 44.8383 15.1405C44.6122 15.1405 44.4338 15.0719 44.3064 14.9316C44.1789 14.7913 44.1152 14.6361 44.1152 14.4601C44.1152 14.2959 44.1694 14.1467 44.2777 14.0183C44.4147 13.8542 44.5994 13.7706 44.8288 13.7706C45.0645 13.7706 45.2556 13.8542 45.3957 14.0243C45.4977 14.1437 45.5486 14.2929 45.5486 14.469H44.3C44.3032 14.6212 44.3541 14.7436 44.4561 14.8421C44.5548 14.9376 44.679 14.9883 44.8256 14.9883C44.8957 14.9883 44.9657 14.9764 45.0326 14.9525C45.0995 14.9286 45.1569 14.8988 45.2046 14.86C45.2492 14.8182 45.3002 14.7585 45.3543 14.672ZM45.3543 14.3228C45.3289 14.2332 45.297 14.1616 45.2492 14.1079C45.2046 14.0542 45.1441 14.0124 45.0677 13.9795C44.9912 13.9467 44.9148 13.9318 44.8319 13.9318C44.695 13.9318 44.5771 13.9736 44.4816 14.0542C44.4115 14.1138 44.3573 14.2034 44.3191 14.3228H45.3543Z" fill="#828282"/>
<path d="M45.886 13.8035H46.0644V14.0422C46.1345 13.9527 46.2173 13.8841 46.3096 13.8363C46.402 13.7915 46.504 13.7677 46.6154 13.7677C46.8129 13.7677 46.9818 13.8333 47.1219 13.9676C47.2621 14.1019 47.3321 14.2601 47.3321 14.4481C47.3321 14.6391 47.2621 14.8033 47.1219 14.9346C46.9818 15.0689 46.8161 15.1346 46.6186 15.1346C46.5071 15.1346 46.4052 15.1137 46.3128 15.0689C46.2205 15.0242 46.1376 14.9615 46.0612 14.8749V15.5763H45.8828V13.8035H45.886ZM46.6027 13.9318C46.4466 13.9318 46.3192 13.9826 46.2109 14.084C46.1026 14.1855 46.0516 14.3109 46.0516 14.4601C46.0516 14.5586 46.0739 14.6481 46.1217 14.7257C46.1695 14.8033 46.2364 14.866 46.3256 14.9137C46.4148 14.9585 46.5071 14.9824 46.6027 14.9824C46.6983 14.9824 46.7875 14.9585 46.8735 14.9137C46.9595 14.866 47.0264 14.8003 47.0741 14.7167C47.1219 14.6332 47.1506 14.5466 47.1506 14.4541C47.1506 14.3616 47.1251 14.275 47.0773 14.1915C47.0295 14.1079 46.9595 14.0452 46.8766 13.9975C46.7938 13.9497 46.7015 13.9318 46.6027 13.9318Z" fill="#828282"/>
<path d="M48.0715 15.1046H47.667V13.8034H48.0652C48.2181 13.8034 48.3264 13.8362 48.3933 13.9019C48.4602 13.9675 48.492 14.0421 48.492 14.1317C48.492 14.263 48.4283 14.3525 48.3073 14.4003C48.4888 14.46 48.578 14.5764 48.578 14.7465C48.578 14.9852 48.4092 15.1046 48.0715 15.1046ZM47.8486 13.9466V14.3525H47.9664C48.0715 14.3525 48.1416 14.3495 48.1735 14.3406C48.2053 14.3316 48.2372 14.3137 48.2658 14.2809C48.2945 14.2481 48.3073 14.2063 48.3073 14.1555C48.3073 14.1018 48.2913 14.0571 48.2627 14.0183C48.234 13.9824 48.2021 13.9616 48.1671 13.9526C48.1321 13.9436 48.0652 13.9436 47.9632 13.9436H47.8486V13.9466ZM47.8486 14.5077V14.9644H48.0397C48.1289 14.9644 48.1958 14.9584 48.234 14.9494C48.2722 14.9405 48.3073 14.9166 48.3327 14.8808C48.3582 14.845 48.3741 14.8002 48.3741 14.7435C48.3741 14.6719 48.3518 14.6152 48.3041 14.5734C48.2563 14.5316 48.1926 14.5107 48.1161 14.5107H47.8486V14.5077Z" fill="#828282"/>
<path d="M50.0623 14.672L50.212 14.7466C50.1611 14.8361 50.1069 14.9107 50.04 14.9674C49.9763 15.0241 49.9031 15.0659 49.8203 15.0958C49.7406 15.1256 49.6482 15.1405 49.5463 15.1405C49.3202 15.1405 49.1418 15.0719 49.0144 14.9316C48.887 14.7913 48.8232 14.6361 48.8232 14.4601C48.8232 14.2959 48.8774 14.1467 48.9857 14.0183C49.1227 13.8542 49.3074 13.7706 49.5368 13.7706C49.7725 13.7706 49.9636 13.8542 50.1037 14.0243C50.2057 14.1437 50.2566 14.2929 50.2566 14.469H49.008C49.0112 14.6212 49.0621 14.7436 49.1641 14.8421C49.2628 14.9376 49.387 14.9883 49.5336 14.9883C49.6037 14.9883 49.6737 14.9764 49.7406 14.9525C49.8075 14.9286 49.8648 14.8988 49.9126 14.86C49.9572 14.8182 50.0082 14.7585 50.0623 14.672ZM50.0623 14.3228C50.0369 14.2332 50.005 14.1616 49.9572 14.1079C49.9126 14.0542 49.8521 14.0124 49.7757 13.9795C49.6992 13.9467 49.6228 13.9318 49.5399 13.9318C49.403 13.9318 49.2851 13.9736 49.1896 14.0542C49.1195 14.1138 49.0653 14.2034 49.0271 14.3228H50.0623Z" fill="#828282"/>
<path d="M50.594 13.8035H50.7724V14.0422C50.8425 13.9527 50.9253 13.8841 51.0177 13.8363C51.11 13.7915 51.212 13.7677 51.3235 13.7677C51.5209 13.7677 51.6898 13.8333 51.8299 13.9676C51.9701 14.1019 52.0402 14.2601 52.0402 14.4481C52.0402 14.6391 51.9701 14.8033 51.8299 14.9346C51.6898 15.0689 51.5241 15.1346 51.3266 15.1346C51.2151 15.1346 51.1132 15.1137 51.0208 15.0689C50.9285 15.0242 50.8456 14.9615 50.7692 14.8749V15.5763H50.5908V13.8035H50.594ZM51.3075 13.9318C51.1514 13.9318 51.024 13.9826 50.9157 14.084C50.8074 14.1855 50.7565 14.3109 50.7565 14.4601C50.7565 14.5586 50.7788 14.6481 50.8265 14.7257C50.8743 14.8033 50.9412 14.866 51.0304 14.9137C51.1196 14.9585 51.212 14.9824 51.3075 14.9824C51.4031 14.9824 51.4923 14.9585 51.5783 14.9137C51.6643 14.866 51.7312 14.8003 51.779 14.7167C51.8267 14.6332 51.8554 14.5466 51.8554 14.4541C51.8554 14.3616 51.8299 14.275 51.7821 14.1915C51.7344 14.1079 51.6643 14.0452 51.5815 13.9975C51.4986 13.9497 51.4095 13.9318 51.3075 13.9318Z" fill="#828282"/>
<path d="M52.375 13.8034H52.5534V14.3525L53.1968 13.8034H53.4453L52.7413 14.4003L53.5026 15.1076H53.251L52.6107 14.5047L52.5534 14.5525V15.1076H52.375V13.8034Z" fill="#828282"/>
<path d="M53.8652 13.8034V14.7674L54.8845 13.8034H54.8972V15.1046H54.7188V14.1496L53.7059 15.1046H53.6836V13.8034H53.8652Z" fill="#828282"/>
<path d="M56.0537 15.1047V13.3438H56.0951L57.3438 14.6928V13.3438H57.5285V15.1047H57.4871L56.248 13.7736V15.1047H56.0537ZM58.6243 14.3466C58.6243 14.46 58.5797 14.5585 58.4937 14.6391C58.4077 14.7197 58.3026 14.7615 58.1815 14.7615C58.0605 14.7615 57.9554 14.7197 57.8694 14.6391C57.7834 14.5585 57.7419 14.46 57.7419 14.3466C57.7419 14.2332 57.7865 14.1347 57.8725 14.0541C57.9585 13.9735 58.0637 13.9318 58.1847 13.9318C58.3058 13.9318 58.4109 13.9735 58.4969 14.0541C58.5829 14.1347 58.6243 14.2332 58.6243 14.3466ZM57.7419 14.9823H58.6243V15.1047H57.7419V14.9823ZM58.465 14.3466C58.465 14.275 58.4364 14.2123 58.3822 14.1616C58.3281 14.1108 58.2612 14.084 58.1847 14.084C58.1083 14.084 58.0414 14.1108 57.9872 14.1616C57.9331 14.2123 57.9044 14.275 57.9044 14.3466C57.9044 14.4182 57.9331 14.4809 57.9872 14.5316C58.0414 14.5824 58.1083 14.6092 58.1847 14.6092C58.2612 14.6092 58.3281 14.5824 58.3822 14.5316C58.4364 14.4809 58.465 14.4182 58.465 14.3466Z" fill="#828282"/>
<path d="M59.1789 13.3438H59.5484V15.1047H59.3636V13.5169H59.0674L59.1789 13.3438Z" fill="#828282"/>
</g>
<defs>
<clipPath id="clip0">
<rect width="60.6936" height="16" fill="white" transform="translate(0.109375)"/>
</clipPath>
</defs>
</svg>
