<svg width="22" height="37" viewBox="0 0 22 37" fill="none" xmlns="http://www.w3.org/2000/svg">
<path d="M17.4002 26.2617C17.4002 26.5895 17.666 26.8553 17.9938 26.8553C18.3216 26.8553 18.5875 26.5895 18.5875 26.2617V25.0211C18.5875 24.6932 18.3217 24.4275 17.9938 24.4275C17.666 24.4275 17.4002 24.6932 17.4002 25.0211V26.2617Z" fill="#828282" stroke="#828282" stroke-width="0.1"/>
<path d="M17.4002 19.7428C17.4002 20.0706 17.666 20.3364 17.9938 20.3364C18.3216 20.3364 18.5875 20.0706 18.5875 19.7428V18.5022C18.5875 18.1743 18.3217 17.9086 17.9938 17.9086C17.666 17.9086 17.4002 18.1743 17.4002 18.5022V19.7428Z" fill="#828282" stroke="#828282" stroke-width="0.1"/>
<path d="M19.764 21.3592L19.764 21.3592C19.874 21.5497 20.0736 21.6561 20.2786 21.6561C20.3794 21.6561 20.4815 21.6304 20.5749 21.5765C20.5749 21.5765 20.5749 21.5765 20.5749 21.5765L21.6493 20.9562L21.6493 20.9562C21.9332 20.7922 22.0305 20.4292 21.8665 20.1453C21.7026 19.8614 21.3396 19.7641 21.0556 19.928L21.0556 19.928L19.9813 20.5483L19.9813 20.5483C19.6974 20.7123 19.6001 21.0753 19.764 21.3592Z" fill="#828282" stroke="#828282" stroke-width="0.1"/>
<path d="M14.1205 24.6187L14.1205 24.6187C14.2305 24.8092 14.43 24.9156 14.6351 24.9156C14.7358 24.9156 14.838 24.8899 14.9314 24.836C14.9314 24.836 14.9314 24.836 14.9314 24.836L16.0057 24.2157L16.0057 24.2157C16.2896 24.0517 16.3869 23.6887 16.223 23.4048L16.223 23.4048C16.059 23.1209 15.6961 23.0235 15.4121 23.1875L15.4121 23.1875L14.3377 23.8078L14.3377 23.8078C14.0538 23.9718 13.9565 24.3348 14.1205 24.6187Z" fill="#828282" stroke="#828282" stroke-width="0.1"/>
<path d="M14.3377 20.9562L14.3377 20.9562C14.0538 20.7922 13.9565 20.4292 14.1205 20.1452L14.1205 20.1452C14.2845 19.8613 14.6475 19.7641 14.9314 19.928C14.9314 19.928 14.9314 19.928 14.9314 19.928L16.0057 20.5483L16.0057 20.5483C16.2896 20.7122 16.3869 21.0753 16.223 21.3592C16.223 21.3592 16.223 21.3592 16.223 21.3592L16.1797 21.3342C16.079 21.5086 15.8962 21.606 15.7083 21.606C15.6161 21.606 15.5226 21.5826 15.4371 21.5331L14.3377 20.9562ZM14.3377 20.9562L15.4121 21.5764M14.3377 20.9562L15.4121 21.5764M15.4121 21.5764C15.4121 21.5764 15.4121 21.5764 15.4121 21.5764L15.4121 21.5764Z" fill="#828282" stroke="#828282" stroke-width="0.1"/>
<path d="M19.9813 24.2157L19.9813 24.2157L21.0556 24.836C21.0556 24.836 21.0556 24.836 21.0556 24.836C21.149 24.8899 21.2512 24.9156 21.3519 24.9156C21.5569 24.9156 21.7565 24.8091 21.8665 24.6187L21.8665 24.6187C22.0305 24.3348 21.9332 23.9717 21.6493 23.8078L21.6493 23.8078L20.5749 23.1875C20.291 23.0236 19.928 23.1208 19.764 23.4048C19.6001 23.6887 19.6974 24.0517 19.9813 24.2157Z" fill="#828282" stroke="#828282" stroke-width="0.1"/>
<path d="M10.8415 22.9576C10.6852 22.9576 10.5323 22.8941 10.4218 22.7836C10.3113 22.6732 10.2479 22.5202 10.2479 22.3639C10.2479 22.2071 10.3113 22.0547 10.4218 21.9442L10.8415 22.9576ZM10.8415 22.9576C10.9983 22.9576 11.1507 22.8942 11.2611 22.7837C11.3723 22.6731 11.4351 22.52 11.4351 22.3639C11.4351 22.2078 11.3722 22.0548 11.2611 21.9442C11.1507 21.8337 10.9983 21.7703 10.8415 21.7703C10.6852 21.7703 10.5323 21.8337 10.4218 21.9442L10.8415 22.9576Z" fill="#828282" stroke="#828282" stroke-width="0.1"/>
<path d="M13.5926 6.35026L13.5572 6.38561L13.5926 6.42097L14.252 7.08035L14.2873 7.11571L14.3227 7.08035L16.0041 5.39893C16.3045 5.53348 16.6422 5.56183 16.9615 5.47865C17.2922 5.39249 17.5818 5.19218 17.7791 4.91315C17.9764 4.63411 18.0687 4.29431 18.0397 3.9538C18.0107 3.61328 17.8622 3.29398 17.6206 3.05233C17.3789 2.81068 17.0596 2.66224 16.7191 2.63324C16.3786 2.60424 16.0388 2.69655 15.7598 2.89385C15.4807 3.09116 15.2804 3.38076 15.1943 3.71146C15.1111 4.0307 15.1394 4.3684 15.274 4.66884L13.5926 6.35026ZM16.3005 3.78362L16.3005 3.78357C16.3686 3.71548 16.4582 3.67312 16.5541 3.66369C16.6499 3.65427 16.746 3.67837 16.8261 3.73188C16.9062 3.7854 16.9652 3.86502 16.9931 3.95718C17.0211 4.04934 17.0162 4.14833 16.9793 4.2373C16.9425 4.32626 16.8759 4.39969 16.7909 4.44507C16.706 4.49045 16.608 4.50497 16.5135 4.48616C16.4191 4.46736 16.3341 4.41639 16.273 4.34193C16.2119 4.26748 16.1785 4.17415 16.1786 4.07785V4.07778C16.1785 4.02313 16.1892 3.96901 16.2101 3.91853C16.2311 3.86805 16.2618 3.8222 16.3005 3.78362Z" fill="#828282" stroke="#828282" stroke-width="0.1"/>
<path d="M13.041 1.56003L13.041 1.61003C13.0776 1.61005 13.1141 1.61488 13.1495 1.6244L13.1495 1.62441C13.229 1.64574 13.3004 1.69016 13.3547 1.75207C13.409 1.81397 13.4436 1.89058 13.4544 1.9722C13.4651 2.05382 13.4514 2.13678 13.415 2.21061C13.3785 2.28443 13.321 2.3458 13.2497 2.38695C13.1784 2.4281 13.0965 2.44718 13.0144 2.44179C12.9323 2.43639 12.8536 2.40676 12.7883 2.35664C12.723 2.30652 12.674 2.23816 12.6475 2.16021C12.6221 2.08526 12.6186 2.00468 12.6373 1.92791L12.6397 1.91872C12.6635 1.83033 12.7156 1.75221 12.7882 1.69642C12.8607 1.64063 12.9496 1.61027 13.0411 1.61003L13.041 1.56003ZM13.041 1.56003C13.082 1.56005 13.1229 1.56546 13.1625 1.57612L12.5914 1.90575C12.618 1.80676 12.6765 1.71927 12.7577 1.65679C12.839 1.5943 12.9385 1.5603 13.041 1.56003ZM12.5139 5.79826L12.5622 5.8112L12.5751 5.76291L13.19 3.46796C13.5192 3.4351 13.8278 3.29094 14.0644 3.05875C14.3096 2.81823 14.4617 2.49875 14.494 2.15684C14.5263 1.81493 14.4366 1.47263 14.2407 1.1905C14.0449 0.908368 13.7556 0.704598 13.424 0.615242C13.0924 0.525886 12.7399 0.556705 12.4288 0.702245C12.1177 0.847785 11.8682 1.09867 11.7243 1.41049C11.5804 1.72232 11.5514 2.075 11.6425 2.40613C11.7305 2.72583 11.9249 3.00554 12.1931 3.19936L11.5777 5.49569L11.5647 5.54398L11.613 5.55692L12.5139 5.79826Z" fill="#828282" stroke="#828282" stroke-width="0.1"/>
<path d="M9.40467 5.76284L9.41761 5.81114L9.4659 5.7982L10.3667 5.55686L10.415 5.54392L10.402 5.49562L9.78642 3.19931C10.0305 3.02244 10.2135 2.7736 10.3095 2.48727C10.4093 2.18972 10.4097 1.8678 10.3106 1.57001C10.2116 1.27222 10.0184 1.01468 9.76031 0.83618C9.50218 0.657681 9.19304 0.567892 8.87945 0.580335C8.56586 0.592779 8.26481 0.706781 8.02163 0.905172C7.77846 1.10356 7.60633 1.3756 7.53118 1.6803C7.45603 1.98501 7.48193 2.30588 7.60497 2.59459C7.728 2.8833 7.94152 3.12422 8.21336 3.28104L8.22496 3.28774H8.22533C8.39907 3.38618 8.59127 3.44747 8.78976 3.46781L9.40467 5.76284ZM8.52486 1.97202C8.5313 1.92288 8.54651 1.87534 8.56975 1.83165L8.57748 1.81827C8.62564 1.73488 8.70122 1.67077 8.79136 1.63686C8.88149 1.60295 8.98059 1.60135 9.07177 1.63231C9.16295 1.66328 9.24058 1.7249 9.29142 1.80669C9.34226 1.88847 9.36317 1.98535 9.35059 2.08083C9.33801 2.1763 9.29272 2.26446 9.22242 2.33028C9.15213 2.3961 9.06119 2.43551 8.9651 2.4418C8.86901 2.44809 8.77371 2.42086 8.69544 2.36476C8.61717 2.30867 8.56077 2.22716 8.53585 2.13414L8.53581 2.13398C8.52149 2.08125 8.51777 2.0262 8.52486 1.97202Z" fill="#828282" stroke="#828282" stroke-width="0.1"/>
<path d="M5.38618 5.526H5.38625C5.59008 5.52559 5.79141 5.48226 5.97716 5.39897L7.65857 7.08037L7.69392 7.11573L7.72928 7.08037L8.38866 6.42099L8.42402 6.38564L8.38866 6.35028L6.70722 4.66884C6.83023 4.39361 6.86438 4.08652 6.80439 3.79047C6.74205 3.48282 6.58142 3.20376 6.3467 2.99533C6.11198 2.7869 5.81589 2.66039 5.50303 2.63487C5.19016 2.60934 4.87747 2.68617 4.61207 2.85379C4.34667 3.02142 4.14293 3.27075 4.03154 3.56422C3.92015 3.8577 3.90714 4.17942 3.99449 4.48093C4.08183 4.78244 4.26479 5.04739 4.5158 5.23589C4.76681 5.42438 5.07227 5.5262 5.38618 5.526ZM5.09181 3.78364L5.09186 3.78359C5.15997 3.7155 5.24958 3.67314 5.34541 3.66372C5.44125 3.65429 5.53739 3.67839 5.61746 3.73191C5.69752 3.78542 5.75655 3.86504 5.78449 3.9572C5.81242 4.04936 5.80754 4.14836 5.77067 4.23732C5.7338 4.32628 5.66723 4.39971 5.58229 4.44509C5.49735 4.49047 5.39931 4.50499 5.30486 4.48619C5.21041 4.46738 5.12541 4.41641 5.06433 4.34195C5.00326 4.2675 4.96988 4.17417 4.96991 4.07787L4.96991 4.0778C4.96984 4.02315 4.98057 3.96903 5.00149 3.91855C5.02242 3.86807 5.05311 3.82222 5.09181 3.78364ZM4.91991 4.07786C4.91983 4.01662 4.93186 3.95598 4.9553 3.89941C4.97875 3.84284 5.01314 3.79146 5.05651 3.74823L4.91991 4.07786Z" fill="#828282" stroke="#828282" stroke-width="0.1"/>
<path d="M2.95931 9.03065C3.08233 9.06371 3.20916 9.0805 3.33654 9.08062L3.3367 9.08062C3.57145 9.08011 3.80256 9.02249 4.01007 8.91274C4.2071 8.80853 4.37725 8.6603 4.50739 8.47975L6.8035 9.09512L6.8518 9.10806L6.86474 9.05976L7.10607 8.15898L7.11902 8.11068L7.07071 8.09775L4.77601 7.48318C4.7423 7.15566 4.59797 6.84897 4.36628 6.61404C4.12626 6.37068 3.80795 6.22 3.46758 6.18862C3.12722 6.15724 2.78672 6.24719 2.50626 6.44257C2.22579 6.63795 2.02343 6.92618 1.93491 7.25633L1.93491 7.25634C1.88567 7.4401 1.87311 7.63177 1.89794 7.8204C1.92278 8.00902 1.98452 8.1909 2.07965 8.35567C2.17477 8.52043 2.30142 8.66484 2.45236 8.78066C2.60329 8.89646 2.77555 8.98141 2.95931 9.03065ZM2.95931 9.03065L2.97228 8.98236M2.95931 9.03065C2.95932 9.03065 2.95933 9.03066 2.95934 9.03066L2.97228 8.98236M2.97228 8.98236C2.79485 8.93482 2.62853 8.85281 2.4828 8.74099C2.33707 8.62917 2.21479 8.48974 2.12295 8.33067C2.0311 8.17159 1.97149 7.99598 1.94751 7.81387C1.92354 7.63176 1.93567 7.4467 1.98321 7.26928M2.97228 8.98236C3.09109 9.01428 3.21357 9.03051 3.33659 9.03062C3.56323 9.03013 3.78635 8.9745 3.9867 8.86854C4.18704 8.76258 4.3586 8.60946 4.48657 8.42241L1.98321 7.26928M1.98321 7.26928L1.98321 7.26928L1.98321 7.26928ZM3.3335 7.16484L3.33344 7.21484C3.3701 7.21488 3.40659 7.21971 3.442 7.22921L3.442 7.22922C3.52151 7.25054 3.59291 7.29496 3.64718 7.35686C3.70144 7.41877 3.73613 7.49537 3.74687 7.57698C3.7576 7.6586 3.74389 7.74157 3.70747 7.81539C3.67105 7.88922 3.61356 7.95059 3.54227 7.99174C3.47097 8.03289 3.38908 8.05198 3.30694 8.0466C3.22479 8.04121 3.14609 8.01159 3.08079 7.96148C3.01548 7.91136 2.96649 7.84301 2.94003 7.76506C2.91459 7.69013 2.91106 7.60957 2.92974 7.53281L2.93222 7.52357C2.95594 7.43517 3.0081 7.35703 3.08065 7.30123C3.1532 7.24543 3.2421 7.21507 3.33363 7.21484L3.3335 7.16484ZM3.3335 7.16484C3.37451 7.16488 3.41535 7.17029 3.45496 7.18092L2.88393 7.51061C2.91049 7.41161 2.96891 7.3241 3.05016 7.2616C3.13142 7.19911 3.23099 7.1651 3.3335 7.16484Z" fill="#828282" stroke="#828282" stroke-width="0.1"/>
<path d="M13.6911 16.0405V16.0433C13.5345 15.9645 13.3646 15.9148 13.1899 15.8968L12.5753 13.6021L12.5624 13.5538L12.5141 13.5667L11.613 13.808L11.5647 13.821L11.5777 13.8693L12.1931 16.1655C11.949 16.3423 11.766 16.5912 11.67 16.8775C11.5702 17.1751 11.5698 17.497 11.6689 17.7948C11.7679 18.0926 11.9611 18.3501 12.2192 18.5286C12.4773 18.7071 12.7864 18.7969 13.1 18.7845C13.4136 18.772 13.7147 18.658 13.9579 18.4596C14.201 18.2612 14.3732 17.9892 14.4483 17.6845C14.5235 17.3798 14.4976 17.0589 14.3745 16.7702C14.2515 16.4815 14.038 16.2406 13.7661 16.0837L13.6911 16.0405ZM13.4024 17.5465L13.4023 17.5466C13.3541 17.63 13.2786 17.6941 13.1884 17.728C13.0983 17.762 12.9992 17.7636 12.908 17.7326C12.8168 17.7016 12.7392 17.64 12.6884 17.5582C12.6375 17.4764 12.6166 17.3796 12.6292 17.2841C12.6418 17.1886 12.6871 17.1005 12.7574 17.0346C12.8276 16.9688 12.9186 16.9294 13.0147 16.9231C13.1108 16.9168 13.2061 16.944 13.2843 17.0001C13.3626 17.0562 13.419 17.1377 13.4439 17.2308L13.444 17.2309C13.4582 17.2836 13.4619 17.3387 13.4548 17.3929C13.4476 17.4471 13.4298 17.4993 13.4024 17.5465Z" fill="#828282" stroke="#828282" stroke-width="0.1"/>
<path d="M14.3227 12.2847L14.2873 12.2493L14.252 12.2847L13.5926 12.944L13.5572 12.9794L13.5926 13.0147L15.274 14.6962C15.1394 14.9966 15.1111 15.3343 15.1943 15.6535C15.2804 15.9842 15.4807 16.2738 15.7598 16.4712C16.0388 16.6685 16.3786 16.7608 16.7191 16.7318C17.0596 16.7028 17.3789 16.5543 17.6206 16.3127C17.8622 16.071 18.0107 15.7517 18.0397 15.4112C18.0687 15.0707 17.9764 14.7309 17.7791 14.4519C17.5818 14.1728 17.2922 13.9725 16.9615 13.8864C16.6422 13.8032 16.3045 13.8315 16.0041 13.9661L14.3227 12.2847ZM16.8896 15.5812L16.8894 15.5814C16.8311 15.6397 16.757 15.6793 16.6762 15.6954C16.5955 15.7114 16.5118 15.7032 16.4357 15.6717C16.3597 15.6402 16.2947 15.5868 16.2489 15.5184C16.2032 15.4499 16.1788 15.3695 16.1788 15.2871C16.1788 15.2048 16.2032 15.1243 16.2489 15.0559C16.2947 14.9874 16.3597 14.9341 16.4357 14.9026C16.5118 14.8711 16.5955 14.8628 16.6762 14.8789C16.757 14.895 16.8311 14.9346 16.8894 14.9928L16.8896 14.9931C16.9285 15.0315 16.9595 15.0773 16.9806 15.1278C17.0017 15.1782 17.0125 15.2324 17.0125 15.2871C17.0125 15.3419 17.0017 15.396 16.9806 15.4465C16.9595 15.497 16.9285 15.5428 16.8896 15.5812Z" fill="#828282" stroke="#828282" stroke-width="0.1"/>
<path d="M17.4714 10.8852C17.6641 10.6181 17.9423 10.4243 18.2604 10.3365C18.59 10.2455 18.9411 10.2741 19.2516 10.4172C19.5622 10.5603 19.812 10.8086 19.957 11.1182C20.102 11.4279 20.1327 11.7788 20.0437 12.1089L20.0437 12.1089C19.961 12.4164 19.7795 12.6881 19.5272 12.8822C19.2747 13.0764 18.9653 13.1821 18.6468 13.183L18.6466 13.183L17.4714 10.8852ZM17.4714 10.8852L15.1752 10.2699L15.1269 10.2569L15.1139 10.3052L14.8726 11.206L14.8597 11.2543L14.908 11.2672L17.2028 11.8818C17.2324 12.1675 17.3463 12.4383 17.5303 12.6595C17.7219 12.8899 17.9801 13.0553 18.2695 13.133L17.4714 10.8852ZM18.6437 11.2675L18.6437 11.3175C18.7075 11.3175 18.7706 11.3322 18.8279 11.3604C18.8852 11.3887 18.9353 11.4297 18.9742 11.4804C19.0131 11.531 19.0399 11.59 19.0524 11.6526C19.0649 11.7153 19.0629 11.7799 19.0465 11.8416C19.0263 11.9166 18.9856 11.9845 18.9289 12.0376C18.8722 12.0907 18.8018 12.1268 18.7257 12.142C18.6495 12.1571 18.5707 12.1507 18.498 12.1233C18.4253 12.096 18.3617 12.0489 18.3144 11.9873C18.2671 11.9257 18.2379 11.8522 18.2302 11.7749C18.2226 11.6976 18.2367 11.6197 18.2709 11.5501C18.3052 11.4804 18.3583 11.4217 18.4241 11.3806C18.49 11.3395 18.5661 11.3176 18.6437 11.3175L18.6437 11.2675ZM18.6437 11.2675C18.7152 11.2675 18.7858 11.284 18.85 11.3156C18.9142 11.3472 18.9702 11.3932 19.0138 11.4499C19.0574 11.5067 19.0874 11.5727 19.1014 11.6428C19.1155 11.713 19.1132 11.7855 19.0947 11.8546L18.9631 12.0741C18.8996 12.1335 18.8208 12.174 18.7354 12.191C18.6501 12.208 18.5618 12.2008 18.4804 12.1701C18.399 12.1395 18.3277 12.0868 18.2747 12.0178C18.2217 11.9488 18.1891 11.8664 18.1805 11.7798C18.1719 11.6933 18.1877 11.6061 18.2261 11.528C18.2644 11.4499 18.3239 11.3842 18.3977 11.3381C18.4715 11.2921 18.5567 11.2676 18.6437 11.2675Z" fill="#828282" stroke="#828282" stroke-width="0.1"/>
<path d="M17.3492 6.98181H17.3462L17.3895 6.90681C17.5087 6.7005 17.6768 6.52675 17.8791 6.40095C18.0814 6.27515 18.3116 6.20119 18.5494 6.1856C18.7871 6.17002 19.025 6.2133 19.242 6.31161C19.459 6.40992 19.6484 6.56022 19.7934 6.74922C19.9385 6.93821 20.0346 7.16005 20.0735 7.39509C20.1123 7.63014 20.0926 7.87113 20.016 8.09673C19.9395 8.32232 19.8085 8.52556 19.6346 8.68844C19.4608 8.85132 19.2495 8.96881 19.0194 9.03051C19.0194 9.03051 19.0193 9.03051 19.0193 9.03052L17.3492 6.98181ZM17.3492 6.98181C17.2704 7.13844 17.2207 7.30827 17.2027 7.48298L14.908 8.09784L14.8597 8.11078L14.8726 8.15907L15.1139 9.05985L15.1269 9.10815L15.1752 9.09521L17.4715 8.4799L17.3492 6.98181ZM18.2407 7.39805C18.2711 7.34491 18.3118 7.29835 18.3604 7.26105C18.409 7.22376 18.4645 7.19647 18.5237 7.18078C18.5828 7.1648 18.6446 7.16069 18.7053 7.16869C18.766 7.17669 18.8246 7.19665 18.8775 7.22741C18.9574 7.27351 19.0218 7.34225 19.0626 7.42496C19.1034 7.50766 19.1187 7.6006 19.1067 7.69202C19.0947 7.78345 19.0558 7.86925 18.995 7.93859C18.9342 8.00792 18.8542 8.05767 18.7651 8.08155C18.6761 8.10542 18.5819 8.10234 18.4946 8.07271C18.4073 8.04307 18.3307 7.98821 18.2746 7.91506C18.2184 7.8419 18.1852 7.75374 18.1792 7.66173C18.1732 7.56971 18.1945 7.47797 18.2407 7.39811V7.39805ZM18.2407 7.39805L18.2408 7.39811L18.284 7.42292C18.2851 7.42111 18.2861 7.41931 18.2872 7.41752L18.2907 7.4115V7.39811V7.39805H18.2407Z" fill="#828282" stroke="#828282" stroke-width="0.1"/>
<path d="M10.9751 8.5725C10.259 8.5725 9.67632 9.15515 9.67632 9.87126C9.67632 10.5873 10.259 11.17 10.9751 11.17C11.6912 11.17 12.2739 10.5874 12.2739 9.87127L10.9751 8.5725ZM10.9751 8.5725C11.6911 8.5725 12.2738 9.15514 12.2739 9.87126L10.9751 8.5725ZM8.47637 9.87126C8.47637 11.2491 9.59722 12.37 10.9751 12.37C12.3529 12.37 13.4739 11.2491 13.4739 9.87126C13.4739 8.49346 12.3529 7.37255 10.9751 7.37255C9.59728 7.37255 8.47637 8.4934 8.47637 9.87126Z" fill="#828282" stroke="#828282" stroke-width="0.1"/>
<path d="M10.2479 20.2085C10.2479 20.5364 10.5137 20.8022 10.8415 20.8022C11.1693 20.8022 11.4351 20.5364 11.4351 20.2085V18.4221C11.4351 18.0943 11.1693 17.8285 10.8415 17.8285C10.5137 17.8285 10.2479 18.0943 10.2479 18.4221V20.2085Z" fill="#828282" stroke="#828282" stroke-width="0.1"/>
<path d="M3.86602 13.9174C3.86602 15.1229 4.84678 16.1037 6.05239 16.1037C7.25801 16.1037 8.23877 15.123 8.23877 13.9174C8.23877 12.7117 7.25801 11.731 6.05239 11.731C4.84677 11.731 3.86602 12.7117 3.86602 13.9174ZM5.05329 13.9174C5.05329 13.3665 5.50152 12.9182 6.05239 12.9182C6.60321 12.9182 7.0515 13.3665 7.0515 13.9174C7.0515 14.4682 6.60326 14.9164 6.05239 14.9164C5.50152 14.9164 5.05329 14.4682 5.05329 13.9174Z" fill="#828282" stroke="#828282" stroke-width="0.1"/>
<path d="M5.45781 19.5041C5.45781 19.832 5.72364 20.0977 6.05145 20.0977C6.37925 20.0977 6.64508 19.832 6.64508 19.5041V17.7177C6.64508 17.3899 6.37931 17.1241 6.05145 17.1241C5.72364 17.1241 5.45781 17.3899 5.45781 17.7177V19.5041Z" fill="#828282" stroke="#828282" stroke-width="0.1"/>
<path d="M0.699565 17.0075L0.699571 17.0076C0.809595 17.198 1.00912 17.3044 1.2142 17.3044C1.31494 17.3044 1.41704 17.2787 1.51046 17.2248L1.51047 17.2248L3.05754 16.3316C3.05754 16.3316 3.05754 16.3316 3.05754 16.3316C3.34148 16.1677 3.43878 15.8047 3.27481 15.5207L3.27481 15.5207C3.11086 15.2368 2.74796 15.1395 2.46391 15.3034L2.46391 15.3034L0.916838 16.1966C0.916837 16.1966 0.916836 16.1966 0.916835 16.1966C0.632899 16.3605 0.535603 16.7236 0.699565 17.0075Z" fill="#828282" stroke="#828282" stroke-width="0.1"/>
<path d="M2.46391 12.5313L2.46392 12.5313L3.03254 11.5465L3.05754 11.5032L3.05754 11.5032L1.51048 10.61C1.51047 10.61 1.51047 10.61 1.51047 10.61C1.22646 10.4459 0.863461 10.5434 0.699565 10.8272C0.535603 11.1112 0.632899 11.4742 0.916835 11.6381C0.916836 11.6381 0.916837 11.6381 0.916838 11.6381L2.46391 12.5313Z" fill="#828282" stroke="#828282" stroke-width="0.1"/>
<path d="M5.49297 23.2571C5.49297 23.5849 5.7588 23.8507 6.0866 23.8507C6.41441 23.8507 6.68024 23.5849 6.68024 23.2571V21.4707C6.68024 21.1428 6.41447 20.877 6.0866 20.877C5.7588 20.877 5.49297 21.1428 5.49297 21.4707V23.2571Z" fill="#828282" stroke="#828282" stroke-width="0.1"/>
<path d="M10.8412 24.0117L4.3125 36.2291H17.3698L10.8412 24.0117Z" stroke="#828282" stroke-linejoin="round"/>
<line x1="7.38206" y1="30.735" x2="13.4696" y2="27.9696" stroke="#828282"/>
<line x1="5.88534" y1="33.0806" x2="14.1976" y2="29.355" stroke="#828282"/>
<line x1="7.12754" y1="36.1311" x2="15.7527" y2="32.3316" stroke="#828282"/>
</svg>
