<svg width="16" height="16" viewBox="0 0 16 16" fill="none" xmlns="http://www.w3.org/2000/svg">
<path d="M10.456 0H5.5445C1.0625 0 0 1.0625 0 5.5445V10.456C0 14.938 1.0625 16.0005 5.5445 16.0005H10.456C14.938 16.0005 16.0005 14.938 16.0005 10.456V5.5445C16.0005 1.0625 14.9275 0 10.456 0ZM12.917 11.414H11.7555C11.3155 11.414 11.18 11.065 10.3885 10.263C9.701 9.5965 9.3965 9.508 9.227 9.508C8.9875 9.508 8.9195 9.5755 8.9195 9.904V10.9535C8.9195 11.235 8.831 11.404 8.086 11.404C6.854 11.404 5.487 10.659 4.5285 9.271C3.083 7.237 2.6875 5.7135 2.6875 5.3985C2.6875 5.229 2.755 5.0705 3.0805 5.0705H4.2445C4.539 5.0705 4.651 5.206 4.7655 5.521C5.341 7.1825 6.2995 8.638 6.695 8.638C6.841 8.638 6.9085 8.5705 6.9085 8.198V6.482C6.864 5.6905 6.4475 5.6225 6.4475 5.3415C6.4475 5.206 6.5595 5.0705 6.739 5.0705H8.5695C8.817 5.0705 8.908 5.206 8.908 5.4975V7.8125C8.908 8.0625 9.02 8.151 9.0875 8.151C9.2335 8.151 9.3585 8.0625 9.629 7.7915C10.465 6.854 11.064 5.4085 11.064 5.4085C11.142 5.239 11.2775 5.0805 11.572 5.0805H12.736C13.085 5.0805 13.163 5.26 13.085 5.51C12.939 6.187 11.5145 8.1975 11.5145 8.1975C11.392 8.4005 11.345 8.489 11.5145 8.7155C11.6395 8.885 12.046 9.2365 12.3165 9.5515C12.814 10.1165 13.1965 10.5905 13.2985 10.9185C13.413 11.244 13.244 11.4135 12.9155 11.4135L12.917 11.414Z" fill="#828282"/>
</svg>
