<svg width="12" height="16" viewBox="0 0 12 16" fill="none" xmlns="http://www.w3.org/2000/svg">
<path id="Vector" d="M10.2 6.7L10.8 4.3C10.9 4 11.3 2.6 10.5 1.4C9.9 0.5 8.7 0 7 0H5C3.3 0 2.1 0.5 1.5 1.4C0.7 2.6 1.1 3.9 1.2 4.3L1.8 6.7C0.7 7.8 0 9.3 0 11C0 13.1 1.1 14.9 2.7 16H9.3C10.9 14.9 12 13.1 12 11C12 9.3 11.3 7.8 10.2 6.7ZM3.6 5.5L3.1 3.8V3.7C3.1 3.7 2.9 3 3.2 2.6C3.4 2.2 4 2 5 2H7C7.9 2 8.6 2.2 8.9 2.5C9.2 2.9 9 3.6 9 3.6L8.5 5.5C7.7 5.2 6.9 5 6 5C5.1 5 4.3 5.2 3.6 5.5Z" fill="black"/>
</svg>
