<svg width="25" height="33" viewBox="0 0 25 33" fill="none" xmlns="http://www.w3.org/2000/svg">
<path d="M16.3569 12.9145C16.0706 12.629 15.6062 12.629 15.3197 12.9145L0.799748 27.391C0.513365 27.6766 0.513365 28.1396 0.799748 28.4251L4.94829 32.5612C5.09152 32.7039 5.27919 32.7754 5.46686 32.7754C5.65453 32.7754 5.84227 32.7039 5.98543 32.5612L20.5055 18.0846C20.643 17.9475 20.7203 17.7615 20.7203 17.5676C20.7203 17.3737 20.643 17.1878 20.5055 17.0506L16.3569 12.9145ZM14.4618 22.0423H8.23893L11.4248 18.866H17.6477L14.4618 22.0423ZM9.80923 26.6809H3.58634L6.77212 23.5046H12.9949L9.80923 26.6809ZM15.8384 14.4656L18.7853 17.4036H12.8916L15.8384 14.4656ZM5.46686 31.0102L2.5913 28.1432H8.34249L5.46686 31.0102Z" fill="#828282"/>
<path d="M18.2177 15.9321C18.4054 15.9321 18.5931 15.8607 18.7363 15.718C20.8282 13.6323 22.166 10.9943 22.6046 8.08952C22.6649 7.69016 22.3891 7.31769 21.9886 7.25759C21.5878 7.19734 21.2144 7.47248 21.1542 7.87171C20.7626 10.4653 19.5678 12.8209 17.6992 14.6839C17.4128 14.9694 17.4127 15.4324 17.6991 15.718C17.8424 15.8607 18.03 15.9321 18.2177 15.9321Z" fill="#828282"/>
<path d="M23.5225 2.92707C23.7102 2.92707 23.8978 2.85571 24.0411 2.71291L24.7325 2.02355C25.0189 1.73803 25.0189 1.27505 24.7325 0.989449C24.446 0.703997 23.9818 0.703997 23.6953 0.989449L23.0038 1.6788C22.7175 1.96433 22.7175 2.42731 23.0038 2.71291C23.1472 2.85563 23.3347 2.92707 23.5225 2.92707Z" fill="#828282"/>
<path d="M20.065 6.3738C20.2527 6.3738 20.4403 6.30236 20.5835 6.15964L21.275 5.47028C21.5613 5.18476 21.5613 4.72178 21.275 4.43618C20.9885 4.15073 20.5243 4.15073 20.2378 4.43618L19.5463 5.12553C19.2599 5.41106 19.2599 5.87404 19.5463 6.15964C19.6896 6.30244 19.8773 6.3738 20.065 6.3738Z" fill="#828282"/>
<path d="M23.6949 6.15964C23.8381 6.30236 24.0258 6.3738 24.2134 6.3738C24.4012 6.3738 24.5888 6.30236 24.732 6.15964C25.0184 5.87411 25.0184 5.41113 24.732 5.12553L24.0406 4.43618C23.7541 4.15073 23.2899 4.15073 23.0034 4.43618C22.717 4.72171 22.717 5.18469 23.0034 5.47028L23.6949 6.15964Z" fill="#828282"/>
<path d="M20.2378 2.71291C20.3811 2.85563 20.5687 2.92707 20.7564 2.92707C20.9441 2.92707 21.1317 2.85571 21.275 2.71291C21.5613 2.42738 21.5613 1.9644 21.275 1.6788L20.5835 0.989449C20.2971 0.703997 19.8329 0.703997 19.5463 0.989449C19.2599 1.27497 19.2599 1.73796 19.5463 2.02355L20.2378 2.71291Z" fill="#828282"/>
</svg>
