<svg width="17" height="16" viewBox="0 0 17 16" fill="none" xmlns="http://www.w3.org/2000/svg">
<path d="M8.76876 5.33236C7.29972 5.33236 6.10087 6.53121 6.10087 8.00025C6.10087 9.46929 7.29972 10.6681 8.76876 10.6681C10.2378 10.6681 11.4366 9.46929 11.4366 8.00025C11.4366 6.53121 10.2378 5.33236 8.76876 5.33236ZM16.7704 8.00025C16.7704 6.89547 16.7804 5.8007 16.7184 4.69792C16.6563 3.41701 16.3641 2.28021 15.4275 1.34354C14.4888 0.404881 13.354 0.114676 12.0731 0.0526321C10.9683 -0.00941179 9.87354 0.000595309 8.77076 0.000595309C7.66598 0.000595309 6.5712 -0.00941179 5.46842 0.0526321C4.18752 0.114676 3.05071 0.406882 2.11405 1.34354C1.17539 2.28221 0.885184 3.41701 0.82314 4.69792C0.761096 5.8027 0.771103 6.89747 0.771103 8.00025C0.771103 9.10303 0.761096 10.1998 0.82314 11.3026C0.885184 12.5835 1.17739 13.7203 2.11405 14.657C3.05272 15.5956 4.18752 15.8858 5.46842 15.9479C6.5732 16.0099 7.66798 15.9999 8.77076 15.9999C9.87554 15.9999 10.9703 16.0099 12.0731 15.9479C13.354 15.8858 14.4908 15.5936 15.4275 14.657C16.3661 13.7183 16.6563 12.5835 16.7184 11.3026C16.7824 10.1998 16.7704 9.10503 16.7704 8.00025ZM8.76876 12.1052C6.49715 12.1052 4.66385 10.2719 4.66385 8.00025C4.66385 5.72864 6.49715 3.89535 8.76876 3.89535C11.0404 3.89535 12.8737 5.72864 12.8737 8.00025C12.8737 10.2719 11.0404 12.1052 8.76876 12.1052ZM13.0418 4.68591C12.5114 4.68591 12.0831 4.2576 12.0831 3.72723C12.0831 3.19685 12.5114 2.76855 13.0418 2.76855C13.5722 2.76855 14.0005 3.19685 14.0005 3.72723C14.0006 3.85317 13.9759 3.9779 13.9278 4.09429C13.8797 4.21067 13.8091 4.31642 13.72 4.40547C13.631 4.49452 13.5252 4.56513 13.4088 4.61325C13.2925 4.66138 13.1677 4.68607 13.0418 4.68591Z" fill="#828282"/>
</svg>
