<svg width="22" height="15" viewBox="0 0 22 15" fill="none" xmlns="http://www.w3.org/2000/svg">
<path d="M14 12H4C3.44771 12 3 11.5523 3 11V2C3 1.44771 3.44772 1 4 1H13C13.5523 1 14 1.44772 14 2V11.5417" stroke="#333333" stroke-width="2"/>
<path d="M13.4211 3H18.2102C18.5716 3 18.9048 3.19494 19.0819 3.50991L20.8717 6.69319C20.9558 6.84283 21 7.0116 21 7.18327V11C21 11.5523 20.5523 12 20 12H12" stroke="#333333" stroke-width="2"/>
<circle cx="7.5" cy="12.5" r="1.5" fill="white" stroke="#333333" stroke-width="2"/>
<circle cx="16.5" cy="12.5" r="1.5" fill="white" stroke="#333333" stroke-width="2"/>
<rect y="3" width="9" height="2" rx="1" fill="#333333"/>
<rect x="6" y="6" width="5" height="2" rx="1" fill="#333333"/>
</svg>
