<svg width="34" height="35" viewBox="0 0 34 35" fill="none" xmlns="http://www.w3.org/2000/svg">
<rect x="15.5737" y="17.4753" width="3.10142" height="20.4104" transform="rotate(45 15.5737 17.4753)" stroke="#828282"/>
<path d="M25.3286 13.1903C23.8464 13.5874 22.3176 12.7047 21.9204 11.2226C21.5233 9.74041 22.406 8.21152 23.8881 7.81439C25.3703 7.41724 26.8993 8.29998 27.2964 9.78209C27.6935 11.2642 26.8108 12.7931 25.3286 13.1903ZM24.2117 9.0218C23.3953 9.24054 22.9091 10.0827 23.1278 10.899C23.3466 11.7154 24.1888 12.2016 25.0051 11.9829C25.8214 11.7641 26.3077 10.922 26.089 10.1056C25.8702 9.28924 25.028 8.80307 24.2117 9.0218Z" fill="#828282"/>
<path d="M26.7289 18.417C26.3955 18.5063 26.0528 18.3085 25.9634 17.9751L25.3371 15.6374C25.2477 15.304 25.4456 14.9613 25.779 14.8719C26.1124 14.7826 26.4551 14.9804 26.5445 15.3139L27.1709 17.6516C27.2602 17.9849 27.0623 18.3277 26.7289 18.417Z" fill="#828282"/>
<path d="M23.4374 6.13278C23.1041 6.22211 22.7613 6.02426 22.672 5.69084L22.0392 3.32931C21.9499 2.99588 22.1478 2.65316 22.4811 2.56384C22.8145 2.47451 23.1573 2.67236 23.2466 3.00578L23.8794 5.36731C23.9687 5.70074 23.7708 6.04345 23.4374 6.13278Z" fill="#828282"/>
<path d="M28.4111 7.4653C28.2024 7.52122 27.9705 7.46727 27.8068 7.30357C27.5627 7.0595 27.5627 6.66376 27.8068 6.4197L29.5181 4.7084C29.7621 4.46435 30.1579 4.46436 30.4019 4.70839C30.646 4.95247 30.646 5.34821 30.4019 5.59226L28.6906 7.30356C28.6103 7.38396 28.5136 7.43785 28.4111 7.4653Z" fill="#828282"/>
<path d="M19.4189 16.4579C19.2102 16.5138 18.9784 16.4599 18.8146 16.2962C18.5705 16.0522 18.5705 15.6564 18.8146 15.4124L20.5259 13.7011C20.77 13.457 21.1656 13.457 21.4097 13.7011C21.6539 13.9451 21.6538 14.3409 21.4097 14.5849L19.6985 16.2962C19.6181 16.3766 19.5213 16.4305 19.4189 16.4579Z" fill="#828282"/>
<path d="M19.7962 9.7737C19.6938 9.80114 19.583 9.80287 19.4732 9.77347L17.1356 9.14708C16.8022 9.05777 16.6043 8.71506 16.6936 8.38162C16.783 8.04821 17.1256 7.8504 17.4591 7.9397L19.7968 8.56608C20.1302 8.65539 20.3281 8.99811 20.2387 9.33154C20.1788 9.55509 20.0048 9.7178 19.7962 9.7737Z" fill="#828282"/>
<path d="M32.0804 13.0652C31.978 13.0927 31.8672 13.0944 31.7574 13.065L29.4197 12.4386C29.0863 12.3493 28.8884 12.0066 28.9778 11.6732C29.0671 11.3398 29.4097 11.142 29.7433 11.2312L32.0809 11.8576C32.4144 11.9469 32.6122 12.2896 32.5229 12.6231C32.463 12.8467 32.289 13.0093 32.0804 13.0652Z" fill="#828282"/>
<path d="M18.0425 18.0568C17.5995 18.1755 17.1426 17.9117 17.0239 17.4687C16.9052 17.0257 17.169 16.5687 17.612 16.4501C18.0549 16.3314 18.5119 16.5952 18.6306 17.0382C18.7493 17.4811 18.4855 17.9381 18.0425 18.0568Z" fill="#828282"/>
<line x1="14.4058" y1="18.4639" x2="15.4106" y2="22.214" stroke="#828282"/>
<line x1="12.3145" y1="20.702" x2="13.3193" y2="24.4521" stroke="#828282"/>
<line x1="10.1002" y1="22.8728" x2="11.105" y2="26.6229" stroke="#828282"/>
</svg>
