<svg width="17" height="16" viewBox="0 0 16 16" fill="none" xmlns="http://www.w3.org/2000/svg">
<path d="M2.92745 0C1.30902 0 0.00585938 1.30316 0.00585938 2.92159V13.0789C0.00585938 14.6973 1.30902 16.0005 2.92745 16.0005H8.43262V9.74529H6.77857V7.49323H8.43262V5.56917C8.43262 4.05753 9.40991 2.66958 11.6612 2.66958C12.5727 2.66958 13.2468 2.75709 13.2468 2.75709L13.1937 4.86016C13.1937 4.86016 12.5063 4.85366 11.7562 4.85366C10.9444 4.85366 10.8142 5.22772 10.8142 5.8487V7.49324H13.2582L13.1517 9.74531H10.8142V16.0005H13.0847C14.7032 16.0005 16.0063 14.6973 16.0063 13.0789V2.92161C16.0063 1.30317 14.7032 1.60005e-05 13.0847 1.60005e-05H2.92743L2.92745 0Z" fill="#828282"/>
</svg>
