<svg width="38" height="36" viewBox="0 0 38 36" fill="none" xmlns="http://www.w3.org/2000/svg">
<path d="M31.5057 12.4173C31.5106 12.2867 31.5604 12.1625 31.6467 12.065C32.2853 11.3443 32.6369 10.42 32.6369 9.46424C32.6369 7.2979 30.8741 5.53438 28.7071 5.53438C26.54 5.53438 24.7772 7.2979 24.7772 9.46424M8.30096 16.2012C6.13392 16.2012 4.37109 14.4376 4.37109 12.2713C4.37109 10.813 5.18724 9.4874 6.45042 8.8116M11.1568 11.7099C8.37085 11.7099 6.10416 9.44319 6.10416 6.6572C6.10416 3.8712 8.37085 1.60451 11.1568 1.60451C13.9428 1.60451 16.2095 3.8712 16.2095 6.6572M16.0345 5.03332C16.864 4.2705 17.9272 3.85015 19.0654 3.85015C21.5419 3.85015 23.5567 5.86491 23.5567 8.34142M23.5031 7.29159C24.0687 7.1758 24.6427 7.20808 25.1831 7.38071" stroke="#828282"/>
<rect x="15.6299" y="25.2424" width="4.73373" height="9.8462" stroke="#828282"/>
<rect x="14.6758" y="18.6663" width="6.64022" height="6.82773" stroke="#828282"/>
<mask id="path-4-outside-1" maskUnits="userSpaceOnUse" x="11.415" y="6.36888" width="13" height="12" fill="black">
<rect fill="white" x="11.415" y="6.36888" width="13" height="12"/>
<path fill-rule="evenodd" clip-rule="evenodd" d="M23.6207 13.1486C23.6207 13.4215 23.5996 13.7004 23.5581 13.9774C23.5339 14.1384 23.3839 14.2495 23.2227 14.2252C23.0616 14.2011 22.9506 14.0509 22.9748 13.8899C23.012 13.6417 23.0309 13.3923 23.0309 13.1486C23.0309 13.1127 23.0303 13.0769 23.0293 13.0412C22.7906 13.3087 22.492 13.576 22.1541 13.8209C22.0677 13.8835 21.9541 13.8945 21.8573 13.8498C21.7604 13.805 21.6953 13.7113 21.6871 13.6049C21.5941 12.4063 21.1449 11.2435 20.8073 10.5167C20.6396 10.9613 20.3695 11.276 20.1461 11.4994C20.0788 11.5666 19.9833 11.5973 19.8895 11.5818C19.7957 11.5663 19.7151 11.5065 19.673 11.4212C19.3687 10.8035 19.0066 10.1401 18.6556 9.49717L18.6555 9.49715L18.6555 9.49713C18.4326 9.08874 18.2141 8.68859 18.0178 8.31363C17.8235 8.68483 17.6061 9.0832 17.3836 9.49073L17.3836 9.49074L17.3836 9.49076C17.0318 10.135 16.6676 10.8022 16.3627 11.4212C16.3207 11.5065 16.2401 11.5663 16.1462 11.5818C16.0523 11.5972 15.9569 11.5666 15.8896 11.4994C15.6663 11.276 15.3964 10.9616 15.2287 10.5173C14.8909 11.245 14.4414 12.4087 14.3486 13.6049C14.3403 13.7113 14.2752 13.805 14.1784 13.8498C14.0815 13.8946 13.968 13.8835 13.8816 13.8209C13.5436 13.576 13.245 13.3087 13.0064 13.0412C13.0053 13.0769 13.0048 13.1127 13.0048 13.1486C13.0048 14.6481 13.6838 16.1731 14.9051 17.1378C14.7045 17.2233 14.5081 17.3169 14.3163 17.418C13.135 16.3718 12.415 14.7731 12.415 13.1486C12.415 12.8193 12.4537 12.4976 12.53 12.1925C12.5599 12.0728 12.6612 11.9843 12.7839 11.9709C12.9066 11.9573 13.0246 12.0218 13.0798 12.1321C13.2161 12.4046 13.4821 12.7199 13.8233 13.0205C14.1121 11.1433 15.0667 9.5323 15.1109 9.45846C15.1791 9.34473 15.3148 9.2905 15.4425 9.3258C15.5703 9.36115 15.6588 9.47743 15.6588 9.61001C15.6588 10.0539 15.7731 10.4166 16.0319 10.7667C16.2932 10.2575 16.5846 9.72355 16.8665 9.20716L16.8665 9.20714L16.8665 9.20712L16.8665 9.20712C17.1964 8.60269 17.5131 8.0223 17.7532 7.53372C17.8028 7.43281 17.9054 7.36888 18.0178 7.36888C18.1303 7.36888 18.2329 7.43281 18.2825 7.53372C18.5223 8.02167 18.8385 8.6011 19.1681 9.20496L19.1681 9.20505L19.1681 9.20507L19.1681 9.20507L19.1681 9.20508C19.4501 9.72175 19.7419 10.2563 20.0038 10.7667C20.2626 10.4166 20.3769 10.0539 20.3769 9.61001C20.3769 9.47743 20.4654 9.36115 20.5932 9.3258C20.721 9.29047 20.8566 9.34473 20.9248 9.45846C20.969 9.5323 21.9236 11.1433 22.2124 13.0205C22.5536 12.7199 22.8196 12.4046 22.9559 12.1321C23.0111 12.0218 23.1291 11.9576 23.2518 11.9709C23.3745 11.9843 23.4758 12.0727 23.5057 12.1925C23.582 12.4976 23.6207 12.8193 23.6207 13.1486ZM21.7189 17.4179C22.0109 17.1604 22.2764 16.8694 22.5103 16.548C22.6061 16.4163 22.5771 16.2319 22.4454 16.136C22.3137 16.0402 22.1293 16.0692 22.0334 16.2009C21.7746 16.5565 21.4737 16.8716 21.1341 17.1394C21.3334 17.2244 21.5284 17.3174 21.7189 17.4179ZM20.0802 16.7752C20.0814 16.746 20.082 16.7167 20.082 16.6872C20.082 15.7133 19.6071 15.0009 19.1478 14.312C18.7184 13.6678 18.3127 13.0593 18.3127 12.264C18.3127 12.1011 18.1807 11.9691 18.0178 11.9691C17.855 11.9691 17.723 12.1011 17.723 12.264C17.723 13.0593 17.3173 13.6678 16.8879 14.312C16.4286 15.0009 15.9537 15.7133 15.9537 16.6872C15.9537 16.7167 15.9543 16.746 15.9555 16.7752C16.1488 16.7233 16.345 16.6786 16.5439 16.6413C16.5591 15.8683 16.9574 15.2709 17.3785 14.6392C17.6082 14.2947 17.8417 13.9445 18.0178 13.5585C18.194 13.9445 18.4275 14.2947 18.6572 14.6392C19.0783 15.2709 19.4766 15.8684 19.4918 16.6414C19.6907 16.6787 19.8869 16.7234 20.0802 16.7752ZM23.2078 15.2128C23.2078 15.3757 23.0758 15.5077 22.9129 15.5077C22.7501 15.5077 22.6181 15.3757 22.6181 15.2128C22.6181 15.05 22.7501 14.9179 22.9129 14.9179C23.0758 14.9179 23.2078 15.05 23.2078 15.2128Z"/>
</mask>
<path fill-rule="evenodd" clip-rule="evenodd" d="M23.6207 13.1486C23.6207 13.4215 23.5996 13.7004 23.5581 13.9774C23.5339 14.1384 23.3839 14.2495 23.2227 14.2252C23.0616 14.2011 22.9506 14.0509 22.9748 13.8899C23.012 13.6417 23.0309 13.3923 23.0309 13.1486C23.0309 13.1127 23.0303 13.0769 23.0293 13.0412C22.7906 13.3087 22.492 13.576 22.1541 13.8209C22.0677 13.8835 21.9541 13.8945 21.8573 13.8498C21.7604 13.805 21.6953 13.7113 21.6871 13.6049C21.5941 12.4063 21.1449 11.2435 20.8073 10.5167C20.6396 10.9613 20.3695 11.276 20.1461 11.4994C20.0788 11.5666 19.9833 11.5973 19.8895 11.5818C19.7957 11.5663 19.7151 11.5065 19.673 11.4212C19.3687 10.8035 19.0066 10.1401 18.6556 9.49717L18.6555 9.49715L18.6555 9.49713C18.4326 9.08874 18.2141 8.68859 18.0178 8.31363C17.8235 8.68483 17.6061 9.0832 17.3836 9.49073L17.3836 9.49074L17.3836 9.49076C17.0318 10.135 16.6676 10.8022 16.3627 11.4212C16.3207 11.5065 16.2401 11.5663 16.1462 11.5818C16.0523 11.5972 15.9569 11.5666 15.8896 11.4994C15.6663 11.276 15.3964 10.9616 15.2287 10.5173C14.8909 11.245 14.4414 12.4087 14.3486 13.6049C14.3403 13.7113 14.2752 13.805 14.1784 13.8498C14.0815 13.8946 13.968 13.8835 13.8816 13.8209C13.5436 13.576 13.245 13.3087 13.0064 13.0412C13.0053 13.0769 13.0048 13.1127 13.0048 13.1486C13.0048 14.6481 13.6838 16.1731 14.9051 17.1378C14.7045 17.2233 14.5081 17.3169 14.3163 17.418C13.135 16.3718 12.415 14.7731 12.415 13.1486C12.415 12.8193 12.4537 12.4976 12.53 12.1925C12.5599 12.0728 12.6612 11.9843 12.7839 11.9709C12.9066 11.9573 13.0246 12.0218 13.0798 12.1321C13.2161 12.4046 13.4821 12.7199 13.8233 13.0205C14.1121 11.1433 15.0667 9.5323 15.1109 9.45846C15.1791 9.34473 15.3148 9.2905 15.4425 9.3258C15.5703 9.36115 15.6588 9.47743 15.6588 9.61001C15.6588 10.0539 15.7731 10.4166 16.0319 10.7667C16.2932 10.2575 16.5846 9.72355 16.8665 9.20716L16.8665 9.20714L16.8665 9.20712L16.8665 9.20712C17.1964 8.60269 17.5131 8.0223 17.7532 7.53372C17.8028 7.43281 17.9054 7.36888 18.0178 7.36888C18.1303 7.36888 18.2329 7.43281 18.2825 7.53372C18.5223 8.02167 18.8385 8.6011 19.1681 9.20496L19.1681 9.20505L19.1681 9.20507L19.1681 9.20507L19.1681 9.20508C19.4501 9.72175 19.7419 10.2563 20.0038 10.7667C20.2626 10.4166 20.3769 10.0539 20.3769 9.61001C20.3769 9.47743 20.4654 9.36115 20.5932 9.3258C20.721 9.29047 20.8566 9.34473 20.9248 9.45846C20.969 9.5323 21.9236 11.1433 22.2124 13.0205C22.5536 12.7199 22.8196 12.4046 22.9559 12.1321C23.0111 12.0218 23.1291 11.9576 23.2518 11.9709C23.3745 11.9843 23.4758 12.0727 23.5057 12.1925C23.582 12.4976 23.6207 12.8193 23.6207 13.1486ZM21.7189 17.4179C22.0109 17.1604 22.2764 16.8694 22.5103 16.548C22.6061 16.4163 22.5771 16.2319 22.4454 16.136C22.3137 16.0402 22.1293 16.0692 22.0334 16.2009C21.7746 16.5565 21.4737 16.8716 21.1341 17.1394C21.3334 17.2244 21.5284 17.3174 21.7189 17.4179ZM20.0802 16.7752C20.0814 16.746 20.082 16.7167 20.082 16.6872C20.082 15.7133 19.6071 15.0009 19.1478 14.312C18.7184 13.6678 18.3127 13.0593 18.3127 12.264C18.3127 12.1011 18.1807 11.9691 18.0178 11.9691C17.855 11.9691 17.723 12.1011 17.723 12.264C17.723 13.0593 17.3173 13.6678 16.8879 14.312C16.4286 15.0009 15.9537 15.7133 15.9537 16.6872C15.9537 16.7167 15.9543 16.746 15.9555 16.7752C16.1488 16.7233 16.345 16.6786 16.5439 16.6413C16.5591 15.8683 16.9574 15.2709 17.3785 14.6392C17.6082 14.2947 17.8417 13.9445 18.0178 13.5585C18.194 13.9445 18.4275 14.2947 18.6572 14.6392C19.0783 15.2709 19.4766 15.8684 19.4918 16.6414C19.6907 16.6787 19.8869 16.7234 20.0802 16.7752ZM23.2078 15.2128C23.2078 15.3757 23.0758 15.5077 22.9129 15.5077C22.7501 15.5077 22.6181 15.3757 22.6181 15.2128C22.6181 15.05 22.7501 14.9179 22.9129 14.9179C23.0758 14.9179 23.2078 15.05 23.2078 15.2128Z" fill="#828282"/>
<path d="M23.5581 13.9774L23.3603 13.9477L23.3603 13.9477L23.5581 13.9774ZM23.2227 14.2252L23.2525 14.0275L23.2523 14.0275L23.2227 14.2252ZM22.9748 13.8899L22.777 13.8602L22.777 13.8602L22.9748 13.8899ZM23.0293 13.0412L23.2292 13.0353L23.2142 12.5334L22.88 12.9081L23.0293 13.0412ZM22.1541 13.8209L22.2715 13.9828L22.2715 13.9828L22.1541 13.8209ZM21.8573 13.8498L21.7734 14.0313L21.7734 14.0313L21.8573 13.8498ZM21.6871 13.6049L21.4877 13.6204V13.6204L21.6871 13.6049ZM20.8073 10.5167L20.9886 10.4324L20.7881 10.0007L20.6201 10.4461L20.8073 10.5167ZM20.1461 11.4994L20.0046 11.3579L20.1461 11.4994ZM19.8895 11.5818L19.8568 11.7791L19.8568 11.7791L19.8895 11.5818ZM19.673 11.4212L19.8525 11.3328L19.8524 11.3328L19.673 11.4212ZM18.6556 9.49717L18.4782 9.5897L18.48 9.593L18.6556 9.49717ZM18.6555 9.49715L18.8331 9.40453L18.8283 9.39638L18.6555 9.49715ZM18.6555 9.49713L18.4799 9.59301L18.4828 9.59791L18.6555 9.49713ZM18.0178 8.31363L18.195 8.22088L18.0179 7.88237L17.8407 8.22088L18.0178 8.31363ZM17.3836 9.49073L17.5573 9.58998L17.5591 9.58657L17.3836 9.49073ZM17.3836 9.49074L17.2098 9.39146L17.2066 9.39759L17.3836 9.49074ZM17.3836 9.49076L17.5591 9.5866L17.5605 9.58391L17.3836 9.49076ZM16.3627 11.4212L16.1833 11.3328L16.1832 11.3328L16.3627 11.4212ZM16.1462 11.5818L16.1787 11.7791L16.1789 11.7791L16.1462 11.5818ZM15.8896 11.4994L15.7482 11.6408L15.7482 11.6408L15.8896 11.4994ZM15.2287 10.5173L15.4158 10.4466L15.2476 10.0013L15.0472 10.4331L15.2287 10.5173ZM14.3486 13.6049L14.548 13.6204L14.548 13.6204L14.3486 13.6049ZM14.1784 13.8498L14.2623 14.0313H14.2623L14.1784 13.8498ZM13.8816 13.8209L13.7642 13.9828L13.7642 13.9829L13.8816 13.8209ZM13.0064 13.0412L13.1557 12.9081L12.8214 12.5334L12.8065 13.0353L13.0064 13.0412ZM14.9051 17.1378L14.9835 17.3218L15.2934 17.1897L15.0291 16.9809L14.9051 17.1378ZM14.3163 17.418L14.1837 17.5677L14.2873 17.6594L14.4096 17.5949L14.3163 17.418ZM12.53 12.1925L12.336 12.1439L12.336 12.144L12.53 12.1925ZM12.7839 11.9709L12.8057 12.1697L12.8058 12.1696L12.7839 11.9709ZM13.0798 12.1321L13.2587 12.0427L13.2587 12.0426L13.0798 12.1321ZM13.8233 13.0205L13.6911 13.1706L13.9654 13.4122L14.021 13.0509L13.8233 13.0205ZM15.1109 9.45846L14.9394 9.35564L14.9393 9.35569L15.1109 9.45846ZM15.4425 9.3258L15.4958 9.13304L15.4958 9.13302L15.4425 9.3258ZM16.0319 10.7667L15.8711 10.8856L16.0627 11.1448L16.2098 10.858L16.0319 10.7667ZM16.8665 9.20716L16.6924 9.10854L16.6909 9.11134L16.8665 9.20716ZM16.8665 9.20714L17.0406 9.3058L17.0438 9.29965L16.8665 9.20714ZM16.8665 9.20712L16.6927 9.10782L16.6892 9.11461L16.8665 9.20712ZM16.8665 9.20712L17.0402 9.30637L17.042 9.30293L16.8665 9.20712ZM17.7532 7.53372L17.5737 7.4455L17.5737 7.44552L17.7532 7.53372ZM18.2825 7.53372L18.462 7.44552L18.462 7.4455L18.2825 7.53372ZM19.1681 9.20496L19.3438 9.10947L19.3436 9.10914L19.1681 9.20496ZM19.1681 9.20505L18.9923 9.30059L18.9955 9.30609L19.1681 9.20505ZM19.1681 9.20507L18.9952 9.30628L19.0017 9.31601L19.1681 9.20507ZM19.1681 9.20507L19.3422 9.10561L19.3345 9.09413L19.1681 9.20507ZM19.1681 9.20508L19.3437 9.10925L19.3418 9.10585L19.1681 9.20508ZM20.0038 10.7667L19.8259 10.858L19.973 11.1448L20.1646 10.8856L20.0038 10.7667ZM20.5932 9.3258L20.5399 9.13303L20.5399 9.13304L20.5932 9.3258ZM20.9248 9.45846L21.0964 9.35574L21.0964 9.35567L20.9248 9.45846ZM22.2124 13.0205L22.0147 13.0509L22.0703 13.4122L22.3446 13.1706L22.2124 13.0205ZM22.9559 12.1321L22.777 12.0426L22.777 12.0427L22.9559 12.1321ZM23.2518 11.9709L23.2736 11.772L23.2734 11.772L23.2518 11.9709ZM23.5057 12.1925L23.6997 12.144L23.6997 12.144L23.5057 12.1925ZM21.7189 17.4179L21.6256 17.5948L21.7477 17.6592L21.8512 17.5679L21.7189 17.4179ZM22.5103 16.548L22.672 16.6657L22.672 16.6657L22.5103 16.548ZM22.4454 16.136L22.5631 15.9743L22.5631 15.9743L22.4454 16.136ZM22.0334 16.2009L22.1951 16.3186L22.1952 16.3186L22.0334 16.2009ZM21.1341 17.1394L21.0103 16.9824L20.7457 17.1911L21.0556 17.3233L21.1341 17.1394ZM20.0802 16.7752L20.0284 16.9684L20.2695 17.033L20.28 16.7837L20.0802 16.7752ZM19.1478 14.312L18.9814 14.423L18.9814 14.423L19.1478 14.312ZM16.8879 14.312L17.0543 14.423L17.0543 14.423L16.8879 14.312ZM15.9555 16.7752L15.7557 16.7836L15.7662 17.033L16.0073 16.9683L15.9555 16.7752ZM16.5439 16.6413L16.5808 16.8379L16.7406 16.8079L16.7438 16.6453L16.5439 16.6413ZM17.3785 14.6392L17.2121 14.5282L17.2121 14.5282L17.3785 14.6392ZM18.0178 13.5585L18.1998 13.4755L18.0178 13.0768L17.8359 13.4755L18.0178 13.5585ZM18.6572 14.6392L18.8236 14.5282L18.8236 14.5282L18.6572 14.6392ZM19.4918 16.6414L19.2919 16.6453L19.2951 16.808L19.4549 16.838L19.4918 16.6414ZM23.7558 14.007C23.7988 13.7205 23.8207 13.4317 23.8207 13.1486H23.4207C23.4207 13.4113 23.4004 13.6803 23.3603 13.9477L23.7558 14.007ZM23.1929 14.423C23.4637 14.4638 23.7153 14.2771 23.7558 14.007L23.3603 13.9477C23.3525 13.9997 23.3042 14.0353 23.2525 14.0275L23.1929 14.423ZM22.777 13.8602C22.7365 14.1305 22.9227 14.3825 23.193 14.423L23.2523 14.0275C23.2005 14.0197 23.1648 13.9714 23.1726 13.9195L22.777 13.8602ZM22.8309 13.1486C22.8309 13.3821 22.8128 13.6216 22.777 13.8602L23.1726 13.9195C23.2112 13.6619 23.2309 13.4026 23.2309 13.1486H22.8309ZM22.8294 13.0472C22.8304 13.0808 22.8309 13.1147 22.8309 13.1486H23.2309C23.2309 13.1107 23.2303 13.0729 23.2292 13.0353L22.8294 13.0472ZM22.2715 13.9828C22.6196 13.7306 22.9292 13.4538 23.1785 13.1744L22.88 12.9081C22.6521 13.1636 22.3645 13.4214 22.0367 13.659L22.2715 13.9828ZM21.7734 14.0313C21.9359 14.1064 22.1264 14.088 22.2715 13.9828L22.0368 13.659C22.009 13.6791 21.9724 13.6826 21.9412 13.6682L21.7734 14.0313ZM21.4877 13.6204C21.5015 13.799 21.6108 13.9561 21.7734 14.0313L21.9412 13.6682C21.9101 13.6538 21.8891 13.6237 21.8865 13.5895L21.4877 13.6204ZM20.6259 10.6009C20.9595 11.3191 21.3974 12.4566 21.4877 13.6204L21.8865 13.5895C21.7908 12.356 21.3303 11.1679 20.9886 10.4324L20.6259 10.6009ZM20.2875 11.6408C20.5203 11.4079 20.8124 11.0697 20.9944 10.5873L20.6201 10.4461C20.4667 10.8529 20.2186 11.144 20.0046 11.3579L20.2875 11.6408ZM19.8568 11.7791C20.0143 11.8051 20.1746 11.7536 20.2875 11.6408L20.0046 11.3579C19.983 11.3796 19.9523 11.3895 19.9221 11.3845L19.8568 11.7791ZM19.4936 11.5095C19.5641 11.6527 19.6994 11.7531 19.8568 11.7791L19.9221 11.3845C19.8919 11.3795 19.866 11.3602 19.8525 11.3328L19.4936 11.5095ZM18.48 9.593C18.8315 10.2368 19.1915 10.8963 19.4936 11.5095L19.8524 11.3328C19.5459 10.7106 19.1816 10.0434 18.8311 9.40133L18.48 9.593ZM18.4782 9.58966L18.4782 9.58968L18.8329 9.40465L18.8329 9.40464L18.4782 9.58966ZM18.4828 9.59791L18.4828 9.59793L18.8283 9.39638L18.8283 9.39636L18.4828 9.59791ZM17.8407 8.40638C18.0379 8.78318 18.2572 9.18492 18.48 9.59297L18.8311 9.4013C18.6079 8.99255 18.3904 8.594 18.195 8.22088L17.8407 8.40638ZM17.5591 9.58657C17.7814 9.17939 17.9998 8.77942 18.195 8.40639L17.8407 8.22088C17.6473 8.59024 17.4307 8.98701 17.208 9.3949L17.5591 9.58657ZM17.5572 9.58997L17.5572 9.58996L17.2099 9.39151L17.2099 9.39152L17.5572 9.58997ZM17.5605 9.58391L17.5606 9.58389L17.2066 9.39759L17.2066 9.39761L17.5605 9.58391ZM16.5421 11.5095C16.8448 10.895 17.2069 10.2317 17.5591 9.58659L17.208 9.39492C16.8568 10.0383 16.4904 10.7093 16.1833 11.3328L16.5421 11.5095ZM16.1789 11.7791C16.3363 11.7531 16.4716 11.6527 16.5421 11.5095L16.1832 11.3328C16.1697 11.3602 16.1438 11.3795 16.1136 11.3845L16.1789 11.7791ZM15.7482 11.6408C15.8611 11.7537 16.0213 11.805 16.1787 11.7791L16.1138 11.3844C16.0833 11.3894 16.0526 11.3795 16.0311 11.3579L15.7482 11.6408ZM15.0415 10.5879C15.2235 11.07 15.5155 11.408 15.7482 11.6408L16.0311 11.3579C15.8172 11.1441 15.5692 10.8532 15.4158 10.4466L15.0415 10.5879ZM14.548 13.6204C14.6381 12.459 15.0763 11.3207 15.4101 10.6015L15.0472 10.4331C14.7055 11.1694 14.2447 12.3583 14.1492 13.5895L14.548 13.6204ZM14.2623 14.0313C14.4249 13.9561 14.5341 13.799 14.548 13.6204L14.1492 13.5895C14.1465 13.6237 14.1256 13.6538 14.0944 13.6682L14.2623 14.0313ZM13.7642 13.9829C13.9092 14.0879 14.0997 14.1065 14.2623 14.0313L14.0944 13.6682C14.0633 13.6826 14.0267 13.6791 13.9989 13.6589L13.7642 13.9829ZM12.8571 13.1744C13.1064 13.4538 13.4161 13.7306 13.7642 13.9828L13.9989 13.659C13.6712 13.4214 13.3836 13.1636 13.1557 12.9081L12.8571 13.1744ZM13.2048 13.1486C13.2048 13.1147 13.2053 13.0808 13.2063 13.0472L12.8065 13.0353C12.8054 13.0729 12.8048 13.1107 12.8048 13.1486H13.2048ZM15.0291 16.9809C13.8589 16.0565 13.2048 14.591 13.2048 13.1486H12.8048C12.8048 14.7052 13.5087 16.2896 14.7811 17.2947L15.0291 16.9809ZM14.4096 17.5949C14.5965 17.4963 14.788 17.4051 14.9835 17.3218L14.8267 16.9538C14.6209 17.0415 14.4196 17.1374 14.223 17.2411L14.4096 17.5949ZM12.215 13.1486C12.215 14.8295 12.9589 16.483 14.1837 17.5677L14.4489 17.2683C13.3111 16.2606 12.615 14.7167 12.615 13.1486H12.215ZM12.336 12.144C12.2556 12.4657 12.215 12.8037 12.215 13.1486H12.615C12.615 12.8349 12.6519 12.5295 12.724 12.2409L12.336 12.144ZM12.762 11.772C12.5562 11.7947 12.3862 11.9431 12.336 12.1439L12.724 12.241C12.7336 12.2025 12.7662 12.174 12.8057 12.1697L12.762 11.772ZM13.2587 12.0426C13.1661 11.8576 12.9681 11.7493 12.762 11.7721L12.8058 12.1696C12.8451 12.1653 12.8831 12.1859 12.901 12.2216L13.2587 12.0426ZM13.9555 12.8704C13.6242 12.5785 13.3789 12.283 13.2587 12.0427L12.9009 12.2215C13.0532 12.5261 13.3399 12.8612 13.6911 13.1706L13.9555 12.8704ZM14.9393 9.35569C14.892 9.43475 13.9205 11.0731 13.6256 12.9901L14.021 13.0509C14.3036 11.2134 15.2414 9.62986 15.2825 9.56124L14.9393 9.35569ZM15.4958 9.13302C15.2815 9.07379 15.0538 9.16477 14.9394 9.35564L15.2824 9.56129C15.3044 9.52468 15.3481 9.50721 15.3892 9.51857L15.4958 9.13302ZM15.8588 9.61001C15.8588 9.38751 15.7103 9.19237 15.4958 9.13304L15.3892 9.51856C15.4303 9.52994 15.4588 9.56735 15.4588 9.61001H15.8588ZM16.1927 10.6478C15.9607 10.3339 15.8588 10.0133 15.8588 9.61001H15.4588C15.4588 10.0944 15.5855 10.4993 15.8711 10.8856L16.1927 10.6478ZM16.6909 9.11134C16.4093 9.62728 16.1167 10.1635 15.854 10.6754L16.2098 10.858C16.4698 10.3515 16.7599 9.81982 17.042 9.30297L16.6909 9.11134ZM16.6925 9.10854L16.6925 9.10855L17.0405 9.30576L17.0405 9.30574L16.6925 9.10854ZM16.6892 9.11461L16.6892 9.11463L17.0438 9.29965L17.0438 9.29964L16.6892 9.11461ZM16.6928 9.10789L16.6928 9.1079L17.0401 9.30635L17.0401 9.30635L16.6928 9.10789ZM17.5737 7.44552C17.3359 7.92944 17.0215 8.50568 16.6909 9.11131L17.042 9.30293C17.3713 8.6997 17.6903 8.11517 17.9327 7.62192L17.5737 7.44552ZM18.0178 7.16888C17.8291 7.16888 17.6569 7.27619 17.5737 7.4455L17.9327 7.62195C17.9487 7.58943 17.9817 7.56888 18.0178 7.56888V7.16888ZM18.462 7.4455C18.3788 7.27619 18.2066 7.16888 18.0178 7.16888V7.56888C18.054 7.56888 18.087 7.58943 18.103 7.62195L18.462 7.4455ZM19.3436 9.10914C19.0134 8.50409 18.6995 7.9288 18.462 7.44552L18.103 7.62192C18.3451 8.11454 18.6636 8.69811 18.9925 9.30077L19.3436 9.10914ZM19.3439 9.10956L19.3438 9.10947L18.9923 9.30045L18.9924 9.30054L19.3439 9.10956ZM19.3407 9.10403L19.3407 9.10402L18.9955 9.30609L18.9955 9.3061L19.3407 9.10403ZM19.3345 9.09413L19.3345 9.09413L19.0017 9.31601L19.0017 9.31601L19.3345 9.09413ZM19.3418 9.10585L19.3418 9.10584L18.9945 9.3043L18.9945 9.3043L19.3418 9.10585ZM20.1817 10.6754C19.9184 10.1623 19.6254 9.62548 19.3437 9.10926L18.9926 9.30089C19.2748 9.81801 19.5653 10.3503 19.8259 10.858L20.1817 10.6754ZM20.1769 9.61001C20.1769 10.0133 20.075 10.3339 19.843 10.6478L20.1646 10.8856C20.4502 10.4993 20.5769 10.0944 20.5769 9.61001H20.1769ZM20.5399 9.13304C20.3254 9.19237 20.1769 9.3875 20.1769 9.61001H20.5769C20.5769 9.56735 20.6054 9.52994 20.6465 9.51856L20.5399 9.13304ZM21.0964 9.35567C20.982 9.16479 20.7543 9.07375 20.5399 9.13303L20.6465 9.51856C20.6876 9.50719 20.7313 9.52467 20.7532 9.56126L21.0964 9.35567ZM22.4101 12.9901C22.1152 11.0731 21.1437 9.43474 21.0964 9.35574L20.7532 9.56119C20.7943 9.62987 21.7321 11.2134 22.0147 13.0509L22.4101 12.9901ZM22.777 12.0427C22.6568 12.283 22.4115 12.5785 22.0802 12.8704L22.3446 13.1706C22.6958 12.8612 22.9825 12.5261 23.1348 12.2215L22.777 12.0427ZM23.2734 11.772C23.0678 11.7497 22.8697 11.8573 22.777 12.0426L23.1347 12.2216C23.1524 12.1862 23.1903 12.1654 23.2303 12.1697L23.2734 11.772ZM23.6997 12.144C23.6495 11.943 23.4795 11.7946 23.2736 11.772L23.23 12.1697C23.2694 12.174 23.302 12.2024 23.3117 12.241L23.6997 12.144ZM23.8207 13.1486C23.8207 12.8037 23.7801 12.4657 23.6997 12.144L23.3117 12.2409C23.3838 12.5295 23.4207 12.8349 23.4207 13.1486H23.8207ZM21.8512 17.5679C22.1542 17.3007 22.4295 16.9988 22.672 16.6657L22.3486 16.4303C22.1232 16.7399 21.8676 17.0201 21.5866 17.2679L21.8512 17.5679ZM22.672 16.6657C22.8328 16.4447 22.7841 16.1351 22.5631 15.9743L22.3277 16.2977C22.3701 16.3286 22.3794 16.3879 22.3486 16.4303L22.672 16.6657ZM22.5631 15.9743C22.3421 15.8135 22.0325 15.8622 21.8717 16.0833L22.1952 16.3186C22.226 16.2763 22.2853 16.2668 22.3277 16.2977L22.5631 15.9743ZM21.8717 16.0832C21.6233 16.4245 21.335 16.7262 21.0103 16.9824L21.258 17.2964C21.6124 17.0169 21.926 16.6885 22.1951 16.3186L21.8717 16.0832ZM21.0556 17.3233C21.2498 17.4062 21.44 17.4968 21.6256 17.5948L21.8123 17.241C21.6169 17.138 21.4169 17.0427 21.2126 16.9555L21.0556 17.3233ZM20.28 16.7837C20.2814 16.7517 20.282 16.7195 20.282 16.6872H19.882C19.882 16.7139 19.8815 16.7404 19.8804 16.7668L20.28 16.7837ZM20.282 16.6872C20.282 15.6448 19.7702 14.885 19.3143 14.2011L18.9814 14.423C19.4441 15.1169 19.882 15.7818 19.882 16.6872H20.282ZM19.3143 14.2011C18.8795 13.5489 18.5127 12.9895 18.5127 12.264H18.1127C18.1127 13.1291 18.5573 13.7867 18.9814 14.423L19.3143 14.2011ZM18.5127 12.264C18.5127 11.9906 18.2912 11.7691 18.0178 11.7691V12.1691C18.0703 12.1691 18.1127 12.2116 18.1127 12.264H18.5127ZM18.0178 11.7691C17.7445 11.7691 17.523 11.9906 17.523 12.264H17.923C17.923 12.2116 17.9654 12.1691 18.0178 12.1691V11.7691ZM17.523 12.264C17.523 12.9895 17.1562 13.5489 16.7214 14.2011L17.0543 14.423C17.4784 13.7867 17.923 13.1291 17.923 12.264H17.523ZM16.7214 14.2011C16.2655 14.885 15.7537 15.6448 15.7537 16.6872H16.1537C16.1537 15.7818 16.5916 15.1169 17.0543 14.423L16.7214 14.2011ZM15.7537 16.6872C15.7537 16.7195 15.7543 16.7516 15.7557 16.7836L16.1553 16.7667C16.1542 16.7404 16.1537 16.7139 16.1537 16.6872H15.7537ZM16.0073 16.9683C16.1957 16.9178 16.3869 16.8743 16.5808 16.8379L16.507 16.4448C16.3031 16.483 16.1019 16.5288 15.9037 16.582L16.0073 16.9683ZM16.7438 16.6453C16.7577 15.9397 17.1185 15.3898 17.545 14.7501L17.2121 14.5282C16.7962 15.1521 16.3605 15.797 16.3439 16.6374L16.7438 16.6453ZM17.5449 14.7501C17.7732 14.4078 18.0159 14.0445 18.1998 13.6415L17.8359 13.4755C17.6675 13.8445 17.4432 14.1817 17.2121 14.5282L17.5449 14.7501ZM17.8359 13.6415C18.0198 14.0445 18.2625 14.4078 18.4908 14.7501L18.8236 14.5282C18.5925 14.1817 18.3682 13.8445 18.1998 13.4755L17.8359 13.6415ZM18.4907 14.7501C18.9172 15.3898 19.278 15.9398 19.2919 16.6453L19.6918 16.6374C19.6752 15.797 19.2395 15.1521 18.8236 14.5282L18.4907 14.7501ZM19.4549 16.838C19.6487 16.8743 19.84 16.9179 20.0284 16.9684L20.132 16.582C19.9338 16.5289 19.7326 16.4831 19.5287 16.4448L19.4549 16.838ZM22.9129 15.7077C23.1863 15.7077 23.4078 15.4861 23.4078 15.2128H23.0078C23.0078 15.2652 22.9653 15.3077 22.9129 15.3077V15.7077ZM22.4181 15.2128C22.4181 15.4861 22.6396 15.7077 22.9129 15.7077V15.3077C22.8605 15.3077 22.8181 15.2652 22.8181 15.2128H22.4181ZM22.9129 14.7179C22.6396 14.7179 22.4181 14.9395 22.4181 15.2128H22.8181C22.8181 15.1604 22.8605 15.1179 22.9129 15.1179V14.7179ZM23.4078 15.2128C23.4078 14.9395 23.1863 14.7179 22.9129 14.7179V15.1179C22.9653 15.1179 23.0078 15.1604 23.0078 15.2128H23.4078Z" fill="#828282" mask="url(#path-4-outside-1)"/>
<path d="M35.0191 1.57721C35.0191 1.57718 35.0197 1.57747 35.0208 1.57813L35.0191 1.57721ZM35.1345 1.68537C35.1598 1.7149 35.187 1.75008 35.2145 1.79091C35.242 1.83172 35.2644 1.87012 35.2823 1.90469L32.4837 3.79064C32.4584 3.7611 32.4312 3.72592 32.4037 3.68512C32.3762 3.64429 32.3538 3.6059 32.3359 3.57134L35.1345 1.68537ZM32.279 3.42377C32.279 3.42378 32.2792 3.42441 32.2793 3.42563L32.279 3.42377ZM32.5992 3.89874C32.5992 3.89876 32.5986 3.89848 32.5975 3.89783L32.5992 3.89874ZM35.3392 2.05227C35.3391 2.05226 35.339 2.05164 35.3389 2.05043L35.3392 2.05227Z" fill="#828282" stroke="#828282"/>
<path d="M2.50033 23.9695C2.43974 24.0103 2.35762 23.9944 2.31678 23.9338C2.27586 23.873 2.29181 23.7911 2.35254 23.7502L11.1598 17.815C11.2205 17.7741 11.3024 17.7901 11.3434 17.8508C11.3842 17.9114 11.3682 17.9935 11.3076 18.0344L2.50033 23.9695Z" fill="#828282" stroke="#828282"/>
<path d="M28.4141 29.018L22.4789 20.2108C22.4382 20.1503 22.4542 20.068 22.5146 20.0272C22.5755 19.9862 22.6578 20.0025 22.6985 20.0628L28.6336 28.8701C28.6743 28.9304 28.6585 29.0128 28.5976 29.0538C28.5371 29.0945 28.4548 29.0785 28.4141 29.018Z" fill="#828282" stroke="#828282"/>
<path d="M36.6007 16.973L36.6006 16.9733C36.5866 17.0451 36.5174 17.0917 36.4456 17.0778L26.0213 15.0469C25.9495 15.0329 25.9028 14.9637 25.9168 14.8919C25.9308 14.8201 26.0001 14.7735 26.0718 14.7875L36.4961 16.8183C36.5681 16.8323 36.6146 16.9019 36.6007 16.973Z" fill="#828282" stroke="#828282"/>
<line x1="0.611167" y1="5.69639" x2="4.99059" y2="8.17044" stroke="#828282" stroke-linejoin="round"/>
</svg>
