<svg width="32" height="33" viewBox="0 0 32 33" fill="none" xmlns="http://www.w3.org/2000/svg">
<path d="M31.3533 0.764936C31.2099 0.621499 31.004 0.559999 30.8053 0.601124L22.2833 2.36911C22.1899 2.38999 22.1049 2.41067 21.9799 2.53292L8.72413 15.7886C8.61126 15.9015 8.54789 16.0546 8.54789 16.2143C8.54789 16.3739 8.61132 16.5271 8.72413 16.64L11.5494 19.4652C11.331 20.1162 11.0061 20.5719 10.581 20.8202C10.0984 21.102 9.588 21.0441 8.94182 20.9709C8.26789 20.8946 7.50408 20.808 6.61177 21.0864C5.54316 21.4196 4.60141 22.1997 3.81248 23.4048C3.64867 23.6551 3.69754 23.998 3.92517 24.1921C4.19766 24.4245 4.62379 24.3638 4.81991 24.0643C5.45184 23.0988 6.1754 22.4837 6.97033 22.2357C7.62058 22.0329 8.19658 22.0982 8.80632 22.1671C9.57063 22.2537 10.3606 22.343 11.1882 21.8597C11.7326 21.5418 12.1626 21.0484 12.474 20.3897L15.0526 22.9682L6.79558 31.2253C6.56884 31.4521 6.18371 31.4294 5.98484 31.1779C5.81622 30.9647 5.83484 30.6487 6.02696 30.4565L12.3665 24.1169C12.6017 23.8818 12.6017 23.5006 12.3665 23.2656C12.1314 23.0305 11.7502 23.0305 11.5152 23.2656L5.17553 29.6053C4.49422 30.2867 4.49422 31.3954 5.17553 32.0767C5.50559 32.4068 5.94447 32.5886 6.41121 32.5886C6.87796 32.5886 7.31683 32.4068 7.64702 32.0767L16.3296 23.394L29.5854 10.1383C29.7221 10.0016 29.7172 9.93675 29.7507 9.82719L31.517 1.31293C31.5582 1.11437 31.4966 0.908372 31.3533 0.764936ZM22.4055 3.80985L27.4481 8.85244L19.1895 7.02589L22.4055 3.80985ZM15.9039 22.117L14.7096 20.9227C14.7094 20.9225 14.7093 20.9224 14.7092 20.9223L10.8558 17.0689L19.1236 18.8974L15.9039 22.117ZM20.1333 17.8877L10.4659 15.7495L12.3547 13.8607L22.0221 15.9988L20.1333 17.8877ZM23.0319 14.989L13.3645 12.851L15.2533 10.9621L24.9207 13.1002L23.0319 14.989ZM25.9306 12.0904L16.2632 9.95237L18.1798 8.03576L27.8472 10.1738L25.9306 12.0904ZM28.7967 8.49832L23.6198 3.32142L30.1516 1.96636L28.7967 8.49832Z" fill="#828282"/>
<path d="M3.59585 24.755C3.32048 24.5687 2.94623 24.641 2.75998 24.9163L1.84124 26.2745C1.65493 26.5499 1.72717 26.9241 2.00255 27.1104C2.10592 27.1804 2.22317 27.2138 2.3393 27.2138C2.53242 27.2138 2.72217 27.121 2.83848 26.949L3.75722 25.5908C3.94353 25.3155 3.87128 24.9413 3.59585 24.755Z" fill="#828282"/>
<path d="M5.81391 26.8397L5.50323 25.2297C5.44029 24.9034 5.12461 24.6899 4.79811 24.7527C4.47167 24.8157 4.25799 25.1314 4.32111 25.458L4.6318 27.068C4.68736 27.3558 4.93948 27.556 5.22223 27.556C5.26004 27.556 5.29842 27.5523 5.33692 27.545C5.66329 27.482 5.87698 27.1663 5.81391 26.8397Z" fill="#828282"/>
<path d="M2.88321 23.6482C2.83546 23.319 2.52996 23.0914 2.20102 23.1388L0.578222 23.374C0.249224 23.4217 0.0211632 23.7271 0.0687879 24.0562C0.112288 24.356 0.369598 24.5718 0.663784 24.5718C0.692534 24.5718 0.721658 24.5698 0.750971 24.5655L2.37377 24.3302C2.70277 24.2827 2.93089 23.9773 2.88321 23.6482Z" fill="#828282"/>
</svg>
