<svg width="33" height="31" viewBox="0 0 33 31" fill="none" xmlns="http://www.w3.org/2000/svg">
<path d="M0.911373 30.6348C0.664959 30.4044 0.664959 30.0307 0.911373 29.8002L9.23482 22.0155C8.8882 21.3674 8.99547 20.5678 9.56181 20.0105L15.8384 13.9129C16.2587 13.3728 16.4383 12.6955 16.3325 12.0314C16.2187 11.3174 15.7885 10.696 15.142 10.2792C14.6113 9.93699 14.8685 9.2682 15.4303 9.20021C16.1957 9.10761 16.9026 8.75769 17.362 8.1776C17.8215 7.59751 17.9927 6.85979 17.845 6.15122C17.7264 5.5824 18.4266 5.24352 18.8645 5.57886C19.4617 6.03625 20.2402 6.23969 21.0036 6.13334C21.7671 6.02699 22.4415 5.61581 22.8772 5.0199C23.198 4.58099 23.9715 4.71808 24.0308 5.2895C24.0474 5.44967 24.0801 5.6069 24.1278 5.75922L28.4144 1.5428C29.5355 0.494284 31.1203 0.649737 32.0286 1.4993C32.937 2.34887 33.1195 3.81588 31.982 4.87973L27.8797 8.52799C27.4055 9.08187 27.198 9.79936 27.3099 10.5021C27.4236 11.2161 27.8636 11.8467 28.5004 12.2544C28.9627 12.5504 28.8406 13.27 28.2121 13.3334C27.4447 13.4107 26.7398 13.7759 26.2804 14.356C25.8209 14.9361 25.6438 15.6749 25.7975 16.3823C25.9124 16.9116 25.2559 17.3146 24.7779 16.9547C24.1767 16.502 23.4022 16.2939 22.6388 16.4002C21.8753 16.5066 21.1953 16.9142 20.7652 17.5137C20.4744 17.9191 19.6887 17.8544 19.6116 17.2441C19.5649 16.8737 19.448 16.5177 19.2507 16.2018L12.2365 22.512C11.6538 23.03 10.8236 23.1374 10.1393 22.839L1.80377 30.6348C1.55735 30.8654 1.15779 30.8653 0.911373 30.6348ZM16.5158 14.9595L10.4765 20.8237C10.2391 21.0574 10.2437 21.4189 10.4871 21.6466C10.7306 21.8743 11.117 21.8786 11.367 21.6564L18.3798 15.3474C17.8293 15.0134 17.1658 14.8753 16.5158 14.9595ZM16.7563 10.0832C17.6084 11.0729 17.8933 12.5351 17.345 13.7795C18.618 13.8982 19.9859 14.7435 20.5557 16.0038C21.5574 15.2537 23.0718 14.9186 24.5079 15.4533C24.6595 14.1571 25.6041 12.9463 26.8862 12.4503C25.9867 11.3623 25.7831 9.98397 26.2975 8.75397C24.7165 8.62083 23.487 7.48615 23.0867 6.52964C22.1273 7.22723 20.7024 7.63086 19.1346 7.08022C18.9925 8.27055 18.1946 9.50421 16.7563 10.0832ZM24.7892 6.82172C25.5155 7.5081 26.4165 7.66432 27.12 7.57485L31.1125 4.02421C32.3266 2.88888 30.5433 1.2208 29.3292 2.35607L24.7892 6.82172ZM9.82937 12.6901C9.82937 11.6976 10.6928 10.8901 11.754 10.89C12.8152 10.8901 13.6786 11.6976 13.6787 12.6901C13.6786 13.6826 12.8152 14.4902 11.7541 14.4902C10.5572 14.4902 9.82937 13.552 9.82937 12.6901ZM11.7541 12.0704C11.3888 12.0704 11.0915 12.3484 11.0915 12.6901C11.0915 13.0318 11.3888 13.3098 11.7541 13.3097C12.1194 13.3097 12.4167 13.0318 12.4167 12.6901C12.4166 12.3483 12.1193 12.0703 11.7541 12.0704ZM11.4803 5.47039C11.4803 4.47788 12.3437 3.6704 13.4049 3.67034C14.4662 3.6704 15.3296 4.47788 15.3296 5.47045C15.3296 6.46295 14.4662 7.27049 13.405 7.27049C12.2081 7.27049 11.4803 6.33234 11.4803 5.47039ZM13.405 4.85076C13.0397 4.85076 12.7424 5.12879 12.7424 5.47045C12.7424 5.81222 13.0398 6.09019 13.4051 6.09013C13.7704 6.09013 14.0676 5.81216 14.0676 5.47045C14.0676 5.12867 13.7702 4.8507 13.405 4.85076ZM21.3414 20.6191C21.3414 19.6266 22.2048 18.8191 23.266 18.8191C24.3272 18.8191 25.1906 19.6266 25.1907 20.6192C25.1906 21.6117 24.3272 22.4192 23.2661 22.4192C22.0691 22.4192 21.3414 21.4811 21.3414 20.6191ZM23.266 19.9994C22.9007 19.9994 22.6034 20.2775 22.6034 20.6191C22.6034 20.9609 22.9008 21.2389 23.2661 21.2388C23.6314 21.2388 23.9286 20.9608 23.9286 20.6191C23.9286 20.2774 23.6313 19.9994 23.266 19.9994ZM31.1297 26.9189L25.9368 18.8267C25.7574 18.5473 25.8543 18.1848 26.153 18.017C26.4519 17.8493 26.8397 17.9399 27.0189 18.2193L32.2118 26.3114C32.3911 26.5909 32.2943 26.9534 31.9956 27.1212C31.7421 27.2634 31.3544 27.2419 31.1297 26.9189ZM16.6236 4.31422L14.9472 1.70179C14.7678 1.42228 14.8647 1.05979 15.1634 0.892006C15.4623 0.724277 15.8501 0.814988 16.0292 1.09432L17.7057 3.70675C17.885 3.98626 17.7881 4.34875 17.4894 4.51654C17.2359 4.65877 16.8491 4.64 16.6236 4.31422ZM29.9877 13.175C30.065 12.8572 30.4147 12.6665 30.7528 12.7455L32.2898 13.1047C32.628 13.1837 32.8335 13.5042 32.7491 13.8203C32.6646 14.1365 32.3221 14.3288 31.9839 14.2498L30.447 13.8907C30.1108 13.8135 29.9092 13.4977 29.9877 13.175ZM23.4024 2.91308L23.8453 1.25497C23.9298 0.938749 24.2723 0.746468 24.6104 0.825434C24.9486 0.904518 25.1542 1.22487 25.0697 1.54109L24.6267 3.1992C24.5422 3.51542 24.1988 3.711 23.8616 3.62873C23.5858 3.56151 23.3049 3.29304 23.4024 2.91308ZM16.5694 28.4906L17.0273 26.778C17.1116 26.462 17.4535 26.2743 17.7924 26.3485C18.1386 26.4243 18.3401 26.7727 18.2516 27.0642L17.7943 28.7765C17.7099 29.0924 17.3652 29.2893 17.0286 29.2063C16.7249 29.1315 16.4766 28.8278 16.5694 28.4906ZM18.4038 21.6244L19.0159 19.3342C19.0998 19.0187 19.4419 18.8316 19.7807 18.9044C20.1172 18.9766 20.3248 19.305 20.2403 19.6205L19.6281 21.9107C19.5434 22.2262 19.1993 22.424 18.8628 22.3402C18.5783 22.2692 18.3035 21.9922 18.4038 21.6244ZM18.9586 24.3441C18.9586 24.6701 18.6761 24.9343 18.3275 24.9343C17.979 24.9343 17.6964 24.6701 17.6964 24.3441C17.6964 24.0182 17.979 23.7539 18.3275 23.7539C18.6761 23.7538 18.9586 24.0181 18.9586 24.3441ZM2.64044 6.78454C2.72777 6.46933 3.06783 6.27622 3.40562 6.35513L5.23685 6.7833C5.57003 6.86551 5.7777 7.18155 5.69598 7.49901C5.6147 7.81476 5.26852 8.00728 4.9308 7.92843L3.09957 7.50025C2.77724 7.4024 2.54522 7.12826 2.64044 6.78454ZM8.46939 7.99937C8.46939 8.32538 8.18681 8.58966 7.83824 8.58966C7.48966 8.58966 7.20709 8.32538 7.20709 7.99937C7.20709 7.67335 7.48966 7.40907 7.83824 7.40907C8.18681 7.40913 8.46939 7.67335 8.46939 7.99937ZM9.98125 8.49972C10.0552 8.18185 10.4092 7.99187 10.7464 8.07031L13.1952 8.6429C13.5535 8.72747 13.7285 9.06635 13.6548 9.3582C13.5747 9.67507 13.2269 9.86693 12.8891 9.78803L10.4403 9.21543C10.1297 9.15394 9.90174 8.84167 9.98125 8.49972Z" fill="#828282"/>
</svg>
