<svg width="201" height="39" viewBox="0 0 201 39" fill="none" xmlns="http://www.w3.org/2000/svg">
<path d="M7.15256 34.3737C7.15256 35.1117 6.91256 35.6907 6.43256 36.1107C5.95256 36.5247 5.27456 36.7467 4.39856 36.7767V38.4777H3.95756V36.7767C3.08156 36.7467 2.40356 36.5247 1.92356 36.1107C1.44356 35.6907 1.20356 35.1117 1.20356 34.3737C1.20356 33.6477 1.44356 33.0777 1.92356 32.6637C2.40956 32.2497 3.08756 32.0277 3.95756 31.9977V30.0537H4.39856V31.9977C5.27456 32.0277 5.95256 32.2497 6.43256 32.6637C6.91256 33.0777 7.15256 33.6477 7.15256 34.3737ZM1.65356 34.3737C1.65356 34.9797 1.85156 35.4567 2.24756 35.8047C2.64356 36.1527 3.21356 36.3417 3.95756 36.3717V32.4027C3.21356 32.4327 2.64356 32.6187 2.24756 32.9607C1.85156 33.3027 1.65356 33.7737 1.65356 34.3737ZM4.39856 36.3717C5.14256 36.3417 5.71256 36.1557 6.10856 35.8137C6.51056 35.4657 6.71156 34.9857 6.71156 34.3737C6.71156 33.7737 6.51056 33.3027 6.10856 32.9607C5.71256 32.6187 5.14256 32.4327 4.39856 32.4027V36.3717ZM14.4118 34.4907H10.3708C10.3828 34.8567 10.4758 35.1837 10.6498 35.4717C10.8238 35.7537 11.0578 35.9727 11.3518 36.1287C11.6518 36.2847 11.9878 36.3627 12.3598 36.3627C12.6658 36.3627 12.9478 36.3087 13.2058 36.2007C13.4698 36.0867 13.6888 35.9217 13.8628 35.7057L14.1238 36.0027C13.9198 36.2487 13.6618 36.4377 13.3498 36.5697C13.0438 36.7017 12.7108 36.7677 12.3508 36.7677C11.8828 36.7677 11.4658 36.6657 11.0998 36.4617C10.7338 36.2577 10.4458 35.9757 10.2358 35.6157C10.0318 35.2557 9.92977 34.8447 9.92977 34.3827C9.92977 33.9267 10.0258 33.5187 10.2178 33.1587C10.4158 32.7927 10.6858 32.5077 11.0278 32.3037C11.3698 32.0997 11.7538 31.9977 12.1798 31.9977C12.6058 31.9977 12.9868 32.0997 13.3228 32.3037C13.6648 32.5017 13.9318 32.7807 14.1238 33.1407C14.3218 33.5007 14.4208 33.9087 14.4208 34.3647L14.4118 34.4907ZM12.1798 32.3937C11.8498 32.3937 11.5528 32.4687 11.2888 32.6187C11.0248 32.7627 10.8118 32.9697 10.6498 33.2397C10.4938 33.5037 10.4038 33.8037 10.3798 34.1397H13.9798C13.9618 33.8037 13.8718 33.5037 13.7098 33.2397C13.5478 32.9757 13.3348 32.7687 13.0708 32.6187C12.8068 32.4687 12.5098 32.3937 12.1798 32.3937ZM17.6911 32.0337H18.1411V36.0387L21.4891 32.0337H21.8851V36.7317H21.4351V32.7267L18.0871 36.7317H17.6911V32.0337ZM19.7701 31.3137C19.3921 31.3137 19.0861 31.2177 18.8521 31.0257C18.6181 30.8277 18.4981 30.5547 18.4921 30.2067H18.8251C18.8311 30.4527 18.9211 30.6477 19.0951 30.7917C19.2751 30.9357 19.5001 31.0077 19.7701 31.0077C20.0401 31.0077 20.2621 30.9357 20.4361 30.7917C20.6101 30.6477 20.7001 30.4527 20.7061 30.2067H21.0481C21.0421 30.5547 20.9221 30.8277 20.6881 31.0257C20.4541 31.2177 20.1481 31.3137 19.7701 31.3137ZM29.6309 34.4907H25.5899C25.6019 34.8567 25.6949 35.1837 25.8689 35.4717C26.0429 35.7537 26.2769 35.9727 26.5709 36.1287C26.8709 36.2847 27.2069 36.3627 27.5789 36.3627C27.8849 36.3627 28.1669 36.3087 28.4249 36.2007C28.6889 36.0867 28.9079 35.9217 29.0819 35.7057L29.3429 36.0027C29.1389 36.2487 28.8809 36.4377 28.5689 36.5697C28.2629 36.7017 27.9299 36.7677 27.5699 36.7677C27.1019 36.7677 26.6849 36.6657 26.3189 36.4617C25.9529 36.2577 25.6649 35.9757 25.4549 35.6157C25.2509 35.2557 25.1489 34.8447 25.1489 34.3827C25.1489 33.9267 25.2449 33.5187 25.4369 33.1587C25.6349 32.7927 25.9049 32.5077 26.2469 32.3037C26.5889 32.0997 26.9729 31.9977 27.3989 31.9977C27.8249 31.9977 28.2059 32.0997 28.5419 32.3037C28.8839 32.5017 29.1509 32.7807 29.3429 33.1407C29.5409 33.5007 29.6399 33.9087 29.6399 34.3647L29.6309 34.4907ZM27.3989 32.3937C27.0689 32.3937 26.7719 32.4687 26.5079 32.6187C26.2439 32.7627 26.0309 32.9697 25.8689 33.2397C25.7129 33.5037 25.6229 33.8037 25.5989 34.1397H29.1989C29.1809 33.8037 29.0909 33.5037 28.9289 33.2397C28.7669 32.9757 28.5539 32.7687 28.2899 32.6187C28.0259 32.4687 27.7289 32.3937 27.3989 32.3937ZM35.2773 31.9977C35.7153 31.9977 36.1113 32.0997 36.4653 32.3037C36.8193 32.5077 37.0953 32.7897 37.2933 33.1497C37.4973 33.5097 37.5993 33.9207 37.5993 34.3827C37.5993 34.8447 37.4973 35.2587 37.2933 35.6247C37.0953 35.9847 36.8193 36.2667 36.4653 36.4707C36.1113 36.6687 35.7153 36.7677 35.2773 36.7677C34.8633 36.7677 34.4883 36.6717 34.1523 36.4797C33.8163 36.2817 33.5553 36.0087 33.3693 35.6607V38.4777H32.9193V32.0337H33.3513V33.1407C33.5373 32.7807 33.7983 32.5017 34.1343 32.3037C34.4763 32.0997 34.8573 31.9977 35.2773 31.9977ZM35.2503 36.3627C35.6103 36.3627 35.9343 36.2787 36.2223 36.1107C36.5103 35.9427 36.7353 35.7087 36.8973 35.4087C37.0653 35.1087 37.1493 34.7667 37.1493 34.3827C37.1493 33.9987 37.0653 33.6567 36.8973 33.3567C36.7353 33.0567 36.5103 32.8227 36.2223 32.6547C35.9343 32.4867 35.6103 32.4027 35.2503 32.4027C34.8903 32.4027 34.5663 32.4867 34.2783 32.6547C33.9963 32.8227 33.7713 33.0567 33.6033 33.3567C33.4413 33.6567 33.3603 33.9987 33.3603 34.3827C33.3603 34.7667 33.4413 35.1087 33.6033 35.4087C33.7713 35.7087 33.9963 35.9427 34.2783 36.1107C34.5663 36.2787 34.8903 36.3627 35.2503 36.3627ZM43.6436 34.3107C44.3336 34.4307 44.6786 34.8177 44.6786 35.4717C44.6786 35.8797 44.5286 36.1917 44.2286 36.4077C43.9346 36.6237 43.4906 36.7317 42.8966 36.7317H40.8626V32.0337H42.8426C43.3646 32.0337 43.7726 32.1387 44.0666 32.3487C44.3666 32.5527 44.5166 32.8467 44.5166 33.2307C44.5166 33.5067 44.4386 33.7377 44.2826 33.9237C44.1326 34.1037 43.9196 34.2327 43.6436 34.3107ZM41.3036 34.1757H42.8156C43.2176 34.1757 43.5266 34.1007 43.7426 33.9507C43.9586 33.7947 44.0666 33.5727 44.0666 33.2847C44.0666 32.9907 43.9586 32.7717 43.7426 32.6277C43.5326 32.4777 43.2236 32.4027 42.8156 32.4027H41.3036V34.1757ZM42.8876 36.3627C43.7816 36.3627 44.2286 36.0597 44.2286 35.4537C44.2286 35.1357 44.1266 34.9017 43.9226 34.7517C43.7186 34.6017 43.3976 34.5267 42.9596 34.5267H41.3036V36.3627H42.8876ZM52.0817 34.4907H48.0407C48.0527 34.8567 48.1457 35.1837 48.3197 35.4717C48.4937 35.7537 48.7277 35.9727 49.0217 36.1287C49.3217 36.2847 49.6577 36.3627 50.0297 36.3627C50.3357 36.3627 50.6177 36.3087 50.8757 36.2007C51.1397 36.0867 51.3587 35.9217 51.5327 35.7057L51.7937 36.0027C51.5897 36.2487 51.3317 36.4377 51.0197 36.5697C50.7137 36.7017 50.3807 36.7677 50.0207 36.7677C49.5527 36.7677 49.1357 36.6657 48.7697 36.4617C48.4037 36.2577 48.1157 35.9757 47.9057 35.6157C47.7017 35.2557 47.5997 34.8447 47.5997 34.3827C47.5997 33.9267 47.6957 33.5187 47.8877 33.1587C48.0857 32.7927 48.3557 32.5077 48.6977 32.3037C49.0397 32.0997 49.4237 31.9977 49.8497 31.9977C50.2757 31.9977 50.6567 32.0997 50.9927 32.3037C51.3347 32.5017 51.6017 32.7807 51.7937 33.1407C51.9917 33.5007 52.0907 33.9087 52.0907 34.3647L52.0817 34.4907ZM49.8497 32.3937C49.5197 32.3937 49.2227 32.4687 48.9587 32.6187C48.6947 32.7627 48.4817 32.9697 48.3197 33.2397C48.1637 33.5037 48.0737 33.8037 48.0497 34.1397H51.6497C51.6317 33.8037 51.5417 33.5037 51.3797 33.2397C51.2177 32.9757 51.0047 32.7687 50.7407 32.6187C50.4767 32.4687 50.1797 32.3937 49.8497 32.3937ZM57.7281 31.9977C58.1661 31.9977 58.5621 32.0997 58.9161 32.3037C59.2701 32.5077 59.5461 32.7897 59.7441 33.1497C59.9481 33.5097 60.0501 33.9207 60.0501 34.3827C60.0501 34.8447 59.9481 35.2587 59.7441 35.6247C59.5461 35.9847 59.2701 36.2667 58.9161 36.4707C58.5621 36.6687 58.1661 36.7677 57.7281 36.7677C57.3141 36.7677 56.9391 36.6717 56.6031 36.4797C56.2671 36.2817 56.0061 36.0087 55.8201 35.6607V38.4777H55.3701V32.0337H55.8021V33.1407C55.9881 32.7807 56.2491 32.5017 56.5851 32.3037C56.9271 32.0997 57.3081 31.9977 57.7281 31.9977ZM57.7011 36.3627C58.0611 36.3627 58.3851 36.2787 58.6731 36.1107C58.9611 35.9427 59.1861 35.7087 59.3481 35.4087C59.5161 35.1087 59.6001 34.7667 59.6001 34.3827C59.6001 33.9987 59.5161 33.6567 59.3481 33.3567C59.1861 33.0567 58.9611 32.8227 58.6731 32.6547C58.3851 32.4867 58.0611 32.4027 57.7011 32.4027C57.3411 32.4027 57.0171 32.4867 56.7291 32.6547C56.4471 32.8227 56.2221 33.0567 56.0541 33.3567C55.8921 33.6567 55.8111 33.9987 55.8111 34.3827C55.8111 34.7667 55.8921 35.1087 56.0541 35.4087C56.2221 35.7087 56.4471 35.9427 56.7291 36.1107C57.0171 36.2787 57.3411 36.3627 57.7011 36.3627ZM64.9064 34.5537H63.7634V36.7317H63.3134V32.0337H63.7634V34.1667H64.9064L66.6794 32.0337H67.1744L65.2664 34.3107L67.3184 36.7317H66.7784L64.9064 34.5537ZM70.2286 32.0337H70.6786V36.0387L74.0266 32.0337H74.4226V36.7317H73.9726V32.7267L70.6246 36.7317H70.2286V32.0337ZM84.1469 36.7677C83.7029 36.7677 83.3009 36.6657 82.9409 36.4617C82.5869 36.2577 82.3079 35.9757 82.1039 35.6157C81.8999 35.2497 81.7979 34.8387 81.7979 34.3827C81.7979 33.9267 81.8999 33.5187 82.1039 33.1587C82.3079 32.7927 82.5869 32.5077 82.9409 32.3037C83.3009 32.0997 83.7029 31.9977 84.1469 31.9977C84.5909 31.9977 84.9899 32.0997 85.3439 32.3037C85.7039 32.5077 85.9859 32.7927 86.1899 33.1587C86.3939 33.5187 86.4959 33.9267 86.4959 34.3827C86.4959 34.8387 86.3939 35.2497 86.1899 35.6157C85.9859 35.9757 85.7039 36.2577 85.3439 36.4617C84.9899 36.6657 84.5909 36.7677 84.1469 36.7677ZM84.1469 36.3627C84.5069 36.3627 84.8279 36.2787 85.1099 36.1107C85.3979 35.9427 85.6229 35.7087 85.7849 35.4087C85.9529 35.1087 86.0369 34.7667 86.0369 34.3827C86.0369 33.9987 85.9529 33.6567 85.7849 33.3567C85.6229 33.0567 85.3979 32.8227 85.1099 32.6547C84.8279 32.4867 84.5069 32.4027 84.1469 32.4027C83.7869 32.4027 83.4629 32.4867 83.1749 32.6547C82.8929 32.8227 82.6679 33.0567 82.4999 33.3567C82.3379 33.6567 82.2569 33.9987 82.2569 34.3827C82.2569 34.7667 82.3379 35.1087 82.4999 35.4087C82.6679 35.7087 82.8929 35.9427 83.1749 36.1107C83.4629 36.2787 83.7869 36.3627 84.1469 36.3627ZM92.7267 32.4387H90.8907V36.7317H90.4407V32.4387H88.6047V32.0337H92.7267V32.4387ZM103.706 32.0337V36.7317H103.256V32.4387H100.052V36.7317H99.6017V32.0337H103.706ZM109.816 31.9977C110.254 31.9977 110.65 32.0997 111.004 32.3037C111.358 32.5077 111.634 32.7897 111.832 33.1497C112.036 33.5097 112.138 33.9207 112.138 34.3827C112.138 34.8447 112.036 35.2587 111.832 35.6247C111.634 35.9847 111.358 36.2667 111.004 36.4707C110.65 36.6687 110.254 36.7677 109.816 36.7677C109.402 36.7677 109.027 36.6717 108.691 36.4797C108.355 36.2817 108.094 36.0087 107.908 35.6607V38.4777H107.458V32.0337H107.89V33.1407C108.076 32.7807 108.337 32.5017 108.673 32.3037C109.015 32.0997 109.396 31.9977 109.816 31.9977ZM109.789 36.3627C110.149 36.3627 110.473 36.2787 110.761 36.1107C111.049 35.9427 111.274 35.7087 111.436 35.4087C111.604 35.1087 111.688 34.7667 111.688 34.3827C111.688 33.9987 111.604 33.6567 111.436 33.3567C111.274 33.0567 111.049 32.8227 110.761 32.6547C110.473 32.4867 110.149 32.4027 109.789 32.4027C109.429 32.4027 109.105 32.4867 108.817 32.6547C108.535 32.8227 108.31 33.0567 108.142 33.3567C107.98 33.6567 107.899 33.9987 107.899 34.3827C107.899 34.7667 107.98 35.1087 108.142 35.4087C108.31 35.7087 108.535 35.9427 108.817 36.1107C109.105 36.2787 109.429 36.3627 109.789 36.3627ZM117.273 36.7677C116.829 36.7677 116.427 36.6657 116.067 36.4617C115.713 36.2577 115.434 35.9757 115.23 35.6157C115.026 35.2497 114.924 34.8387 114.924 34.3827C114.924 33.9267 115.026 33.5187 115.23 33.1587C115.434 32.7927 115.713 32.5077 116.067 32.3037C116.427 32.0997 116.829 31.9977 117.273 31.9977C117.717 31.9977 118.116 32.0997 118.47 32.3037C118.83 32.5077 119.112 32.7927 119.316 33.1587C119.52 33.5187 119.622 33.9267 119.622 34.3827C119.622 34.8387 119.52 35.2497 119.316 35.6157C119.112 35.9757 118.83 36.2577 118.47 36.4617C118.116 36.6657 117.717 36.7677 117.273 36.7677ZM117.273 36.3627C117.633 36.3627 117.954 36.2787 118.236 36.1107C118.524 35.9427 118.749 35.7087 118.911 35.4087C119.079 35.1087 119.163 34.7667 119.163 34.3827C119.163 33.9987 119.079 33.6567 118.911 33.3567C118.749 33.0567 118.524 32.8227 118.236 32.6547C117.954 32.4867 117.633 32.4027 117.273 32.4027C116.913 32.4027 116.589 32.4867 116.301 32.6547C116.019 32.8227 115.794 33.0567 115.626 33.3567C115.464 33.6567 115.383 33.9987 115.383 34.3827C115.383 34.7667 115.464 35.1087 115.626 35.4087C115.794 35.7087 116.019 35.9427 116.301 36.1107C116.589 36.2787 116.913 36.3627 117.273 36.3627ZM122.887 32.0337H123.337V36.0387L126.685 32.0337H127.081V36.7317H126.631V32.7267L123.283 36.7317H122.887V32.0337ZM132.787 34.2837C133.135 34.3497 133.402 34.4817 133.588 34.6797C133.78 34.8717 133.876 35.1087 133.876 35.3907C133.876 35.6667 133.783 35.9097 133.597 36.1197C133.417 36.3297 133.171 36.4917 132.859 36.6057C132.547 36.7197 132.208 36.7767 131.842 36.7767C131.506 36.7767 131.176 36.7257 130.852 36.6237C130.534 36.5157 130.255 36.3627 130.015 36.1647L130.195 35.8317C130.405 36.0117 130.654 36.1497 130.942 36.2457C131.236 36.3417 131.533 36.3897 131.833 36.3897C132.277 36.3897 132.652 36.2967 132.958 36.1107C133.264 35.9187 133.417 35.6667 133.417 35.3547C133.417 35.0787 133.288 34.8627 133.03 34.7067C132.778 34.5447 132.436 34.4637 132.004 34.4637H131.248V34.1217H131.986C132.364 34.1217 132.673 34.0467 132.913 33.8967C133.159 33.7467 133.282 33.5457 133.282 33.2937C133.282 32.9997 133.147 32.7747 132.877 32.6187C132.613 32.4567 132.274 32.3757 131.86 32.3757C131.332 32.3757 130.834 32.5107 130.366 32.7807L130.231 32.4207C130.759 32.1267 131.32 31.9797 131.914 31.9797C132.436 31.9797 132.871 32.0937 133.219 32.3217C133.567 32.5437 133.741 32.8467 133.741 33.2307C133.741 33.4767 133.654 33.6927 133.48 33.8787C133.306 34.0647 133.075 34.1997 132.787 34.2837ZM140.026 34.3107C140.716 34.4307 141.061 34.8177 141.061 35.4717C141.061 35.8797 140.911 36.1917 140.611 36.4077C140.317 36.6237 139.873 36.7317 139.279 36.7317H137.245V32.0337H139.225C139.747 32.0337 140.155 32.1387 140.449 32.3487C140.749 32.5527 140.899 32.8467 140.899 33.2307C140.899 33.5067 140.821 33.7377 140.665 33.9237C140.515 34.1037 140.302 34.2327 140.026 34.3107ZM137.686 34.1757H139.198C139.6 34.1757 139.909 34.1007 140.125 33.9507C140.341 33.7947 140.449 33.5727 140.449 33.2847C140.449 32.9907 140.341 32.7717 140.125 32.6277C139.915 32.4777 139.606 32.4027 139.198 32.4027H137.686V34.1757ZM139.27 36.3627C140.164 36.3627 140.611 36.0597 140.611 35.4537C140.611 35.1357 140.509 34.9017 140.305 34.7517C140.101 34.6017 139.78 34.5267 139.342 34.5267H137.686V36.3627H139.27ZM146.331 36.7677C145.887 36.7677 145.485 36.6657 145.125 36.4617C144.771 36.2577 144.492 35.9757 144.288 35.6157C144.084 35.2497 143.982 34.8387 143.982 34.3827C143.982 33.9267 144.084 33.5187 144.288 33.1587C144.492 32.7927 144.771 32.5077 145.125 32.3037C145.485 32.0997 145.887 31.9977 146.331 31.9977C146.775 31.9977 147.174 32.0997 147.528 32.3037C147.888 32.5077 148.17 32.7927 148.374 33.1587C148.578 33.5187 148.68 33.9267 148.68 34.3827C148.68 34.8387 148.578 35.2497 148.374 35.6157C148.17 35.9757 147.888 36.2577 147.528 36.4617C147.174 36.6657 146.775 36.7677 146.331 36.7677ZM146.331 36.3627C146.691 36.3627 147.012 36.2787 147.294 36.1107C147.582 35.9427 147.807 35.7087 147.969 35.4087C148.137 35.1087 148.221 34.7667 148.221 34.3827C148.221 33.9987 148.137 33.6567 147.969 33.3567C147.807 33.0567 147.582 32.8227 147.294 32.6547C147.012 32.4867 146.691 32.4027 146.331 32.4027C145.971 32.4027 145.647 32.4867 145.359 32.6547C145.077 32.8227 144.852 33.0567 144.684 33.3567C144.522 33.6567 144.441 33.9987 144.441 34.3827C144.441 34.7667 144.522 35.1087 144.684 35.4087C144.852 35.7087 145.077 35.9427 145.359 36.1107C145.647 36.2787 145.971 36.3627 146.331 36.3627ZM156.347 36.3357V37.9017H155.924V36.7317H151.478V37.9017H151.046V36.3357H151.325C151.643 36.3177 151.859 36.0717 151.973 35.5977C152.093 35.1177 152.177 34.4457 152.225 33.5817L152.288 32.0337H155.591V36.3357H156.347ZM152.639 33.6087C152.609 34.3227 152.549 34.9167 152.459 35.3907C152.369 35.8647 152.207 36.1797 151.973 36.3357H155.141V32.4387H152.693L152.639 33.6087ZM159.476 32.0337H159.926V36.0387L163.274 32.0337H163.67V36.7317H163.22V32.7267L159.872 36.7317H159.476V32.0337ZM170.552 32.4387H168.716V36.7317H168.266V32.4387H166.43V32.0337H170.552V32.4387ZM177.101 34.4907H173.06C173.072 34.8567 173.165 35.1837 173.339 35.4717C173.513 35.7537 173.747 35.9727 174.041 36.1287C174.341 36.2847 174.677 36.3627 175.049 36.3627C175.355 36.3627 175.637 36.3087 175.895 36.2007C176.159 36.0867 176.378 35.9217 176.552 35.7057L176.813 36.0027C176.609 36.2487 176.351 36.4377 176.039 36.5697C175.733 36.7017 175.4 36.7677 175.04 36.7677C174.572 36.7677 174.155 36.6657 173.789 36.4617C173.423 36.2577 173.135 35.9757 172.925 35.6157C172.721 35.2557 172.619 34.8447 172.619 34.3827C172.619 33.9267 172.715 33.5187 172.907 33.1587C173.105 32.7927 173.375 32.5077 173.717 32.3037C174.059 32.0997 174.443 31.9977 174.869 31.9977C175.295 31.9977 175.676 32.0997 176.012 32.3037C176.354 32.5017 176.621 32.7807 176.813 33.1407C177.011 33.5007 177.11 33.9087 177.11 34.3647L177.101 34.4907ZM174.869 32.3937C174.539 32.3937 174.242 32.4687 173.978 32.6187C173.714 32.7627 173.501 32.9697 173.339 33.2397C173.183 33.5037 173.093 33.8037 173.069 34.1397H176.669C176.651 33.8037 176.561 33.5037 176.399 33.2397C176.237 32.9757 176.024 32.7687 175.76 32.6187C175.496 32.4687 175.199 32.3937 174.869 32.3937ZM183.938 32.0337V36.7317H183.488V32.4387H181.04L180.977 33.6897C180.941 34.3377 180.887 34.8807 180.815 35.3187C180.743 35.7567 180.62 36.1107 180.446 36.3807C180.272 36.6507 180.032 36.7857 179.726 36.7857C179.636 36.7857 179.507 36.7647 179.339 36.7227L179.384 36.3357C179.48 36.3597 179.552 36.3717 179.6 36.3717C179.852 36.3717 180.044 36.2487 180.176 36.0027C180.308 35.7567 180.398 35.4507 180.446 35.0847C180.494 34.7187 180.533 34.2417 180.563 33.6537L180.644 32.0337H183.938ZM191.687 34.4907H187.646C187.658 34.8567 187.751 35.1837 187.925 35.4717C188.099 35.7537 188.333 35.9727 188.627 36.1287C188.927 36.2847 189.263 36.3627 189.635 36.3627C189.941 36.3627 190.223 36.3087 190.481 36.2007C190.745 36.0867 190.964 35.9217 191.138 35.7057L191.399 36.0027C191.195 36.2487 190.937 36.4377 190.625 36.5697C190.319 36.7017 189.986 36.7677 189.626 36.7677C189.158 36.7677 188.741 36.6657 188.375 36.4617C188.009 36.2577 187.721 35.9757 187.511 35.6157C187.307 35.2557 187.205 34.8447 187.205 34.3827C187.205 33.9267 187.301 33.5187 187.493 33.1587C187.691 32.7927 187.961 32.5077 188.303 32.3037C188.645 32.0997 189.029 31.9977 189.455 31.9977C189.881 31.9977 190.262 32.0997 190.598 32.3037C190.94 32.5017 191.207 32.7807 191.399 33.1407C191.597 33.5007 191.696 33.9087 191.696 34.3647L191.687 34.4907ZM189.455 32.3937C189.125 32.3937 188.828 32.4687 188.564 32.6187C188.3 32.7627 188.087 32.9697 187.925 33.2397C187.769 33.5037 187.679 33.8037 187.655 34.1397H191.255C191.237 33.8037 191.147 33.5037 190.985 33.2397C190.823 32.9757 190.61 32.7687 190.346 32.6187C190.082 32.4687 189.785 32.3937 189.455 32.3937ZM194.967 32.0337H195.417V36.0387L198.765 32.0337H199.161V36.7317H198.711V32.7267L195.363 36.7317H194.967V32.0337ZM197.046 31.3137C196.668 31.3137 196.362 31.2177 196.128 31.0257C195.894 30.8277 195.774 30.5547 195.768 30.2067H196.101C196.107 30.4527 196.197 30.6477 196.371 30.7917C196.551 30.9357 196.776 31.0077 197.046 31.0077C197.316 31.0077 197.538 30.9357 197.712 30.7917C197.886 30.6477 197.976 30.4527 197.982 30.2067H198.324C198.318 30.5547 198.198 30.8277 197.964 31.0257C197.73 31.2177 197.424 31.3137 197.046 31.3137Z" fill="white"/>
<path d="M129.956 23.1756L126.061 17.6984C125.623 17.7471 125.169 17.7715 124.698 17.7715H120.122V23.1756H118.32V6.13559H124.698C126.873 6.13559 128.577 6.6549 129.81 7.69353C131.043 8.73216 131.66 10.1603 131.66 11.9779C131.66 13.3086 131.319 14.4365 130.638 15.3615C129.972 16.2703 129.015 16.9276 127.765 17.3333L131.928 23.1756H129.956ZM124.649 16.2379C126.337 16.2379 127.627 15.8646 128.52 15.1181C129.413 14.3716 129.859 13.3248 129.859 11.9779C129.859 10.5984 129.413 9.54358 128.52 8.8133C127.627 8.06679 126.337 7.69353 124.649 7.69353H120.122V16.2379H124.649Z" fill="white"/>
<path d="M140.554 6.28171H142.355V23.3217H140.554V6.28171Z" fill="white"/>
<path d="M159.006 23.3216C156.799 23.3216 155.079 22.6887 153.845 21.4229C152.612 20.1571 151.995 18.3151 151.995 15.8971V6.13559H153.796V15.824C153.796 17.8039 154.243 19.2807 155.135 20.2544C156.028 21.2281 157.318 21.715 159.006 21.715C160.71 21.715 162.008 21.2281 162.901 20.2544C163.793 19.2807 164.24 17.8039 164.24 15.824V6.13559H165.992V15.8971C165.992 18.3151 165.376 20.1571 164.142 21.4229C162.925 22.6887 161.213 23.3216 159.006 23.3216Z" fill="white"/>
<path fill-rule="evenodd" clip-rule="evenodd" d="M185.751 8.03433C184.517 6.7685 182.797 6.13559 180.59 6.13559C178.383 6.13559 176.671 6.7685 175.454 8.03433C174.22 9.30015 173.604 11.1421 173.604 13.5601L173.604 23.3216H175.356L175.356 13.6332C175.356 11.6533 175.802 10.1765 176.695 9.20278C177.588 8.22907 178.886 7.74221 180.59 7.74222C182.278 7.74222 183.568 8.22907 184.46 9.20279C185.353 10.1765 185.799 11.6533 185.799 13.6332L185.799 23.3216L185.849 23.3216L187.601 23.3216L187.602 23.3216L187.602 13.6332C187.602 11.6533 188.048 10.1765 188.94 9.20278C189.833 8.22907 191.131 7.74221 192.835 7.74222C194.523 7.74222 195.813 8.22907 196.706 9.20279C197.598 10.1765 198.045 11.6533 198.045 13.6332V23.3216H199.846V13.5601C199.846 11.1421 199.229 9.30016 197.996 8.03433C196.763 6.7685 195.042 6.13559 192.835 6.13559C190.628 6.13559 188.916 6.7685 187.699 8.03433C187.314 8.42918 186.989 8.88009 186.725 9.38706C186.46 8.88009 186.135 8.42918 185.751 8.03433Z" fill="white"/>
<path d="M78.9229 7.69353H72.9346V6.13559H86.7126V7.69353H80.7243V23.1756H78.9229V7.69353Z" fill="white"/>
<path d="M61.751 23.3216C59.5439 23.3216 57.8237 22.6887 56.5903 21.4229C55.3569 20.1571 54.7402 18.3151 54.7402 15.8971V6.13559H56.5416V15.824C56.5416 17.8039 56.9879 19.2807 57.8805 20.2544C58.773 21.2281 60.0632 21.715 61.751 21.715C63.455 21.715 64.7533 21.2281 65.6458 20.2544C66.5384 19.2807 66.9847 17.8039 66.9847 15.824V6.13559H68.7374V15.8971C68.7374 18.3151 68.1207 20.1571 66.8873 21.4229C65.6702 22.6887 63.958 23.3216 61.751 23.3216Z" fill="white"/>
<path d="M7.18851 23.3216C5.92268 23.3216 4.70554 23.1188 3.53709 22.7131C2.38486 22.3073 1.49229 21.7718 0.859375 21.1064L1.56532 19.7189C2.182 20.3356 3.00154 20.8387 4.02394 21.2281C5.04634 21.6014 6.1012 21.788 7.18851 21.788C8.71399 21.788 9.8581 21.5121 10.6208 20.9604C11.3836 20.3924 11.765 19.6621 11.765 18.7695C11.765 18.0879 11.554 17.5443 11.132 17.1385C10.7263 16.7328 10.2232 16.4245 9.62279 16.2135C9.02233 15.9863 8.18656 15.7429 7.11548 15.4832C5.83342 15.1587 4.81103 14.8503 4.04828 14.5582C3.28554 14.2499 2.62829 13.7873 2.07652 13.1707C1.54097 12.554 1.2732 11.7182 1.2732 10.6634C1.2732 9.80324 1.5004 9.02427 1.9548 8.32644C2.4092 7.61239 3.10703 7.04439 4.04828 6.62245C4.98954 6.2005 6.158 5.98953 7.55365 5.98953C8.52736 5.98953 9.47673 6.12748 10.4018 6.40336C11.343 6.66302 12.1544 7.02816 12.836 7.49879L12.2275 8.93501C11.5134 8.46439 10.7507 8.11547 9.93925 7.88827C9.12782 7.64484 8.33262 7.52313 7.55365 7.52313C6.06062 7.52313 4.93274 7.81524 4.17 8.39947C3.42349 8.96747 3.05023 9.70587 3.05023 10.6147C3.05023 11.2963 3.25309 11.848 3.6588 12.27C4.08074 12.6757 4.60006 12.9922 5.21674 13.2194C5.84965 13.4303 6.69354 13.6656 7.74839 13.9253C8.99799 14.2336 10.0042 14.542 10.7669 14.8503C11.5459 15.1424 12.2031 15.5968 12.7387 16.2135C13.2742 16.814 13.542 17.6335 13.542 18.6721C13.542 19.5323 13.3067 20.3193 12.836 21.0334C12.3816 21.7312 11.6757 22.2911 10.7182 22.7131C9.76073 23.1188 8.58416 23.3216 7.18851 23.3216Z" fill="white"/>
<path d="M31.1522 18.6235H21.6585L19.6137 23.1756H17.7393L25.529 6.13559H27.306L35.0957 23.1756H33.197L31.1522 18.6235ZM30.4949 17.1629L26.4053 8.00999L22.3157 17.1629H30.4949Z" fill="white"/>
<path d="M104.943 12.5378H95.4492L90.6195 23.1653H88.7451L99.3197 0.0498962H101.097L111.644 23.1653H109.745L104.943 12.5378ZM104.286 11.0772L100.196 1.92429L96.1064 11.0772H104.286Z" fill="white"/>
<path d="M41.143 21.4229C42.3764 22.6887 44.0966 23.3216 46.3037 23.3216H50.542V21.715H46.3037C44.6159 21.715 43.3258 21.2281 42.4332 20.2544C41.5406 19.2807 41.0943 17.8039 41.0943 15.824V6.13559H39.293V15.8971C39.293 18.3151 39.9097 20.1571 41.143 21.4229Z" fill="white"/>
</svg>
