<svg xmlns="http://www.w3.org/2000/svg" width="34" height="35" fill="none"><path stroke="#333" d="m15.377 16.849 2.193 2.193L3.138 33.474.945 31.28z"/><path fill="#333" d="M25.132 12.564a2.786 2.786 0 0 1-3.408-1.968 2.786 2.786 0 0 1 1.968-3.408A2.786 2.786 0 0 1 27.1 9.156a2.786 2.786 0 0 1-1.968 3.408Zm-1.117-4.169a1.534 1.534 0 0 0-1.083 1.878 1.534 1.534 0 0 0 1.877 1.083 1.535 1.535 0 0 0 1.084-1.877 1.535 1.535 0 0 0-1.878-1.084ZM26.532 17.79a.625.625 0 0 1-.765-.441l-.627-2.338a.625.625 0 1 1 1.208-.324l.626 2.338a.625.625 0 0 1-.442.766ZM23.242 5.506a.625.625 0 0 1-.766-.442l-.633-2.361a.625.625 0 0 1 1.208-.324l.633 2.362a.625.625 0 0 1-.442.765ZM28.216 6.839a.625.625 0 0 1-.605-1.046l1.712-1.711a.625.625 0 0 1 .884.884l-1.712 1.711a.621.621 0 0 1-.28.162ZM19.222 15.832a.625.625 0 0 1-.605-1.046l1.712-1.711a.625.625 0 0 1 .883.884l-1.71 1.71a.623.623 0 0 1-.28.162ZM19.6 9.147a.622.622 0 0 1-.323 0l-2.337-.626a.625.625 0 0 1 .323-1.208l2.338.627a.625.625 0 0 1 0 1.207ZM31.884 12.439a.623.623 0 0 1-.323 0l-2.338-.627a.625.625 0 0 1 .324-1.207l2.337.626a.625.625 0 0 1 0 1.208ZM17.847 17.43a.833.833 0 0 1-.43-1.606.833.833 0 0 1 .43 1.606Z"/><path stroke="#333" d="m14.21 17.837 1.004 3.75M12.118 20.076l1.005 3.75M9.905 22.246l1.005 3.751"/></svg>