<svg xmlns="http://www.w3.org/2000/svg" width="25" height="33" fill="none"><path fill="#333" d="M16.127 12.288a.735.735 0 0 0-1.037 0L.57 26.765a.73.73 0 0 0 0 1.034l4.149 4.136a.733.733 0 0 0 1.037 0l14.52-14.477a.73.73 0 0 0 0-1.034l-4.149-4.136Zm-1.895 9.128H8.01l3.186-3.177h6.223l-3.186 3.177ZM9.58 26.054H3.357l3.186-3.176h6.222L9.58 26.054Zm6.029-12.215 2.947 2.938h-5.894l2.947-2.938ZM5.237 30.384l-2.875-2.867h5.751l-2.876 2.867Z"/><path fill="#333" d="M17.987 15.306a.732.732 0 0 0 .519-.214 13.563 13.563 0 0 0 3.868-7.629.733.733 0 0 0-1.45-.218 12.11 12.11 0 0 1-3.455 6.812.73.73 0 0 0 .518 1.249ZM23.292 2.3a.732.732 0 0 0 .519-.214l.691-.689a.73.73 0 0 0 0-1.034.735.735 0 0 0-1.037 0l-.692.69a.73.73 0 0 0 .519 1.248ZM19.835 5.747a.733.733 0 0 0 .519-.214l.691-.69a.73.73 0 0 0 0-1.033.735.735 0 0 0-1.037 0l-.692.69a.73.73 0 0 0 .519 1.247ZM23.465 5.533A.732.732 0 0 0 24.502 4.5l-.691-.69a.735.735 0 0 0-1.038 0 .73.73 0 0 0 0 1.035l.692.69ZM20.008 2.086a.733.733 0 0 0 1.037-1.034l-.691-.689a.735.735 0 0 0-1.038 0 .73.73 0 0 0 0 1.034l.692.69Z"/></svg>