<svg xmlns="http://www.w3.org/2000/svg" width="33" height="33" fill="none"><path fill="#333" d="M31.98.352a.602.602 0 0 0-.549-.164L22.91 1.956a.535.535 0 0 0-.303.163L9.35 15.376a.602.602 0 0 0 0 .852l2.825 2.825c-.218.65-.543 1.106-.968 1.355-.483.282-.993.224-1.64.15-.673-.076-1.437-.162-2.33.116-1.068.333-2.01 1.113-2.799 2.318a.607.607 0 0 0 .113.788.608.608 0 0 0 .895-.128c.632-.966 1.355-1.58 2.15-1.829.65-.203 1.227-.137 1.836-.068.765.086 1.555.176 2.382-.308.544-.318.975-.811 1.286-1.47l2.579 2.579-8.257 8.257a.549.549 0 0 1-.811-.047.55.55 0 0 1 .042-.722l6.34-6.34a.602.602 0 1 0-.852-.85l-6.34 6.339a1.75 1.75 0 0 0 1.236 2.983c.467 0 .906-.182 1.236-.512l8.683-8.682L30.21 9.725c.137-.137.132-.202.166-.311L32.143.9a.602.602 0 0 0-.164-.548Zm-8.948 3.044 5.042 5.043-8.259-1.827 3.216-3.216ZM16.53 21.704l-1.194-1.195-3.854-3.854 8.268 1.829-3.22 3.22Zm4.23-4.23-9.668-2.138 1.889-1.889 9.667 2.138-1.889 1.89Zm2.898-2.898-9.668-2.138 1.89-1.89 9.667 2.139-1.89 1.889Zm2.899-2.899-9.668-2.138 1.917-1.917 9.667 2.138-1.916 1.917Zm2.866-3.592-5.177-5.177 6.532-1.355-1.355 6.532Z"/><path fill="#333" d="M4.221 24.342a.602.602 0 0 0-.836.16l-.918 1.36a.602.602 0 1 0 .997.674l.919-1.359a.602.602 0 0 0-.162-.835ZM6.437 26.426l-.31-1.61a.602.602 0 1 0-1.182.229l.31 1.61a.602.602 0 0 0 1.182-.229ZM3.508 23.235a.602.602 0 0 0-.682-.51l-1.623.236a.602.602 0 0 0 .173 1.191l1.623-.235a.602.602 0 0 0 .51-.682Z"/></svg>