<svg width="21" height="33" viewBox="0 0 21 33" fill="none" xmlns="http://www.w3.org/2000/svg">
<path d="M10.5761 5.67627C9.66826 5.67627 8.92969 6.48672 8.92969 7.48289C8.92969 8.47906 9.66826 9.28951 10.5761 9.28951C11.4839 9.28951 12.2225 8.47906 12.2225 7.48289C12.2225 6.48672 11.4839 5.67627 10.5761 5.67627ZM10.5761 8.42387C10.1032 8.42387 9.71851 8.00173 9.71851 7.48285C9.71851 6.96397 10.1032 6.54182 10.5761 6.54182C11.0489 6.54182 11.4336 6.96397 11.4336 7.48285C11.4336 8.00173 11.0489 8.42387 10.5761 8.42387Z" fill="#828282"/>
<path d="M10.577 1.36553C10.6808 1.36553 10.7825 1.31922 10.8559 1.23872C10.9292 1.15822 10.9714 1.04656 10.9714 0.932735C10.9714 0.81891 10.9292 0.707248 10.8559 0.626748C10.7825 0.546248 10.6808 0.499939 10.577 0.499939C10.4733 0.499939 10.3715 0.546248 10.2982 0.626748C10.2248 0.707248 10.1826 0.81891 10.1826 0.932735C10.1826 1.04656 10.2248 1.15822 10.2982 1.23872C10.3715 1.31922 10.4733 1.36553 10.577 1.36553Z" fill="#828282"/>
<path d="M12.6893 5.59772C12.7902 5.59772 12.8912 5.55543 12.9682 5.47095L14.0848 4.24562C14.2389 4.07661 14.2389 3.80257 14.0849 3.63356C13.9308 3.46455 13.6811 3.46455 13.5271 3.63356L12.4104 4.85889C12.2564 5.0279 12.2564 5.30195 12.4104 5.47095C12.4874 5.55548 12.5884 5.59772 12.6893 5.59772Z" fill="#828282"/>
<path d="M14.5344 12.2583C14.6353 12.2583 14.7363 12.2161 14.8133 12.1316C14.9673 11.9626 14.9673 11.6885 14.8133 11.5195L12.9682 9.49485C12.8142 9.32585 12.5645 9.32585 12.4104 9.4949C12.2564 9.6639 12.2564 9.93795 12.4104 10.107L14.2555 12.1316C14.3326 12.2161 14.4335 12.2583 14.5344 12.2583Z" fill="#828282"/>
<path d="M10.577 10.3282C10.3592 10.3282 10.1826 10.522 10.1826 10.761V12.6436C10.1826 12.8826 10.3592 13.0764 10.577 13.0764C10.7949 13.0764 10.9714 12.8826 10.9714 12.6436V10.761C10.9714 10.522 10.7949 10.3282 10.577 10.3282Z" fill="#828282"/>
<path d="M4.60769 7.91592C4.71142 7.91592 4.81279 7.86961 4.88654 7.78911C4.9599 7.70817 5.0021 7.59694 5.0021 7.48269C5.0021 7.36886 4.9599 7.25763 4.88654 7.1767C4.81318 7.0962 4.71142 7.05032 4.60769 7.05032C4.50357 7.05032 4.40181 7.0962 4.32845 7.1767C4.25509 7.25763 4.21289 7.36886 4.21289 7.48269C4.21289 7.59694 4.25509 7.70817 4.32845 7.78911C4.40221 7.86961 4.50357 7.91592 4.60769 7.91592Z" fill="#828282"/>
<path d="M8.18547 9.49487L6.56473 11.2734C6.41071 11.4424 6.41071 11.7164 6.56477 11.8854C6.64179 11.9699 6.74272 12.0122 6.84365 12.0122C6.94458 12.0122 7.04555 11.9699 7.12254 11.8854L8.74329 10.1069C8.8973 9.93793 8.8973 9.66388 8.74325 9.49487C8.58923 9.32582 8.33953 9.32587 8.18547 9.49487Z" fill="#828282"/>
<path d="M6.18445 7.0502C5.96662 7.0502 5.79004 7.24396 5.79004 7.483C5.79004 7.72203 5.96662 7.91579 6.18445 7.91579H7.58866C7.8065 7.91579 7.98307 7.72203 7.98307 7.483C7.98307 7.24396 7.8065 7.0502 7.58866 7.0502H6.18445Z" fill="#828282"/>
<path d="M16.5444 7.05032C16.4407 7.05032 16.3393 7.0962 16.2656 7.1767C16.1922 7.25763 16.1504 7.36886 16.1504 7.48269C16.1504 7.59694 16.1922 7.70861 16.2656 7.78911C16.3393 7.86961 16.4407 7.91592 16.5444 7.91592C16.6485 7.91592 16.7499 7.86961 16.8236 7.78911C16.897 7.70861 16.9392 7.59694 16.9392 7.48269C16.9392 7.36886 16.897 7.25763 16.8236 7.1767C16.7503 7.0962 16.6485 7.05032 16.5444 7.05032Z" fill="#828282"/>
<path d="M13.5634 7.0502C13.3455 7.0502 13.1689 7.24396 13.1689 7.483C13.1689 7.72203 13.3455 7.91579 13.5634 7.91579H14.7464C14.9643 7.91579 15.1408 7.72203 15.1408 7.483C15.1408 7.24396 14.9643 7.0502 14.7464 7.0502H13.5634Z" fill="#828282"/>
<path d="M10.577 16.4534C10.3592 16.4534 10.1826 16.6472 10.1826 16.8862V22.2263C10.1826 22.4653 10.3592 22.6591 10.577 22.6591C10.7949 22.6591 10.9714 22.4653 10.9714 22.2263V16.8862C10.9714 16.6472 10.7949 16.4534 10.577 16.4534Z" fill="#828282"/>
<path d="M20.5609 13.4348L19.8113 12.5885L19.9644 11.4203C19.9852 11.2615 19.9242 11.103 19.8059 11.0086C19.6875 10.9142 19.5313 10.8995 19.4 10.9703L18.4349 11.4911L17.4698 10.9703C17.3385 10.8995 17.1823 10.9143 17.0639 11.0086C16.9456 11.1029 16.8845 11.2614 16.9054 11.4203L17.0584 12.5885L16.3089 13.4348C16.2069 13.5499 16.1714 13.7175 16.2166 13.8702C16.2618 14.0229 16.3803 14.1355 16.5244 14.1629L17.5842 14.3641L18.0861 15.408C18.1543 15.5499 18.2886 15.6388 18.4349 15.6388C18.5812 15.6388 18.7155 15.55 18.7837 15.408L19.2856 14.3641L20.3454 14.1629C20.4896 14.1356 20.608 14.0229 20.6533 13.8702C20.6984 13.7175 20.6629 13.5499 20.5609 13.4348ZM18.96 13.5475C18.8395 13.5704 18.7355 13.6533 18.6784 13.772L18.4349 14.2785L18.1913 13.772C18.1343 13.6533 18.0303 13.5704 17.9098 13.5475L17.3955 13.4499L17.7593 13.0392C17.8445 12.943 17.8843 12.8088 17.8668 12.676L17.7926 12.1091L18.2609 12.3618C18.3706 12.421 18.4992 12.421 18.6089 12.3618L19.0773 12.1091L19.003 12.676C18.9856 12.8088 19.0253 12.943 19.1105 13.0392L19.4743 13.4499L18.96 13.5475Z" fill="#828282"/>
<path d="M15.7773 15.5869C14.5638 16.9185 13.8955 18.689 13.8955 20.5722V22.2263C13.8955 22.4653 14.0721 22.6591 14.2899 22.6591C14.5077 22.6591 14.6843 22.4653 14.6843 22.2263V20.5722C14.6843 18.9202 15.2706 17.3671 16.3351 16.199C16.4891 16.03 16.4891 15.7559 16.3351 15.5869C16.1811 15.4179 15.9314 15.4179 15.7773 15.5869Z" fill="#828282"/>
<path d="M4.93547 12.2835C4.98067 12.1309 4.94517 11.9633 4.84318 11.8482L4.0936 11.0019L4.24668 9.8337C4.2675 9.67482 4.20645 9.51633 4.08812 9.42194C3.96976 9.32759 3.81357 9.31287 3.68224 9.38372L2.71711 9.90446L1.75199 9.38372C1.62073 9.31287 1.46451 9.32763 1.34611 9.42194C1.22778 9.51629 1.16673 9.67478 1.18755 9.8337L1.34063 11.0019L0.591089 11.8482C0.489134 11.9633 0.453598 12.1309 0.498797 12.2835C0.543996 12.4362 0.662516 12.5489 0.806673 12.5762L1.86645 12.7774L2.36834 13.8213C2.43657 13.9632 2.57087 14.0521 2.71715 14.0521C2.86344 14.0521 2.99774 13.9632 3.06597 13.8213L3.56786 12.7774L4.62764 12.5762C4.77175 12.5489 4.89023 12.4362 4.93547 12.2835ZM3.24227 11.9608C3.12178 11.9837 3.01777 12.0667 2.9607 12.1853L2.71715 12.6918L2.47361 12.1853C2.41654 12.0667 2.31253 11.9837 2.19204 11.9608L1.67781 11.8632L2.04153 11.4525C2.12676 11.3563 2.16648 11.2221 2.14909 11.0893L2.07482 10.5224L2.54314 10.7751C2.6529 10.8343 2.78144 10.8343 2.89121 10.7751L3.35953 10.5224L3.28526 11.0893C3.26787 11.2221 3.30759 11.3563 3.39282 11.4525L3.75654 11.8632L3.24227 11.9608Z" fill="#828282"/>
<path d="M4.81668 14.0004C4.66267 14.1694 4.66267 14.4435 4.81668 14.6125C5.8812 15.7806 6.46745 17.3337 6.46745 18.9857V22.2264C6.46745 22.4654 6.64402 22.6592 6.86186 22.6592C7.07969 22.6592 7.25627 22.4654 7.25627 22.2264V18.9857C7.25627 17.1025 6.58798 15.332 5.37446 14.0004C5.22048 13.8314 4.9707 13.8314 4.81668 14.0004Z" fill="#828282"/>
<path d="M15.6488 3.30694C16.3473 3.30694 16.9157 2.68328 16.9157 1.91667C16.9157 1.15006 16.3474 0.526398 15.6488 0.526398C14.9501 0.526398 14.3818 1.15006 14.3818 1.91667C14.3818 2.68328 14.9501 3.30694 15.6488 3.30694ZM15.6488 1.39203C15.9124 1.39203 16.1269 1.62739 16.1269 1.91671C16.1269 2.20604 15.9124 2.44139 15.6488 2.44139C15.3851 2.44139 15.1707 2.20604 15.1707 1.91671C15.1707 1.62739 15.3851 1.39203 15.6488 1.39203Z" fill="#828282"/>
<path d="M8.18435 5.47095C8.26138 5.55548 8.36231 5.59772 8.46324 5.59772C8.56416 5.59772 8.66513 5.55543 8.74212 5.47095C8.89614 5.30195 8.89614 5.0279 8.74212 4.85889L7.62543 3.63356C7.47141 3.46455 7.22167 3.46455 7.06766 3.63356C6.91364 3.80257 6.91364 4.07661 7.0677 4.24562L8.18435 5.47095Z" fill="#828282"/>
<path d="M5.50427 3.30694C6.20285 3.30694 6.77119 2.68328 6.77119 1.91667C6.77119 1.15006 6.20285 0.526398 5.50427 0.526398C4.80569 0.526398 4.2373 1.15006 4.2373 1.91667C4.2373 2.68328 4.80569 3.30694 5.50427 3.30694ZM5.50427 1.39203C5.76793 1.39203 5.98237 1.62739 5.98237 1.91671C5.98237 2.20604 5.76789 2.44139 5.50427 2.44139C5.2406 2.44139 5.02612 2.20604 5.02612 1.91671C5.02612 1.62739 5.2406 1.39203 5.50427 1.39203Z" fill="#828282"/>
<path d="M10.577 4.63765C10.7949 4.63765 10.9714 4.44388 10.9714 4.20485V2.66397C10.9714 2.42493 10.7949 2.23117 10.577 2.23117C10.3592 2.23117 10.1826 2.42493 10.1826 2.66397V4.20481C10.1826 4.44388 10.3592 4.63765 10.577 4.63765Z" fill="#828282"/>
<path d="M10.577 14.5079C10.4733 14.5079 10.3715 14.5542 10.2982 14.6347C10.2248 14.7152 10.1826 14.8269 10.1826 14.9407C10.1826 15.055 10.2248 15.1662 10.2982 15.2471C10.3715 15.3276 10.4733 15.3735 10.577 15.3735C10.6808 15.3735 10.7825 15.3276 10.8559 15.2471C10.9292 15.1662 10.9714 15.0546 10.9714 14.9407C10.9714 14.8269 10.9292 14.7157 10.8559 14.6347C10.7825 14.5542 10.6808 14.5079 10.577 14.5079Z" fill="#828282"/>
<rect x="4.41602" y="22.8824" width="13.3335" height="9.11759" stroke="#828282"/>
<line y1="-0.5" x2="11.9673" y2="-0.5" transform="matrix(0.637913 -0.770108 0.637913 0.770108 4.70117 32.4999)" stroke="#828282"/>
<line y1="-0.5" x2="11.9673" y2="-0.5" transform="matrix(0.637913 -0.770108 0.637913 0.770108 6.87109 32.4999)" stroke="#828282"/>
<line y1="-0.5" x2="11.9673" y2="-0.5" transform="matrix(0.637913 -0.770108 0.637913 0.770108 9.15918 32.4999)" stroke="#828282"/>
</svg>
