<svg xmlns="http://www.w3.org/2000/svg" width="30" height="34" fill="none"><path fill="#333" d="M29.612 15.693a.48.48 0 0 0-.48-.48h-8.066a.48.48 0 1 0 0 .96h8.066a.48.48 0 0 0 .48-.48ZM.096 15.693c0 .266.215.48.48.48H8.64a.48.48 0 1 0 0-.96H.576a.48.48 0 0 0-.48.48ZM24.611 5.258l-5.703 5.703a.48.48 0 0 0 .68.679l5.702-5.703a.48.48 0 1 0-.679-.68ZM15.334 9.48V1.416a.48.48 0 0 0-.961 0v8.066a.48.48 0 0 0 .96 0ZM14.373 21.906v8.066a.48.48 0 0 0 .96 0v-8.066a.48.48 0 0 0-.96 0ZM10.8 10.96 5.097 5.259a.48.48 0 0 0-.68.679l5.704 5.703a.48.48 0 1 0 .68-.68ZM24.611 26.129a.48.48 0 1 0 .68-.679l-5.704-5.703a.48.48 0 1 0-.679.679l5.703 5.703Z"/><path fill="#333" d="M18.323 15.567a.695.695 0 0 0-.385-1.185l-1.7-.247-.761-1.541a.695.695 0 0 0-1.246 0l-.76 1.541-1.702.247a.695.695 0 0 0-.385 1.185l.7.681C5.38 22.091 4.082 29.963 3.837 33.12a.55.55 0 0 0 1.088.141c.67-3.644 2.338-7.007 4.957-9.995a.48.48 0 1 0-.722-.632 23.24 23.24 0 0 0-3.136 4.54c1.063-3.2 3-6.927 6.531-10.064l-.231 1.351a.694.694 0 0 0 .437.767 27.948 27.948 0 0 0-2.022 1.756.48.48 0 0 0 .665.693 27.384 27.384 0 0 1 3.857-3.07l1.113.586a.695.695 0 0 0 1.008-.732l-.29-1.694 1.23-1.2Zm-2.001.61a.695.695 0 0 0-.2.614l.223 1.301-1.168-.614a.694.694 0 0 0-.646 0l-1.169.614.204-1.19c.016-.094.112-.44-.18-.725l-.946-.922 1.307-.19a.695.695 0 0 0 .523-.38l.584-1.183.584 1.183a.695.695 0 0 0 .523.38l1.306.19-.945.922Z"/></svg>