<svg xmlns="http://www.w3.org/2000/svg" width="30" height="27" fill="none"><path fill="#333" d="M25.355.502a.879.879 0 1 0 .001 1.758 2.884 2.884 0 0 1 2.886 2.886v8.727a2.76 2.76 0 0 0-1.004-.191H2.762c-.35 0-.688.065-1.004.188V5.146A2.884 2.884 0 0 1 4.645 2.26.879.879 0 1 0 4.644.502 4.64 4.64 0 0 0 0 5.146v18.829a2.76 2.76 0 0 0 2.762 2.761h8.472c1.5 0 2.762-1.212 2.762-2.761V20.68a1.004 1.004 0 1 1 2.008 0v3.295a2.76 2.76 0 0 0 2.762 2.761h8.472c1.5 0 2.762-1.212 2.762-2.761V5.146A4.641 4.641 0 0 0 25.355.502Zm2.887 23.473c0 .563-.46 1.003-1.004 1.003h-8.473c-.55 0-1.003-.444-1.003-1.003V20.68a2.763 2.763 0 0 0-5.524 0v3.295c0 .562-.459 1.003-1.004 1.003H2.762c-.55 0-1.004-.444-1.004-1.003v-7.532a1.004 1.004 0 1 1 2.007 0v5.649a.879.879 0 0 0 1.758 0v-5.649a1.005 1.005 0 0 1 2.008 0v1.507a.879.879 0 0 0 1.758 0v-1.507a1.005 1.005 0 0 1 2.008 0 .879.879 0 0 0 1.758 0c0-.553.45-1.004 1.004-1.004h5.648c.553 0 1.004.45 1.004 1.004v5.649a.879.879 0 0 0 1.758 0v-5.649a1.005 1.005 0 0 1 2.007 0v1.507a.879.879 0 0 0 1.758 0v-1.507a1.005 1.005 0 0 1 2.008 0v7.532Z"/><path fill="#333" d="M8.41 20.271a.879.879 0 0 0-.88.88v.94a.879.879 0 0 0 1.758 0v-.94a.879.879 0 0 0-.879-.88Z"/></svg>