<svg width="21" height="19" viewBox="0 0 21 19" fill="none" xmlns="http://www.w3.org/2000/svg">
<path d="M9.55972 16.5254L9.55826 16.5241C6.85856 14.1376 4.70017 12.2271 3.20465 10.4447C1.71977 8.67496 1 7.1587 1 5.57859C1 3.03073 3.04603 1 5.72254 1C7.23956 1 8.70416 1.69325 9.6515 2.77775L10.4046 3.6399L11.1577 2.77775C12.1051 1.69325 13.5697 1 15.0867 1C17.7632 1 19.8093 3.03073 19.8093 5.57859C19.8093 7.15872 19.0895 8.67501 17.6044 10.4462C16.1088 12.2299 13.9507 14.1427 11.2512 16.5341C11.2509 16.5344 11.2505 16.5347 11.2502 16.535L10.4071 17.2775L9.55972 16.5254Z" stroke="#828282" stroke-width="2"/>
</svg>
