<svg xmlns="http://www.w3.org/2000/svg" width="26" height="27" fill="none"><path fill="#333" d="M6.07 18.073a2.469 2.469 0 0 0-2.466 2.467 2.469 2.469 0 0 0 2.467 2.466 2.469 2.469 0 0 0 2.466-2.466 2.469 2.469 0 0 0-2.466-2.466Zm0 3.436a.97.97 0 0 1 0-1.939.97.97 0 0 1 0 1.94Z"/><path fill="#333" d="M25.715 9.057V5.08a.748.748 0 0 0-.748-.749c-2.953 0-5.729 1.15-7.817 3.238a11.12 11.12 0 0 0-1.734 2.243 11.58 11.58 0 0 1 1.576-5.521c.79-1.354 1.594-2.08 1.6-2.086a.748.748 0 0 0-.992-1.121c-.13.115-2.805 2.534-3.515 6.964a2.45 2.45 0 0 0-2.284 0c-.71-4.43-3.385-6.849-3.516-6.964a.748.748 0 0 0-.993 1.12c.008.006.811.733 1.601 2.087a11.58 11.58 0 0 1 1.576 5.52A11.119 11.119 0 0 0 8.736 7.57 10.983 10.983 0 0 0 .918 4.331a.748.748 0 0 0-.748.749v3.977a7.081 7.081 0 0 0 3.488 6.098A5.91 5.91 0 0 0 .17 20.54a5.908 5.908 0 0 0 5.902 5.902 5.911 5.911 0 0 0 5.528-3.835 2.45 2.45 0 0 0 2.686 0c.84 2.237 3 3.835 5.528 3.835a5.908 5.908 0 0 0 5.901-5.902 5.91 5.91 0 0 0-3.488-5.385 7.081 7.081 0 0 0 3.488-6.098Zm-24.048 0v-3.2c4.675.364 8.417 4.106 8.78 8.781h-3.2a5.587 5.587 0 0 1-5.58-5.58Zm4.405 15.888a4.41 4.41 0 0 1-4.405-4.405 4.41 4.41 0 0 1 4.405-4.405h4.404v4.405a4.41 4.41 0 0 1-4.404 4.405Zm6.87-3.436a.97.97 0 0 1-.969-.97V10.234a.97.97 0 0 1 1.94 0V20.54a.97.97 0 0 1-.97.97Zm6.872-5.374a4.41 4.41 0 0 1 4.405 4.405 4.41 4.41 0 0 1-4.405 4.405 4.41 4.41 0 0 1-4.405-4.405v-4.405h4.405Zm-1.176-1.497h-3.2c.364-4.675 4.106-8.417 8.78-8.78v3.2a5.587 5.587 0 0 1-5.58 5.58Z"/><path fill="#333" d="M19.813 23.006a2.469 2.469 0 0 0 2.466-2.466 2.47 2.47 0 0 0-2.466-2.466 2.469 2.469 0 0 0-2.466 2.466 2.469 2.469 0 0 0 2.466 2.466Zm0-3.436a.97.97 0 0 1 0 1.94.97.97 0 0 1 0-1.94Z"/></svg>