<svg xmlns="http://www.w3.org/2000/svg" width="22" height="38" fill="none"><path fill="#333" stroke="#333" stroke-width=".1" d="M16.87 26.635a.594.594 0 0 0 1.187 0v-1.24a.594.594 0 1 0-1.187 0v1.24ZM16.87 20.116a.594.594 0 0 0 1.187 0v-1.24a.594.594 0 1 0-1.187 0v1.24ZM19.233 21.733a.593.593 0 0 0 .81.217l1.075-.62a.594.594 0 0 0-.594-1.028l-1.074.62a.594.594 0 0 0-.217.81ZM13.59 24.992a.593.593 0 0 0 .811.218l1.074-.62a.594.594 0 1 0-.594-1.028l-1.074.62a.593.593 0 0 0-.217.81ZM13.807 21.33a.594.594 0 0 1 .594-1.028l1.074.62a.594.594 0 0 1 .218.81l-.044-.024a.544.544 0 0 1-.742.199l-1.1-.577Zm0 0 1.075.62m-1.075-.62 1.075.62m0 0ZM19.45 24.59l1.074.62a.594.594 0 0 0 .81-.217h.001a.594.594 0 0 0-.217-.812l-1.074-.62a.594.594 0 0 0-.594 1.028ZM10.313 23.331a.598.598 0 0 1-.593-.593c0-.157.063-.31.173-.42l.42 1.013Zm0 0a.596.596 0 0 0 .594-.593.596.596 0 0 0-.594-.594.598.598 0 0 0-.42.174l.42 1.013ZM13.064 6.724l-.035.035.035.036.66.659.035.035.035-.035 1.682-1.681a1.448 1.448 0 1 0-.73-.73l-1.682 1.68Zm2.708-2.567a.416.416 0 1 1-.122.294.416.416 0 0 1 .122-.294ZM12.513 1.934v.05a.417.417 0 1 1-.404.318l.002-.01a.416.416 0 0 1 .402-.308v-.05Zm0 0a.47.47 0 0 1 .121.016l-.57.33a.467.467 0 0 1 .449-.346Zm-.527 4.238.048.013.013-.049.615-2.294a1.455 1.455 0 1 0-.997-.27l-.616 2.297-.013.049.049.013.9.24ZM8.875 6.136l.013.049.049-.013.9-.242.049-.012-.013-.049-.616-2.296a1.448 1.448 0 1 0-1.573.082l.012.006c.174.099.366.16.564.18l.615 2.295Zm-.88-3.79a.413.413 0 0 1 .045-.14l.008-.014a.416.416 0 1 1-.041.316.413.413 0 0 1-.011-.162ZM4.856 5.9c.204 0 .405-.044.59-.127l1.682 1.681.036.035.035-.035.66-.66.035-.035-.036-.035-1.681-1.682a1.448 1.448 0 1 0-1.321.858Zm-.294-1.743a.416.416 0 1 1-.122.294.415.415 0 0 1 .122-.294Zm-.172.294a.465.465 0 0 1 .136-.33l-.136.33ZM2.43 9.404a1.447 1.447 0 0 0 1.548-.55l2.296.615.048.013.013-.049.242-.9.013-.049-.049-.013-2.294-.614a1.45 1.45 0 0 0-2.841-.227A1.449 1.449 0 0 0 2.43 9.404Zm0 0 .013-.048m-.013.048.013-.048m0 0a1.399 1.399 0 0 1-.99-1.713m.99 1.713a1.397 1.397 0 0 0 1.514-.56L1.454 7.643m0 0Zm1.35-.105v.05a.416.416 0 1 1-.404.318l.003-.009a.417.417 0 0 1 .401-.309v-.05Zm0 0a.47.47 0 0 1 .122.016l-.571.33a.467.467 0 0 1 .45-.346ZM13.163 16.414v.003a1.44 1.44 0 0 0-.501-.147l-.615-2.294-.013-.049-.048.013-.901.242-.049.013.013.048.616 2.296a1.448 1.448 0 1 0 1.573-.082l-.075-.043Zm-.289 1.506a.416.416 0 1 1 .042-.316.414.414 0 0 1-.042.316ZM13.794 12.658l-.035-.035-.035.035-.66.66-.035.035.035.035 1.682 1.682a1.448 1.448 0 1 0 .73-.73l-1.682-1.682Zm2.567 3.297a.416.416 0 1 1 0-.589.413.413 0 0 1 0 .589ZM16.941 11.259a1.448 1.448 0 0 1 2.573 1.223 1.45 1.45 0 0 1-1.397 1.075l-1.176-2.298Zm0 0-2.296-.616-.048-.013-.013.049-.242.9-.013.049.049.013 2.294.614a1.45 1.45 0 0 0 1.067 1.252l-.798-2.248Zm1.172.382v.05a.417.417 0 1 1-.145.806.416.416 0 0 1 .145-.806v-.05Zm0 0a.466.466 0 0 1 .451.587l-.131.22a.467.467 0 1 1-.32-.807ZM16.819 7.355h-.003l.043-.075a1.448 1.448 0 1 1 1.63 2.124l-1.67-2.049Zm0 0a1.445 1.445 0 0 0-.147.502l-2.294.614-.049.013.013.049.242.9.013.049.048-.013 2.296-.616-.122-1.498Zm.891.417a.462.462 0 0 1 .465-.23.464.464 0 0 1 .401.524.466.466 0 1 1-.866-.294Zm0 0 .044.024a.134.134 0 0 1 .003-.005l.003-.006v-.013h-.05ZM10.447 8.946a1.3 1.3 0 0 0-1.299 1.299 1.3 1.3 0 0 0 1.299 1.299 1.3 1.3 0 0 0 1.299-1.3l-1.3-1.298Zm0 0a1.3 1.3 0 0 1 1.299 1.299l-1.3-1.299Zm-2.499 1.299a2.501 2.501 0 0 0 2.499 2.498 2.502 2.502 0 0 0 2.498-2.498 2.502 2.502 0 0 0-2.498-2.499 2.502 2.502 0 0 0-2.499 2.499ZM9.72 20.582a.594.594 0 0 0 1.187 0v-1.786a.594.594 0 0 0-1.187 0v1.786ZM3.337 14.29c0 1.207.98 2.187 2.186 2.187s2.186-.98 2.186-2.186-.98-2.186-2.186-2.186-2.186.98-2.186 2.186Zm1.187 0a1 1 0 0 1 1.998 0 1 1 0 0 1-1.998 0ZM4.929 19.878a.594.594 0 0 0 1.187 0V18.09a.594.594 0 1 0-1.187 0v1.787ZM.17 17.381a.593.593 0 0 0 .811.217l1.547-.893a.594.594 0 0 0-.594-1.028l-1.546.893a.594.594 0 0 0-.218.811ZM1.935 12.905l.568-.985.025-.043-1.547-.894a.594.594 0 1 0-.593 1.029l1.547.893ZM4.964 23.63a.594.594 0 1 0 1.187 0v-1.786a.594.594 0 1 0-1.187 0v1.787Z"/><path stroke="#333" stroke-linejoin="round" d="M10.312 24.385 3.783 36.603h13.058l-6.53-12.218Z"/><path stroke="#333" d="m6.854 31.109 6.087-2.766M5.356 33.454l8.312-3.725M6.597 36.505l8.625-3.8"/></svg>