<svg xmlns="http://www.w3.org/2000/svg" width="32" height="33" fill="none"><path fill="#333" d="M31.037 3.121c-1.09 0-1.977-.905-1.977-2.018a.621.621 0 0 0-.615-.627c-.339 0-.614.28-.614.627 0 1.113-.887 2.018-1.977 2.018a.621.621 0 0 0-.615.628.62.62 0 0 0 .615.627c1.09 0 1.977.905 1.977 2.018 0 .347.275.627.614.627.34 0 .615-.28.615-.627 0-1.113.887-2.018 1.977-2.018.34 0 .614-.281.614-.627a.621.621 0 0 0-.614-.628ZM28.445 4.47a3.27 3.27 0 0 0-.706-.72c.27-.202.51-.445.706-.721.197.276.436.52.706.72-.27.202-.509.446-.706.721ZM13.838 9.697h.265v.27c0 .347.275.628.614.628.34 0 .615-.281.615-.627v-.27h.265c.339 0 .614-.281.614-.628a.621.621 0 0 0-.614-.627h-.265v-.27a.621.621 0 0 0-.615-.628.621.621 0 0 0-.614.628v.27h-.265c-.34 0-.614.28-.614.627s.275.627.614.627ZM26.718 17.392h-.625v-.638a.621.621 0 0 0-.614-.628c-.34 0-.615.281-.615.628v.638h-.626a.621.621 0 0 0-.614.627c0 .347.275.628.614.628h.626v.638c0 .346.275.627.614.627.34 0 .615-.28.615-.627v-.639h.625c.34 0 .615-.28.615-.627a.621.621 0 0 0-.615-.627ZM16.45 5.209h.721v.736c0 .346.275.627.614.627.34 0 .615-.28.615-.627v-.736h.72c.34 0 .615-.28.615-.627a.621.621 0 0 0-.614-.628H18.4V3.22a.621.621 0 0 0-.614-.628.621.621 0 0 0-.615.628v.735h-.72a.621.621 0 0 0-.615.628c0 .346.275.627.614.627ZM16.87 11.553a.613.613 0 0 0-.87 0l-1.717 1.753-2.523 2.576-2.754 2.811-2.604-.227a2.232 2.232 0 0 0-2.09 1.055c-.005.006-.009.013-.012.02L.274 26.53a.634.634 0 0 0 .219.858.6.6 0 0 0 .31.086c.21 0 .416-.11.53-.31l4.02-6.978c.206-.323.567-.504.945-.47l1.572.136-1.74 1.777a.634.634 0 0 0 0 .887l1.092 1.115-1.43 1.46a.637.637 0 0 0 0 .888c.24.245.629.245.869 0l1.865-1.904 1.317-1.345a.995.995 0 0 1 1.412 0c.377.385.377 1.047.006 1.436l-1.323 1.35-.005.005-3.121 3.186-2.666 2.695a.636.636 0 0 0-.004.887.606.606 0 0 0 .869.004l2.668-2.697 1.352-1.38c.106.3.276.577.504.81l.561.572a.975.975 0 0 0 1.398 0l3.01-3.071a2.342 2.342 0 0 0 .637-1.946l-.314-2.282 1.925-1.965 1.152-1.175.002-.002 2.771-2.83a.635.635 0 0 0 0-.887l-3.808-3.888Zm-.015 6.903-.907.926-.616.628v-6l1.102-1.126.421.43v5.142Zm-4.046 4.13v-6l1.294-1.322v6.001l-1.294 1.32Zm-1.229-1.152a2.175 2.175 0 0 0-1.523-.204v-1.835l1.523-1.555v3.594Zm-4.147.64 1.396-1.425v1.344l-.738.752-.658-.672Zm6.49 2.682c.045.324-.063.654-.289.885l-2.839 2.898-.39-.4a.94.94 0 0 1-.27-.662.94.94 0 0 1 .27-.662l1.652-1.687.068-.069a1.5 1.5 0 0 0 .027-.029l1.587-1.619.185 1.345Zm4.161-7.555v-2.633l1.29 1.317-1.29 1.316ZM18.229 8.98a18.424 18.424 0 0 1-.416 2.09.63.63 0 0 0 .422.775.616.616 0 0 0 .76-.43c.01-.038.262-.944.45-2.254a.625.625 0 0 0-.52-.711.616.616 0 0 0-.696.53ZM21.22 8.853a.616.616 0 0 0 .782-.388c.022-.065.538-1.611.7-4.305a.623.623 0 0 0-.576-.665.62.62 0 0 0-.65.588c-.152 2.505-.631 3.958-.636 3.972a.63.63 0 0 0 .38.798ZM24.345 13.41c-1.63-.025-2.822.402-2.872.42a.63.63 0 0 0-.373.802.611.611 0 0 0 .785.38c.042-.015 4.142-1.458 7.187 1.67a.607.607 0 0 0 .869.002.637.637 0 0 0 .003-.887c-1.488-1.528-3.423-2.353-5.6-2.386ZM30.222 11.043c-3.103-.794-5.725-.49-7.564.009l3.732-3.81a.637.637 0 0 0 0-.886.606.606 0 0 0-.87 0l-5.828 5.95a.644.644 0 0 0-.092.767.613.613 0 0 0 .842.214l.008-.005c.039-.024 3.944-2.437 9.474-1.022a.614.614 0 0 0 .745-.456.628.628 0 0 0-.447-.76ZM21.523 2.103c.096.241.341.4.597.387a.623.623 0 0 0 .554-.433.641.641 0 0 0-.194-.679.61.61 0 0 0-.731-.037.64.64 0 0 0-.226.762Z"/><path fill="#333" d="M30.19 7.938c-1.523-.304-3.38.578-3.458.616a.633.633 0 0 0-.293.834.614.614 0 0 0 .817.3c.434-.207 1.765-.705 2.699-.519a.615.615 0 0 0 .72-.495.627.627 0 0 0-.484-.736ZM4.176 27.492c.147.224.425.33.68.255a.63.63 0 0 0 .103-1.165.612.612 0 0 0-.706.119.643.643 0 0 0-.077.791Z"/></svg>