<svg width="16" height="17" viewBox="0 0 16 17" fill="none" xmlns="http://www.w3.org/2000/svg">
<path d="M0 13.4585V16.1604C0 16.4092 0.195529 16.6047 0.444384 16.6047H3.14624C3.26178 16.6047 3.37732 16.5603 3.45731 16.4714L13.1627 6.77496L9.82978 3.44208L0.133315 13.1385C0.0444385 13.2274 0 13.3341 0 13.4585ZM15.7401 4.19753C15.8225 4.11531 15.8878 4.01764 15.9324 3.91013C15.977 3.80261 16 3.68735 16 3.57095C16 3.45455 15.977 3.33929 15.9324 3.23178C15.8878 3.12426 15.8225 3.02659 15.7401 2.94437L13.6604 0.864651C13.5781 0.782259 13.4805 0.716893 13.373 0.672293C13.2654 0.627693 13.1502 0.604736 13.0338 0.604736C12.9174 0.604736 12.8021 0.627693 12.6946 0.672293C12.5871 0.716893 12.4894 0.782259 12.4072 0.864651L10.7808 2.4911L14.1136 5.82398L15.7401 4.19753Z" fill="#4F4F4F"/>
</svg>
