<svg width="20" height="17" viewBox="0 0 20 17" fill="none" xmlns="http://www.w3.org/2000/svg">
<path d="M3.78382 6.96391L2.80862 6.74262V6.74262L3.78382 6.96391ZM15.5794 5.67053C15.8459 6.1543 16.454 6.33048 16.9378 6.06404C17.4216 5.79761 17.5978 5.18945 17.3313 4.70568L15.5794 5.67053ZM4.61426 8.48457C4.61426 8.03689 4.66442 7.60214 4.75903 7.18519L2.80862 6.74262C2.68128 7.3038 2.61426 7.88697 2.61426 8.48457H4.61426ZM4.75903 7.18519C5.34944 4.58328 7.67779 2.64157 10.4573 2.64157V0.641571C6.72345 0.641571 3.60119 3.24974 2.80862 6.74262L4.75903 7.18519ZM10.4573 2.64157C12.6624 2.64157 14.5838 3.86277 15.5794 5.67053L17.3313 4.70568C15.9982 2.28518 13.4204 0.641571 10.4573 0.641571V2.64157Z" fill="#333333"/>
<path d="M1.85986 5.68311L3.38094 8.52779L6.22563 7.00671" stroke="#333333" stroke-width="2" stroke-linecap="round" stroke-linejoin="round"/>
<path d="M17.0624 9.99084L18.0376 10.2121L18.0376 10.2121L17.0624 9.99084ZM5.26675 11.2842C5.00031 10.8004 4.39215 10.6243 3.90839 10.8907C3.42462 11.1571 3.24844 11.7653 3.51488 12.2491L5.26675 11.2842ZM16.2319 8.47017C16.2319 8.91785 16.1818 9.3526 16.0872 9.76955L18.0376 10.2121C18.1649 9.65094 18.2319 9.06777 18.2319 8.47017L16.2319 8.47017ZM16.0872 9.76955C15.4968 12.3715 13.1684 14.3132 10.3889 14.3132L10.3889 16.3132C14.1227 16.3132 17.245 13.705 18.0376 10.2121L16.0872 9.76955ZM10.3889 14.3132C8.18375 14.3132 6.26239 13.092 5.26675 11.2842L3.51488 12.2491C4.84798 14.6696 7.42581 16.3132 10.3889 16.3132L10.3889 14.3132Z" fill="#333333"/>
<path d="M18.9863 11.2716L17.4652 8.42695L14.6206 9.94803" stroke="#333333" stroke-width="2" stroke-linecap="round" stroke-linejoin="round"/>
</svg>
