<svg width="18" height="21" viewBox="0 0 18 21" fill="none" xmlns="http://www.w3.org/2000/svg">
<path d="M7.94145 15.9462C7.97325 16.5185 7.51773 17 6.94453 17V17C6.41461 17 5.977 16.586 5.94761 16.0569L5.55855 9.05384C5.52675 8.48153 5.98227 8 6.55547 8V8C7.08539 8 7.523 8.41398 7.55239 8.94308L7.94145 15.9462Z" fill="#333333"/>
<path d="M6.13737 5.17577C6.0581 5.6514 5.64659 6 5.1644 6V6C4.55487 6 4.09122 5.45268 4.19143 4.85144L4.86263 0.824232C4.9419 0.348605 5.35341 -1.36751e-07 5.8356 -9.67049e-08V-9.67049e-08C6.44513 -4.60825e-08 6.90878 0.547317 6.80857 1.14856L6.13737 5.17577Z" fill="#333333"/>
<path d="M13.8086 4.85144C13.9088 5.45268 13.4451 6 12.8356 6V6C12.3534 6 11.9419 5.6514 11.8626 5.17577L11.1914 1.14856C11.0912 0.547317 11.5549 -2.03072e-07 12.1644 -1.52449e-07V-1.52449e-07C12.6466 -1.12403e-07 13.0581 0.348604 13.1374 0.824232L13.8086 4.85144Z" fill="#333333"/>
<path d="M12.0524 16.0569C12.023 16.586 11.5854 17 11.0555 17V17C10.4823 17 10.0268 16.5185 10.0585 15.9462L10.4476 8.94308C10.477 8.41397 10.9146 8 11.4445 8V8C12.0177 8 12.4732 8.48153 12.4415 9.05384L12.0524 16.0569Z" fill="#333333"/>
<rect x="16" y="19" width="2" height="14" rx="1" transform="rotate(90 16 19)" fill="#333333"/>
<rect x="18" y="4" width="2" height="18" rx="1" transform="rotate(90 18 4)" fill="#333333"/>
<path d="M12 1.47598e-09L13 2L5 2L6 2.50919e-08L12 1.47598e-09Z" fill="#333333"/>
<path d="M16.0585 20.0641C16.0256 20.5902 15.5894 20.9999 15.0624 20.9999V20.9999C14.4867 20.9999 14.0304 20.5142 14.0663 19.9396L14.9415 5.93573C14.9744 5.40973 15.4106 4.99994 15.9376 4.99994V4.99994C16.5133 4.99994 16.9696 5.48567 16.9337 6.06025L16.0585 20.0641Z" fill="#333333"/>
<path d="M3.93373 19.9396C3.96964 20.5142 3.51332 20.9999 2.93762 20.9999V20.9999C2.41059 20.9999 1.97439 20.5902 1.94151 20.0641L1.06627 6.06025C1.03036 5.48567 1.48668 4.99994 2.06238 4.99994V4.99994C2.58941 4.99994 3.02561 5.40973 3.05849 5.93573L3.93373 19.9396Z" fill="#333333"/>
</svg>
