<svg width="17" height="17" viewBox="0 0 17 17" fill="none" xmlns="http://www.w3.org/2000/svg">
<path d="M3.66552 11.212C4.39981 11.212 5.0639 10.9256 5.56742 10.468L10.6187 13.3296C10.5589 13.5523 10.5272 13.7815 10.5243 14.012C10.5243 15.556 11.7912 16.812 13.3485 16.812C14.9059 16.812 16.1727 15.556 16.1727 14.012C16.1727 12.468 14.9059 11.212 13.3485 11.212C12.6142 11.212 11.9501 11.4984 11.4466 11.956L6.39531 9.09441C6.44615 8.89681 6.47843 8.69281 6.48246 8.48001L11.4458 5.66801C11.9501 6.12561 12.6142 6.41201 13.3485 6.41201C14.9059 6.41201 16.1727 5.15601 16.1727 3.61201C16.1727 2.06801 14.9059 0.812012 13.3485 0.812012C11.7912 0.812012 10.5243 2.06801 10.5243 3.61201C10.5243 3.84881 10.563 4.07441 10.6187 4.29441L6.0322 6.89361C5.77701 6.50107 5.42673 6.17814 5.01333 5.95428C4.59993 5.73041 4.13656 5.61275 3.66552 5.61201C2.10817 5.61201 0.841309 6.86801 0.841309 8.41201C0.841309 9.95601 2.10817 11.212 3.66552 11.212ZM13.3485 12.812C14.0158 12.812 14.5589 13.3504 14.5589 14.012C14.5589 14.6736 14.0158 15.212 13.3485 15.212C12.6812 15.212 12.1381 14.6736 12.1381 14.012C12.1381 13.3504 12.6812 12.812 13.3485 12.812ZM13.3485 2.41201C14.0158 2.41201 14.5589 2.95041 14.5589 3.61201C14.5589 4.27361 14.0158 4.81201 13.3485 4.81201C12.6812 4.81201 12.1381 4.27361 12.1381 3.61201C12.1381 2.95041 12.6812 2.41201 13.3485 2.41201ZM3.66552 7.21201C4.33284 7.21201 4.87589 7.75041 4.87589 8.41201C4.87589 9.07361 4.33284 9.61201 3.66552 9.61201C2.9982 9.61201 2.45514 9.07361 2.45514 8.41201C2.45514 7.75041 2.9982 7.21201 3.66552 7.21201Z" fill="#4F4F4F"/>
</svg>
