<svg width="17" height="16" viewBox="0 0 17 16" fill="none" xmlns="http://www.w3.org/2000/svg">
<path id="Vector" d="M0.088623 12.8518V15.5537C0.088623 15.8025 0.284152 15.998 0.533007 15.998H3.23486C3.3504 15.998 3.46594 15.9536 3.54593 15.8647L13.2513 6.16827L9.9184 2.83539L0.221938 12.5319C0.133062 12.6207 0.088623 12.7274 0.088623 12.8518ZM15.8287 3.59084C15.9111 3.50862 15.9765 3.41095 16.0211 3.30344C16.0657 3.19592 16.0886 3.08066 16.0886 2.96426C16.0886 2.84786 16.0657 2.7326 16.0211 2.62509C15.9765 2.51757 15.9111 2.4199 15.8287 2.33768L13.749 0.257962C13.6668 0.17557 13.5691 0.110203 13.4616 0.0656034C13.3541 0.0210037 13.2388 -0.00195312 13.1224 -0.00195312C13.006 -0.00195312 12.8907 0.0210037 12.7832 0.0656034C12.6757 0.110203 12.5781 0.17557 12.4958 0.257962L10.8694 1.88441L14.2023 5.21729L15.8287 3.59084Z" fill="#4F4F4F"/>
</svg>
