<svg width="21" height="19" viewBox="0 0 21 19" fill="none" xmlns="http://www.w3.org/2000/svg">
<path d="M9.74429 16.9132L9.74284 16.9119C7.04313 14.5254 4.88474 12.6149 3.38922 10.8324C1.90434 9.06271 1.18457 7.54646 1.18457 5.96635C1.18457 3.41849 3.23061 1.38776 5.90711 1.38776C7.42413 1.38776 8.88873 2.08101 9.83607 3.1655L10.5892 4.02766L11.3423 3.1655C12.2897 2.08101 13.7543 1.38776 15.2713 1.38776C17.9478 1.38776 19.9938 3.41849 19.9938 5.96635C19.9938 7.54647 19.274 9.06277 17.789 10.834C16.2934 12.6177 14.1352 14.5304 11.4358 16.9218C11.4354 16.9221 11.4351 16.9224 11.4348 16.9227L10.5917 17.6652L9.74429 16.9132Z" stroke="#828282" stroke-width="2"/>
</svg>
