<svg width="24" height="33" viewBox="0 0 24 33" fill="none" xmlns="http://www.w3.org/2000/svg">
<path fill-rule="evenodd" clip-rule="evenodd" d="M8.13634 25.112C7.15535 25.112 6.36807 25.9073 6.36807 26.8892C6.36807 27.8702 7.15535 28.6664 8.13634 28.6664C9.11822 28.6664 9.91349 27.8702 9.91349 26.8892C9.91349 25.9073 9.11822 25.112 8.13634 25.112ZM17.0221 25.112C16.0411 25.112 15.2538 25.9073 15.2538 26.8892C15.2538 27.8702 16.0411 28.6664 17.0221 28.6664C18.004 28.6664 18.7993 27.8702 18.7993 26.8892C18.7993 25.9073 18.004 25.112 17.0221 25.112ZM4.582 10.8948H3.69209C3.20159 10.8948 2.80396 11.2924 2.80396 11.7829C2.80396 12.2734 3.20159 12.671 3.69209 12.671H3.89307C4.3138 12.671 4.69691 12.9134 4.87717 13.2935L6.90082 17.5613C7.45224 18.7242 7.41042 20.0815 6.78842 21.2082L6.57686 21.5915C6.43824 21.8465 6.35915 22.1379 6.35915 22.4463C6.35915 23.4273 7.15532 24.2234 8.13631 24.2234H17.9107C18.4014 24.2234 18.7992 23.8256 18.7992 23.3349C18.7992 22.8441 18.4014 22.4463 17.9107 22.4463H8.51218C8.40769 22.4463 8.32063 22.3747 8.29715 22.2771C8.28886 22.2426 8.29524 22.2067 8.30378 22.1723C8.31294 22.1353 8.32689 22.0997 8.34527 22.0664L8.46256 21.8536C8.86536 21.1229 9.63371 20.6691 10.4681 20.6691H15.7345C16.4027 20.6691 16.9857 20.3004 17.2895 19.7548L20.4653 13.9888C20.5364 13.8626 20.5773 13.716 20.5773 13.5605C20.5773 13.0691 20.1792 12.671 19.6878 12.671H7.38866C6.87543 12.671 6.40802 12.3757 6.18766 11.9122C5.9042 11.3106 5.29108 10.8948 4.582 10.8948Z" fill="white"/>
<line x1="6.72998" y1="9.14648" x2="19.1195" y2="9.14648" stroke="white" stroke-linecap="round" stroke-linejoin="round"/>
<line x1="6.93896" y1="5.16162" x2="19.3285" y2="5.16162" stroke="white" stroke-linecap="round" stroke-linejoin="round"/>
<line x1="6.93896" y1="1.17725" x2="19.3285" y2="1.17725" stroke="white" stroke-linecap="round" stroke-linejoin="round"/>
</svg>
