<svg width="22" height="27" viewBox="0 0 22 27" fill="none" xmlns="http://www.w3.org/2000/svg">
<path d="M20.6662 0.0960999H4.92057C4.79131 0.0960999 4.68556 0.201854 4.68556 0.331109V1.97617C4.68556 2.10543 4.79131 2.21118 4.92057 2.21118H19.4911V22.422C19.4911 22.5512 19.5969 22.657 19.7261 22.657H21.3712C21.5004 22.657 21.6062 22.5512 21.6062 22.422V1.03614C21.6062 0.516178 21.1861 0.0960999 20.6662 0.0960999ZM16.906 3.85624H1.86545C1.34549 3.85624 0.925415 4.27632 0.925415 4.79628V20.3862C0.925415 20.6359 1.02529 20.8738 1.20155 21.0501L6.29243 26.141C6.35706 26.2056 6.4305 26.2585 6.50982 26.3025V26.3584H6.63319C6.73601 26.3965 6.8447 26.4171 6.95633 26.4171H16.906C17.426 26.4171 17.8461 25.997 17.8461 25.4771V4.79628C17.8461 4.27632 17.426 3.85624 16.906 3.85624ZM6.50688 23.3679L3.97759 20.8356H6.50688V23.3679ZM15.731 24.302H8.38695V20.1306C8.38695 19.4814 7.86112 18.9556 7.2119 18.9556H3.0405V5.97132H15.731V24.302Z" fill="white"/>
</svg>
