<svg width="19" height="14" viewBox="0 0 19 14" fill="none" xmlns="http://www.w3.org/2000/svg">
<g opacity="0.5">
<path d="M3.5 6.99988C3.5 6.44759 3.94772 5.99988 4.5 5.99988H14.5C15.0523 5.99988 15.5 6.44759 15.5 6.99988V10.9999C15.5 12.1044 14.6046 12.9999 13.5 12.9999H5.5C4.39543 12.9999 3.5 12.1044 3.5 10.9999V6.99988Z" fill="#333333"/>
<rect x="12.5" y="0.999878" width="2" height="5" rx="0.5" fill="#333333"/>
<path d="M8.69998 0.849965L2.43139 5.55135C1.71866 6.08589 2.22344 6.99988 3.23139 6.99988H15.7686C16.7765 6.99988 17.2813 6.08589 16.5686 5.55135L10.3 0.849965C9.85815 0.518597 9.14181 0.518598 8.69998 0.849965Z" fill="#333333"/>
</g>
</svg>
