<svg xmlns="http://www.w3.org/2000/svg" width="17" height="17" fill="none"><circle cx="8.5" cy="8.5" r="7.5" fill="#fff"/><path fill="#4A76A7" fill-rule="evenodd" d="M8.5 17a8.5 8.5 0 1 0 0-17 8.5 8.5 0 0 0 0 17Zm3.568-4.656h1.162l-.002-.001c.329 0 .498-.17.383-.495-.102-.328-.485-.802-.982-1.367-.137-.16-.309-.329-.461-.478-.15-.146-.28-.274-.341-.358-.17-.226-.123-.315 0-.518 0 0 1.425-2.01 1.57-2.688.079-.25 0-.429-.348-.429h-1.165a.513.513 0 0 0-.508.328s-.598 1.446-1.434 2.383c-.271.271-.396.36-.542.36-.068 0-.18-.089-.18-.339V6.427c0-.291-.09-.427-.338-.427h-1.83c-.18 0-.292.136-.292.271 0 .107.06.184.138.281.126.158.296.37.323.86v1.715c0 .373-.067.44-.213.44-.396 0-1.354-1.455-1.93-3.117-.115-.314-.227-.45-.521-.45H3.393C3.068 6 3 6.159 3 6.328c0 .315.396 1.838 1.841 3.872.958 1.389 2.325 2.134 3.558 2.134.745 0 .833-.17.833-.451v-1.05c0-.328.068-.396.308-.396.169 0 .474.089 1.161.756.228.23.401.423.543.582.352.391.51.569.824.569Z" clip-rule="evenodd"/></svg>