<svg xmlns="http://www.w3.org/2000/svg" width="200" height="39" fill="none"><g fill="#737373" filter="url(#a)"><path d="m130.109 23.126-3.895-5.478c-.438.05-.893.074-1.364.074h-4.576v5.404h-1.801V6.086h6.377c2.175 0 3.879.519 5.112 1.558 1.234 1.038 1.851 2.466 1.851 4.284 0 1.33-.341 2.459-1.023 3.384-.665.908-1.623 1.566-2.872 1.971l4.162 5.843h-1.971Zm-5.307-6.938c1.688 0 2.978-.373 3.87-1.12.893-.746 1.339-1.793 1.339-3.14 0-1.38-.446-2.434-1.339-3.165-.892-.746-2.182-1.12-3.87-1.12h-4.528v8.545h4.528ZM140.707 6.232h1.801v17.04h-1.801V6.232ZM159.159 23.272c-2.207 0-3.927-.633-5.161-1.899-1.233-1.266-1.85-3.108-1.85-5.526V6.086h1.802v9.688c0 1.98.446 3.457 1.339 4.43.892.974 2.182 1.461 3.87 1.461 1.704 0 3.002-.487 3.895-1.46.893-.974 1.339-2.451 1.339-4.43v-9.69h1.753v9.762c0 2.418-.617 4.26-1.85 5.526-1.218 1.266-2.93 1.899-5.137 1.899Z"/><path fill-rule="evenodd" d="M185.905 7.984c-1.233-1.265-2.954-1.898-5.161-1.898-2.207 0-3.919.633-5.136 1.898-1.234 1.266-1.85 3.108-1.85 5.526v9.762h1.752v-9.689c0-1.98.447-3.456 1.339-4.43.893-.974 2.191-1.46 3.895-1.46 1.688 0 2.978.486 3.871 1.46.892.974 1.339 2.45 1.339 4.43v9.689h1.801V13.495c.013-1.935.459-3.383 1.338-4.342.893-.974 2.191-1.46 3.895-1.46 1.688 0 2.978.486 3.871 1.46.892.974 1.339 2.45 1.339 4.43v9.689h1.801V13.51c0-2.418-.617-4.26-1.85-5.526-1.233-1.265-2.954-1.898-5.161-1.898-2.207 0-3.919.633-5.136 1.898a5.74 5.74 0 0 0-.974 1.352 5.709 5.709 0 0 0-.973-1.352Z" clip-rule="evenodd"/><path d="M79.074 7.644h-5.988V6.086h13.778v1.558h-5.988v15.482h-1.802V7.644ZM61.903 23.272c-2.207 0-3.927-.633-5.16-1.899-1.234-1.266-1.85-3.108-1.85-5.526V6.086h1.801v9.688c0 1.98.446 3.457 1.339 4.43.892.974 2.182 1.461 3.87 1.461 1.704 0 3.003-.487 3.895-1.46.893-.974 1.339-2.451 1.339-4.43v-9.69h1.753v9.762c0 2.418-.617 4.26-1.85 5.526-1.218 1.266-2.93 1.899-5.137 1.899ZM7.34 23.272c-1.265 0-2.482-.203-3.65-.609-1.153-.405-2.045-.941-2.678-1.606l.706-1.388c.616.617 1.436 1.12 2.458 1.51a9.157 9.157 0 0 0 3.165.56c1.525 0 2.67-.277 3.432-.829.763-.567 1.144-1.298 1.144-2.19 0-.682-.21-1.226-.633-1.631a3.948 3.948 0 0 0-1.509-.925c-.6-.228-1.436-.47-2.507-.73-1.282-.325-2.305-.633-3.067-.926a5.258 5.258 0 0 1-1.972-1.387c-.536-.617-.803-1.453-.803-2.508 0-.86.227-1.639.681-2.336.455-.714 1.152-1.282 2.094-1.704.94-.422 2.11-.633 3.505-.633.974 0 1.923.138 2.848.414.941.26 1.753.624 2.434 1.095l-.608 1.436a8.108 8.108 0 0 0-2.288-1.047 8.277 8.277 0 0 0-2.386-.365c-1.493 0-2.62.292-3.384.877-.746.568-1.12 1.306-1.12 2.215 0 .681.203 1.233.61 1.655.421.406.94.722 1.557.95.633.21 1.477.446 2.532.706 1.25.308 2.255.616 3.018.925a4.8 4.8 0 0 1 1.972 1.363c.536.6.803 1.42.803 2.458 0 .86-.235 1.648-.706 2.362-.454.697-1.16 1.257-2.117 1.68-.958.405-2.134.608-3.53.608ZM31.303 18.574H21.81l-2.045 4.552h-1.874l7.79-17.04h1.776l7.79 17.04h-1.899l-2.044-4.552Zm-.657-1.461-4.09-9.153-4.089 9.153h8.18ZM105.096 12.488h-9.493l-4.83 10.627h-1.875L99.473 0h1.777l10.547 23.115h-1.899l-4.802-10.627Zm-.657-1.46-4.09-9.154-4.09 9.153h8.18ZM41.295 21.373c1.234 1.266 2.954 1.899 5.161 1.899h4.238v-1.607h-4.238c-1.688 0-2.978-.487-3.87-1.46-.893-.974-1.34-2.451-1.34-4.43v-9.69h-1.8v9.762c0 2.418.616 4.26 1.85 5.526Z"/></g><path fill="#737373" d="M6.084 31.984v4.698H5.67v-3.978l-2.043 3.375H3.42l-2.034-3.366v3.969H.972v-4.698h.441l2.124 3.555 2.133-3.555h.414Zm6.833-.036c.582 0 1.029.15 1.34.45.313.294.469.729.469 1.305v2.979h-.432v-.837a1.59 1.59 0 0 1-.657.648c-.288.15-.633.225-1.035.225-.522 0-.936-.123-1.242-.37-.3-.245-.45-.57-.45-.971 0-.39.138-.705.414-.945.282-.246.729-.37 1.34-.37h1.612v-.377c0-.438-.12-.771-.36-1-.234-.227-.58-.341-1.035-.341-.312 0-.612.054-.9.162a2.257 2.257 0 0 0-.72.432l-.225-.324c.234-.21.516-.372.846-.486.33-.12.675-.18 1.035-.18Zm-.252 4.4c.39 0 .72-.09.99-.27.276-.18.483-.44.62-.782v-.882h-1.601c-.462 0-.798.084-1.008.252-.204.168-.306.399-.306.693a.88.88 0 0 0 .342.729c.228.174.549.26.963.26Zm9.586-4.4c.438 0 .834.102 1.188.306.354.204.63.486.828.846.204.36.306.77.306 1.233 0 .462-.102.876-.306 1.242-.198.36-.474.642-.828.846-.354.198-.75.297-1.188.297-.414 0-.789-.096-1.125-.288a2.058 2.058 0 0 1-.783-.82v2.818h-.45v-6.444h.432v1.107a2.03 2.03 0 0 1 .783-.837 2.189 2.189 0 0 1 1.143-.306Zm-.027 4.365c.36 0 .684-.084.972-.252.288-.168.513-.402.675-.702.168-.3.252-.642.252-1.026s-.084-.726-.252-1.026a1.768 1.768 0 0 0-.675-.702 1.893 1.893 0 0 0-.972-.252c-.36 0-.684.084-.972.252a1.853 1.853 0 0 0-.675.702c-.162.3-.243.642-.243 1.026s.081.726.243 1.026c.168.3.393.534.675.702.288.168.612.252.972.252Zm8.735-1.81h-1.143v2.179h-.45v-4.698h.45v2.133h1.143l1.773-2.133h.495L31.32 34.26l2.052 2.42h-.54l-1.872-2.177Zm10.69-.062h-4.04c.011.366.105.693.279.98.174.283.407.502.702.658.3.156.635.234 1.007.234.306 0 .588-.054.846-.162.265-.114.483-.28.657-.495l.261.297a1.998 1.998 0 0 1-.773.567 2.495 2.495 0 0 1-1 .198c-.468 0-.885-.102-1.25-.306a2.25 2.25 0 0 1-.864-.846 2.457 2.457 0 0 1-.306-1.233c0-.456.096-.864.288-1.224.197-.366.467-.651.81-.855a2.205 2.205 0 0 1 1.151-.306c.426 0 .807.102 1.143.306.343.198.61.477.801.837.199.36.297.768.297 1.224l-.008.126Zm-2.232-2.097c-.33 0-.627.075-.89.225a1.67 1.67 0 0 0-.64.62 2.027 2.027 0 0 0-.27.9h3.6a1.884 1.884 0 0 0-.27-.9 1.76 1.76 0 0 0-.639-.62 1.771 1.771 0 0 0-.89-.225Zm9.963.045h-1.836v4.293h-.45v-4.293h-1.836v-.405h4.122v.405Zm8.398-.405v4.698h-.45v-4.293h-3.204v4.293h-.45v-4.698h4.104Zm8.945 0v4.698h-.45v-4.293h-2.448l-.063 1.25c-.036.649-.09 1.192-.162 1.63-.072.438-.195.792-.37 1.062-.173.27-.413.405-.72.405-.09 0-.218-.021-.386-.063l.045-.387a.985.985 0 0 0 .216.036c.252 0 .444-.123.576-.37.132-.245.222-.551.27-.917.048-.366.087-.843.117-1.431l.08-1.62h3.295Zm9.279 2.457H71.96c.012.366.105.693.279.98.174.283.408.502.702.658.3.156.636.234 1.008.234.306 0 .588-.054.846-.162.264-.114.483-.28.657-.495l.26.297a1.998 1.998 0 0 1-.773.567 2.495 2.495 0 0 1-1 .198c-.467 0-.884-.102-1.25-.306a2.25 2.25 0 0 1-.864-.846 2.457 2.457 0 0 1-.306-1.233c0-.456.096-.864.288-1.224.198-.366.468-.651.81-.855a2.205 2.205 0 0 1 1.152-.306c.426 0 .807.102 1.143.306.342.198.609.477.8.837.199.36.298.768.298 1.224l-.01.126Zm-2.232-2.097c-.33 0-.627.075-.891.225a1.67 1.67 0 0 0-.64.62 2.027 2.027 0 0 0-.27.9h3.6a1.884 1.884 0 0 0-.27-.9 1.76 1.76 0 0 0-.638-.62 1.771 1.771 0 0 0-.891-.225Zm7.041-.36h.45v4.005l3.348-4.005h.396v4.698h-.45v-4.005l-3.348 4.005h-.396v-4.698Zm2.08-.72c-.379 0-.685-.096-.919-.288-.234-.198-.354-.471-.36-.82h.333a.745.745 0 0 0 .27.586c.18.144.405.216.675.216s.492-.072.666-.216a.745.745 0 0 0 .27-.585h.342c-.006.348-.126.62-.36.819-.234.192-.54.288-.918.288Zm9.284 5.454c-.456 0-.864-.102-1.224-.306a2.204 2.204 0 0 1-.846-.846 2.489 2.489 0 0 1-.306-1.233c0-.462.102-.873.306-1.233.204-.366.486-.648.846-.846.36-.204.768-.306 1.224-.306a2.3 2.3 0 0 1 1.026.225c.312.144.564.357.756.639l-.333.243a1.556 1.556 0 0 0-.63-.522 1.843 1.843 0 0 0-.82-.18 1.96 1.96 0 0 0-.99.252 1.767 1.767 0 0 0-.683.693c-.162.3-.243.645-.243 1.035 0 .39.08.735.243 1.035.168.3.396.534.684.702.294.162.624.243.99.243.3 0 .573-.057.819-.171.252-.12.462-.297.63-.531l.333.243a1.887 1.887 0 0 1-.756.648 2.38 2.38 0 0 1-1.026.216Zm17.536-2.394c0 .738-.24 1.317-.72 1.737-.48.414-1.158.636-2.034.666v1.7h-.441v-1.7c-.876-.03-1.554-.252-2.034-.666-.48-.42-.72-1-.72-1.737 0-.726.24-1.296.72-1.71.486-.414 1.164-.636 2.034-.666v-1.944h.441v1.944c.876.03 1.554.252 2.034.666.48.414.72.984.72 1.71Zm-5.499 0c0 .606.198 1.083.594 1.43.396.349.966.538 1.71.568v-3.97c-.744.03-1.314.217-1.71.559-.396.342-.594.813-.594 1.413Zm2.745 1.998c.744-.03 1.314-.216 1.71-.558.402-.348.603-.828.603-1.44 0-.6-.201-1.071-.603-1.413-.396-.342-.966-.528-1.71-.558v3.969ZM118.5 34.44h-4.041c.012.366.105.693.279.98.174.283.408.502.702.658.3.156.636.234 1.008.234.306 0 .588-.054.846-.162.264-.114.483-.28.657-.495l.261.297a1.998 1.998 0 0 1-.774.567 2.495 2.495 0 0 1-.999.198c-.468 0-.885-.102-1.251-.306a2.25 2.25 0 0 1-.864-.846 2.457 2.457 0 0 1-.306-1.233c0-.456.096-.864.288-1.224.198-.366.468-.651.81-.855a2.205 2.205 0 0 1 1.152-.306c.426 0 .807.102 1.143.306.342.198.609.477.801.837.198.36.297.768.297 1.224l-.009.126Zm-2.232-2.097c-.33 0-.627.075-.891.225a1.67 1.67 0 0 0-.639.62 2.027 2.027 0 0 0-.27.9h3.6a1.884 1.884 0 0 0-.27-.9 1.76 1.76 0 0 0-.639-.62 1.771 1.771 0 0 0-.891-.225Zm7.042-.36h.45v4.005l3.348-4.005h.396v4.698h-.45v-4.005l-3.348 4.005h-.396v-4.698Zm2.079-.72c-.378 0-.684-.096-.918-.288-.234-.198-.354-.471-.36-.82h.333a.745.745 0 0 0 .27.586c.18.144.405.216.675.216s.492-.072.666-.216a.745.745 0 0 0 .27-.585h.342c-.006.348-.126.62-.36.819-.234.192-.54.288-.918.288Zm11.391 3.177h-4.041c.012.366.105.693.279.98.174.283.408.502.702.658.3.156.636.234 1.008.234.306 0 .588-.054.846-.162.264-.114.483-.28.657-.495l.261.297a1.998 1.998 0 0 1-.774.567 2.495 2.495 0 0 1-.999.198c-.468 0-.885-.102-1.251-.306a2.25 2.25 0 0 1-.864-.846 2.457 2.457 0 0 1-.306-1.233c0-.456.096-.864.288-1.224.198-.366.468-.651.81-.855a2.205 2.205 0 0 1 1.152-.306c.426 0 .807.102 1.143.306.342.198.609.477.801.837.198.36.297.768.297 1.224l-.009.126Zm-2.232-2.097c-.33 0-.627.075-.891.225a1.67 1.67 0 0 0-.639.62 2.027 2.027 0 0 0-.27.9h3.6a1.884 1.884 0 0 0-.27-.9 1.76 1.76 0 0 0-.639-.62 1.771 1.771 0 0 0-.891-.225Zm9.408-.396c.438 0 .834.102 1.188.306.354.204.63.486.828.846.204.36.306.77.306 1.233 0 .462-.102.876-.306 1.242-.198.36-.474.642-.828.846-.354.198-.75.297-1.188.297-.414 0-.789-.096-1.125-.288a2.058 2.058 0 0 1-.783-.82v2.818h-.45v-6.444h.432v1.107a2.03 2.03 0 0 1 .783-.837 2.189 2.189 0 0 1 1.143-.306Zm-.027 4.365c.36 0 .684-.084.972-.252.288-.168.513-.402.675-.702.168-.3.252-.642.252-1.026s-.084-.726-.252-1.026a1.768 1.768 0 0 0-.675-.702 1.893 1.893 0 0 0-.972-.252c-.36 0-.684.084-.972.252a1.853 1.853 0 0 0-.675.702c-.162.3-.243.642-.243 1.026s.081.726.243 1.026c.168.3.393.534.675.702.288.168.612.252.972.252Zm9.923-2.052c.69.12 1.035.507 1.035 1.16 0 .409-.15.72-.45.937-.294.216-.738.324-1.332.324h-2.034v-4.698h1.98c.522 0 .93.105 1.224.315.3.204.45.498.45.882 0 .276-.078.507-.234.693-.15.18-.363.309-.639.387Zm-2.34-.135h1.512c.402 0 .711-.075.927-.225.216-.156.324-.378.324-.666 0-.294-.108-.513-.324-.657-.21-.15-.519-.225-.927-.225h-1.512v1.773Zm1.584 2.187c.894 0 1.341-.303 1.341-.91 0-.317-.102-.551-.306-.701-.204-.15-.525-.225-.963-.225h-1.656v1.836h1.584Zm10.724-1.872h-4.041c.012.366.105.693.279.98.174.283.408.502.702.658.3.156.636.234 1.008.234.306 0 .588-.054.846-.162.264-.114.483-.28.657-.495l.261.297a1.998 1.998 0 0 1-.774.567 2.495 2.495 0 0 1-.999.198c-.468 0-.885-.102-1.251-.306a2.25 2.25 0 0 1-.864-.846 2.457 2.457 0 0 1-.306-1.233c0-.456.096-.864.288-1.224.198-.366.468-.651.81-.855a2.205 2.205 0 0 1 1.152-.306c.426 0 .807.102 1.143.306.342.198.609.477.801.837.198.36.297.768.297 1.224l-.009.126Zm-2.232-2.097c-.33 0-.627.075-.891.225a1.67 1.67 0 0 0-.639.62 2.027 2.027 0 0 0-.27.9h3.6a1.884 1.884 0 0 0-.27-.9 1.76 1.76 0 0 0-.639-.62 1.771 1.771 0 0 0-.891-.225Zm9.409-.396c.438 0 .834.102 1.188.306.354.204.63.486.828.846.204.36.306.77.306 1.233 0 .462-.102.876-.306 1.242-.198.36-.474.642-.828.846-.354.198-.75.297-1.188.297-.414 0-.789-.096-1.125-.288a2.058 2.058 0 0 1-.783-.82v2.818h-.45v-6.444h.432v1.107a2.03 2.03 0 0 1 .783-.837 2.189 2.189 0 0 1 1.143-.306Zm-.027 4.365c.36 0 .684-.084.972-.252.288-.168.513-.402.675-.702.168-.3.252-.642.252-1.026s-.084-.726-.252-1.026a1.768 1.768 0 0 0-.675-.702 1.893 1.893 0 0 0-.972-.252c-.36 0-.684.084-.972.252a1.853 1.853 0 0 0-.675.702c-.162.3-.243.642-.243 1.026s.081.726.243 1.026c.168.3.393.534.675.702.288.168.612.252.972.252Zm8.735-1.81h-1.143v2.179h-.45v-4.698h.45v2.133h1.143l1.773-2.133h.495l-1.908 2.277 2.052 2.42h-.54l-1.872-2.177Zm8.557 2.215c-.444 0-.846-.102-1.206-.306a2.223 2.223 0 0 1-.837-.846 2.489 2.489 0 0 1-.306-1.233c0-.456.102-.864.306-1.224.204-.366.483-.651.837-.855.36-.204.762-.306 1.206-.306.444 0 .843.102 1.197.306.36.204.642.489.846.855.204.36.306.768.306 1.224 0 .456-.102.867-.306 1.233-.204.36-.486.642-.846.846a2.354 2.354 0 0 1-1.197.306Zm0-.405c.36 0 .681-.084.963-.252.288-.168.513-.402.675-.702.168-.3.252-.642.252-1.026s-.084-.726-.252-1.026a1.768 1.768 0 0 0-.675-.702 1.845 1.845 0 0 0-.963-.252c-.36 0-.684.084-.972.252a1.853 1.853 0 0 0-.675.702c-.162.3-.243.642-.243 1.026s.081.726.243 1.026c.168.3.393.534.675.702.288.168.612.252.972.252Zm9.926-2.052c.69.12 1.035.507 1.035 1.16 0 .409-.15.72-.45.937-.294.216-.738.324-1.332.324h-2.034v-4.698h1.98c.522 0 .93.105 1.224.315.3.204.45.498.45.882 0 .276-.078.507-.234.693-.15.18-.363.309-.639.387Zm-2.34-.135h1.512c.402 0 .711-.075.927-.225.216-.156.324-.378.324-.666 0-.294-.108-.513-.324-.657-.21-.15-.519-.225-.927-.225h-1.512v1.773Zm1.584 2.187c.894 0 1.341-.303 1.341-.91 0-.317-.102-.551-.306-.701-.204-.15-.525-.225-.963-.225h-1.656v1.836h1.584Z"/><defs><filter id="a" width="198.988" height="23.272" x="1.012" y="0" color-interpolation-filters="sRGB" filterUnits="userSpaceOnUse"><feFlood flood-opacity="0" result="BackgroundImageFix"/><feBlend in="SourceGraphic" in2="BackgroundImageFix" result="shape"/><feColorMatrix in="SourceAlpha" result="hardAlpha" values="0 0 0 0 0 0 0 0 0 0 0 0 0 0 0 0 0 0 127 0"/><feOffset dx="1" dy="1"/><feComposite in2="hardAlpha" k2="-1" k3="1" operator="arithmetic"/><feColorMatrix values="0 0 0 0 0 0 0 0 0 0 0 0 0 0 0 0 0 0 0.1 0"/><feBlend in2="shape" result="effect1_innerShadow_6282_23650"/></filter></defs></svg>