<svg xmlns="http://www.w3.org/2000/svg" width="17" height="17" fill="none"><g clip-path="url(#a)"><path fill="url(#b)" d="M8.5 0a8.499 8.499 0 1 0 0 16.998A8.499 8.499 0 0 0 8.5 0Z"/><path fill="#fff" d="M3.847 8.41a413.38 413.38 0 0 1 4.957-2.135c2.361-.982 2.851-1.152 3.171-1.158a.56.56 0 0 1 .33.099c.085.07.109.164.12.23.011.066.026.217.014.335-.127 1.344-.681 4.605-.963 6.11-.118.638-.353.851-.58.872-.494.046-.869-.326-1.347-.64-.748-.49-1.17-.795-1.897-1.273-.839-.553-.294-.858.184-1.354.125-.13 2.3-2.109 2.341-2.288.005-.022.01-.106-.04-.15-.049-.044-.122-.03-.175-.017-.076.017-1.27.807-3.586 2.37-.339.232-.645.346-.922.34-.302-.006-.887-.172-1.321-.313-.531-.173-.955-.264-.918-.558.019-.153.23-.31.632-.47Z"/></g><defs><linearGradient id="b" x1="850" x2="850" y1="0" y2="1700" gradientUnits="userSpaceOnUse"><stop stop-color="#2AABEE"/><stop offset="1" stop-color="#229ED9"/></linearGradient><clipPath id="a"><path fill="#fff" d="M0 0h17v17H0z"/></clipPath></defs></svg>