<svg xmlns="http://www.w3.org/2000/svg" width="17" height="17" fill="none"><circle cx="8.5" cy="8.5" r="7.5" fill="#fff"/><path fill="#43D854" d="M8.5 0A8.5 8.5 0 0 1 17 8.5a8.5 8.5 0 0 1-12.775 7.348L.003 17l1.15-4.223A8.5 8.5 0 0 1 8.5 0ZM5.603 4.505l-.17.007a.817.817 0 0 0-.316.085 1.099 1.099 0 0 0-.25.194c-.102.096-.16.179-.222.26a2.32 2.32 0 0 0-.48 1.426c0 .417.11.822.28 1.201.347.767.92 1.578 1.674 2.33.182.182.36.364.553.533a8.03 8.03 0 0 0 3.264 1.739l.482.074c.158.008.315-.003.473-.011.248-.013.49-.08.708-.197.111-.057.22-.12.326-.187 0 0 .036-.023.106-.076a1.95 1.95 0 0 0 .28-.245.974.974 0 0 0 .179-.256c.066-.14.133-.403.16-.624.02-.168.014-.26.012-.317-.004-.09-.08-.185-.162-.225l-.495-.222s-.74-.322-1.191-.528a.422.422 0 0 0-.15-.034.41.41 0 0 0-.321.108c-.004-.002-.061.046-.676.79a.298.298 0 0 1-.313.111 1.223 1.223 0 0 1-.162-.056l-.214-.091c-.488-.213-.94-.501-1.339-.853-.107-.094-.207-.196-.309-.294a5.352 5.352 0 0 1-.867-1.078l-.05-.08a.784.784 0 0 1-.086-.175c-.033-.125.051-.225.051-.225s.207-.226.303-.349c.094-.119.173-.234.224-.317.1-.161.131-.327.079-.455a70.77 70.77 0 0 0-.738-1.735c-.05-.114-.2-.196-.334-.212-.046-.005-.092-.01-.138-.013a2.877 2.877 0 0 0-.342.003l.17-.007.001.001Z"/></svg>