<?xml version="1.0" encoding="utf-8"?><svg viewBox="0 0 19 17" xmlns="http://www.w3.org/2000/svg" xmlns:xlink="http://www.w3.org/1999/xlink"><style>:root>svg{display:none}:root>svg:target{display:block}</style><svg viewBox="0 0 19 14" id="i-bar-1" xmlns="http://www.w3.org/2000/svg"><path d="M3.5 7a1 1 0 011-1h10a1 1 0 011 1v4a2 2 0 01-2 2h-8a2 2 0 01-2-2V7z"/><rect width="2" height="5" x="12.5" y="1" rx=".5"/><path d="M8.7.85L2.431 5.551C1.72 6.086 2.223 7 3.231 7H15.77c1.007 0 1.512-.914.8-1.449L10.3.851C9.858.518 9.142.518 8.7.85z"/></svg><svg viewBox="0 0 16 11" id="i-bar-2" xmlns="http://www.w3.org/2000/svg"><rect width="15" height="3" x=".598" rx="1.5"/><rect width="15" height="3" x=".598" y="4" rx="1.5"/><rect width="15" height="3" x=".598" y="8" rx="1.5"/></svg><svg viewBox="0 0 14 12" id="i-bar-3" xmlns="http://www.w3.org/2000/svg"><path d="M7 12l-.942-.863C2.71 8.083.5 6.069.5 3.597.5 1.583 2.073 0 4.075 0 5.206 0 6.291.53 7 1.367A3.883 3.883 0 019.925 0C11.927 0 13.5 1.583 13.5 3.597c0 2.472-2.21 4.486-5.558 7.546L7 12z"/></svg><svg viewBox="0 0 14 17" id="i-bar-4" xmlns="http://www.w3.org/2000/svg"><path fill-rule="evenodd" d="M4.077 12.47c-.73 0-1.316.592-1.316 1.323 0 .73.586 1.323 1.316 1.323a1.323 1.323 0 000-2.646zm6.617 0c-.73 0-1.317.592-1.317 1.323 0 .73.586 1.323 1.317 1.323a1.323 1.323 0 000-2.646zM1.43 1.884H.77a.661.661 0 100 1.322h.15a.81.81 0 01.732.464l1.367 2.883a3.614 3.614 0 01-.101 3.295 1.324 1.324 0 001.161 1.96h7.277a.662.662 0 100-1.323H4.358a.164.164 0 01-.16-.126.165.165 0 01.004-.078.328.328 0 01.031-.08l.088-.158c.3-.544.872-.882 1.493-.882h3.921c.498 0 .932-.274 1.158-.68l2.364-4.293a.662.662 0 00-.579-.981H3.522a.99.99 0 01-.894-.566 1.321 1.321 0 00-1.196-.757z" clip-rule="evenodd"/></svg><svg fill="none" viewBox="0 0 17 12" id="i-bar-5" xmlns="http://www.w3.org/2000/svg"><path d="M11.214 1H14.5a1 1 0 011 1v8a1 1 0 01-1 1h-3.286M6.683 1.96L10.723 6l-4.04 4.04"/><rect width="9.286" height="1.429" x=".5" y="5.286" fill="#fff" rx=".714"/></svg></svg>